<svg xmlns="http://www.w3.org/2000/svg" xmlns:xlink="http://www.w3.org/1999/xlink" width="108" height="108" viewBox="0 0 108 108">
  <defs>
    <filter id="Path_904820" x="0" y="0" width="108" height="108" filterUnits="userSpaceOnUse">
      <feOffset dy="3" input="SourceAlpha"/>
      <feGaussianBlur stdDeviation="3" result="blur"/>
      <feFlood flood-opacity="0.161"/>
      <feComposite operator="in" in2="blur"/>
      <feComposite in="SourceGraphic"/>
    </filter>
  </defs>
  <g id="Group_1163036" data-name="Group 1163036" transform="translate(-160 -8685.307)">
    <g id="Group_1160644" data-name="Group 1160644" transform="translate(0 127.306)">
      <g id="Group_1160534" data-name="Group 1160534" transform="translate(169 8564)">
        <g id="Icono">
          <g transform="matrix(1, 0, 0, 1, -9, -6)" filter="url(#Path_904820)">
            <g id="Path_904820-2" data-name="Path 904820" transform="translate(9 6)" fill="#ecf4fa">
              <path d="M 45 88.5 C 39.12687683105469 88.5 33.43022537231445 87.35007476806641 28.06830024719238 85.08217620849609 C 22.88852500915527 82.89131164550781 18.23629951477051 79.75458526611328 14.2408504486084 75.75914764404297 C 10.24541282653809 71.76370239257812 7.108687400817871 67.11147308349609 4.917825222015381 61.93170166015625 C 2.649924993515015 56.56977462768555 1.5 50.87312316894531 1.5 45 C 1.5 39.12687683105469 2.649924993515015 33.43022537231445 4.917825222015381 28.06830024719238 C 7.108687400817871 22.88852500915527 10.24541282653809 18.23629951477051 14.2408504486084 14.2408504486084 C 18.23629951477051 10.24541282653809 22.88852500915527 7.108687400817871 28.06830024719238 4.917825222015381 C 33.43022537231445 2.649924993515015 39.12687683105469 1.5 45 1.5 C 50.87312316894531 1.5 56.56977462768555 2.649924993515015 61.93170166015625 4.917825222015381 C 67.11147308349609 7.108687400817871 71.76370239257812 10.24541282653809 75.75914764404297 14.2408504486084 C 79.75458526611328 18.23629951477051 82.89131164550781 22.88852500915527 85.08217620849609 28.06830024719238 C 87.35007476806641 33.43022537231445 88.5 39.12687683105469 88.5 45 C 88.5 50.87312316894531 87.35007476806641 56.56977462768555 85.08217620849609 61.93170166015625 C 82.89131164550781 67.11147308349609 79.75458526611328 71.76370239257812 75.75914764404297 75.75914764404297 C 71.76370239257812 79.75458526611328 67.11147308349609 82.89131164550781 61.93170166015625 85.08217620849609 C 56.56977462768555 87.35007476806641 50.87312316894531 88.5 45 88.5 Z" stroke="none"/>
              <path d="M 45 3 C 39.32871246337891 3 33.82865524291992 4.110054016113281 28.65262985229492 6.299339294433594 C 23.65165710449219 8.414573669433594 19.15968322753906 11.44334411621094 15.301513671875 15.301513671875 C 11.44334411621094 19.15968322753906 8.414573669433594 23.65165710449219 6.299339294433594 28.65262985229492 C 4.110054016113281 33.82865524291992 3 39.32871246337891 3 45 C 3 50.67128753662109 4.110054016113281 56.17134475708008 6.299339294433594 61.34737396240234 C 8.414573669433594 66.34834289550781 11.44334411621094 70.84031677246094 15.301513671875 74.698486328125 C 19.15968322753906 78.55665588378906 23.65165710449219 81.58542633056641 28.65262985229492 83.70066070556641 C 33.82865524291992 85.88994598388672 39.32871246337891 87 45 87 C 50.67128753662109 87 56.17134475708008 85.88994598388672 61.34737396240234 83.70066070556641 C 66.34834289550781 81.58542633056641 70.84031677246094 78.55665588378906 74.698486328125 74.698486328125 C 78.55665588378906 70.84031677246094 81.58542633056641 66.34834289550781 83.70066070556641 61.34737396240234 C 85.88994598388672 56.17134475708008 87 50.67128753662109 87 45 C 87 39.32871246337891 85.88994598388672 33.82865524291992 83.70066070556641 28.65262985229492 C 81.58542633056641 23.65165710449219 78.55665588378906 19.15968322753906 74.698486328125 15.301513671875 C 70.84031677246094 11.44334411621094 66.34834289550781 8.414573669433594 61.34737396240234 6.299339294433594 C 56.17134475708008 4.110054016113281 50.67128753662109 3 45 3 M 45 0 C 69.85281372070312 0 90 20.14718627929688 90 45 C 90 69.85281372070312 69.85281372070312 90 45 90 C 20.14718627929688 90 0 69.85281372070312 0 45 C 0 20.14718627929688 20.14718627929688 0 45 0 Z" stroke="none" fill="#2a5673"/>
            </g>
          </g>
        </g>
      </g>
      <g id="corazon_1_" data-name="corazon (1)" transform="translate(182 8577)">
        <g id="Group_1160642" data-name="Group 1160642" transform="translate(0.936 0.936)">
          <circle id="Ellipse_11642" data-name="Ellipse 11642" cx="30.998" cy="30.998" r="30.998" fill="#eaebeb"/>
          <path id="Path_990384" data-name="Path 990384" d="M79.573,147.749a6.345,6.345,0,0,0,4.85,0c17.876-7.4,21.932-20.607,22.328-25.966.357-4.822-1.277-11.98-9.663-14.353-7.91-2.238-13.832,3.258-14.913,4.352a.249.249,0,0,1-.355,0c-1.081-1.095-7-6.59-14.913-4.352-8.386,2.373-10.02,9.531-9.663,14.353.4,5.359,4.453,18.565,22.329,25.966Z" transform="translate(-50.999 -94.501)" fill="#f75574"/>
          <path id="Path_990385" data-name="Path 990385" d="M245.935,7.5c-.481,0-.959.013-1.435.034a31,31,0,0,1,0,61.928c.476.022.954.034,1.435.034a31,31,0,0,0,0-62Z" transform="translate(-214.936 -7.5)" fill="#d8dcdc"/>
          <path id="Path_990386" data-name="Path 990386" d="M261.025,107.432a13.67,13.67,0,0,0-5.211-.454,14.033,14.033,0,0,1,2.342.454c8.386,2.372,10.02,9.531,9.663,14.353-.4,5.359-4.453,18.565-22.328,25.966a6.325,6.325,0,0,1-.991.316,6.343,6.343,0,0,0,3.86-.316c17.876-7.4,21.932-20.607,22.328-25.966C271.045,116.962,269.411,109.8,261.025,107.432Z" transform="translate(-214.936 -94.502)" fill="#f3395e"/>
          <path id="Path_990387" data-name="Path 990387" d="M214.583,232.184v8.266a1.033,1.033,0,0,0,1.033,1.033h5.647a1.033,1.033,0,0,0,1.033-1.033v-6.8a1.033,1.033,0,0,0-.3-.731l-1.461-1.461a1.033,1.033,0,0,0-.731-.3h-4.185A1.033,1.033,0,0,0,214.583,232.184Z" transform="translate(-188.751 -203.252)" fill="#ffe751"/>
          <g id="Group_1160641" data-name="Group 1160641" transform="translate(47.014 24.701)">
            <g id="Group_1160640" data-name="Group 1160640">
              <path id="Path_990388" data-name="Path 990388" d="M384.392,205.517h0Z" transform="translate(-384.392 -205.517)" fill="#ffe751"/>
            </g>
          </g>
          <path id="Path_990389" data-name="Path 990389" d="M259.48,232.915l-1.461-1.461a1.033,1.033,0,0,0-.731-.3h-2.869a1.033,1.033,0,0,1,.731.3l1.461,1.461a1.033,1.033,0,0,1,.3.731v6.8a1.033,1.033,0,0,1-1.033,1.033h2.869a1.033,1.033,0,0,0,1.033-1.033v-6.8A1.032,1.032,0,0,0,259.48,232.915Z" transform="translate(-223.618 -203.252)" fill="#ffc738"/>
        </g>
        <g id="Group_1160643" data-name="Group 1160643">
          <path id="Path_990390" data-name="Path 990390" d="M54.515,9.353A31.935,31.935,0,0,0,10.89,7.914a.936.936,0,0,0,1.233,1.407,30.062,30.062,0,1,1-2.981,3.008.936.936,0,0,0-1.418-1.221,31.934,31.934,0,1,0,46.79-1.755Z"/>
          <path id="Path_990391" data-name="Path 990391" d="M61.515,134.369a.936.936,0,0,0,.143,1.315,45.023,45.023,0,0,0,11,6.4,7.228,7.228,0,0,0,5.565,0c7.956-3.294,14.058-8.035,18.137-14.09a26.888,26.888,0,0,0,4.767-12.671,16.329,16.329,0,0,0-1.658-8.6A13.459,13.459,0,0,0,90.791,100a15.186,15.186,0,0,0-11.531,1.416,19.193,19.193,0,0,0-3.814,2.709,19.2,19.2,0,0,0-3.814-2.709A15.186,15.186,0,0,0,60.1,100a13.459,13.459,0,0,0-8.684,6.723,16.329,16.329,0,0,0-1.658,8.6c.161,2.168,1.254,9.826,8.578,17.347a.936.936,0,1,0,1.34-1.306,31.78,31.78,0,0,1-2.724-3.193h6.191v2.681a1.454,1.454,0,0,0,1.452,1.452h1.8a3,3,0,1,0,0-1.871H65.015v-2.681a1.454,1.454,0,0,0-1.452-1.452h-7.9a25.164,25.164,0,0,1-4.04-11.116c-.184-2.491-.082-10.818,8.985-13.383a13.13,13.13,0,0,1,2.534-.459v7.543a3.015,3.015,0,0,0-1.917,1.916H57.363a1.454,1.454,0,0,0-1.452,1.452v8.266a1.454,1.454,0,0,0,1.452,1.452h3.864a3,3,0,1,0,0-1.871H57.782v-7.428h3.445a3,3,0,0,0,5.7,0H83.959a3,3,0,0,0,5.7,0h3.445V120.1H89.664a3,3,0,1,0,0,1.871h3.864a1.454,1.454,0,0,0,1.452-1.452v-8.266a1.454,1.454,0,0,0-1.452-1.452H89.663a3.015,3.015,0,0,0-1.917-1.917v-7.543a13.139,13.139,0,0,1,2.534.459c9.066,2.565,9.17,10.892,8.985,13.383A25.507,25.507,0,0,1,95.221,126.3H87.328a1.454,1.454,0,0,0-1.452,1.452v2.681H84.5a3,3,0,1,0,0,1.871h1.8a1.454,1.454,0,0,0,1.452-1.452v-2.681h6.188c-3.192,4.292-8.288,8.816-16.423,12.184a5.441,5.441,0,0,1-4.134,0,43.153,43.153,0,0,1-10.548-6.131A.936.936,0,0,0,61.515,134.369Zm7.731-4.13a1.131,1.131,0,1,1-1.131,1.131A1.132,1.132,0,0,1,69.246,130.239Zm-5.166-10.333a1.131,1.131,0,1,1-1.131,1.131A1.132,1.132,0,0,1,64.079,119.906Zm22.732,2.262a1.131,1.131,0,1,1,1.131-1.131A1.132,1.132,0,0,1,86.811,122.168ZM80.2,103.035a14.049,14.049,0,0,1,5.673-1.7v7.552a3.015,3.015,0,0,0-1.917,1.916H76.381V105.82A17.164,17.164,0,0,1,80.2,103.035ZM74.51,105.82V110.8H66.931a3.015,3.015,0,0,0-1.917-1.917v-7.552a14.05,14.05,0,0,1,5.673,1.7A17.17,17.17,0,0,1,74.51,105.82Zm-10.431,7.048a1.131,1.131,0,1,1,1.131-1.131A1.132,1.132,0,0,1,64.079,112.868Zm22.732,0a1.131,1.131,0,1,1,1.131-1.131A1.132,1.132,0,0,1,86.811,112.868ZM81.645,132.5a1.131,1.131,0,1,1,1.131-1.131A1.132,1.132,0,0,1,81.645,132.5Z" transform="translate(-43.511 -87.036)"/>
          <path id="Path_990392" data-name="Path 990392" d="M219.288,233.885v-6.8a1.956,1.956,0,0,0-.577-1.392l-1.461-1.461a1.956,1.956,0,0,0-1.392-.577h-6.8a1.971,1.971,0,0,0-1.969,1.969v8.266a1.971,1.971,0,0,0,1.969,1.969h8.266A1.971,1.971,0,0,0,219.288,233.885Zm-10.333,0v-8.266a.1.1,0,0,1,.1-.1h6.8a.1.1,0,0,1,.069.029l1.461,1.461a.1.1,0,0,1,.029.069v6.8a.1.1,0,0,1-.1.1h-8.266A.1.1,0,0,1,208.955,233.885Z" transform="translate(-181.252 -195.751)"/>
        </g>
      </g>
    </g>
  </g>
</svg>
