<svg xmlns="http://www.w3.org/2000/svg" xmlns:xlink="http://www.w3.org/1999/xlink" width="108" height="108" viewBox="0 0 108 108">
  <defs>
    <filter id="Path_904820" x="0" y="0" width="108" height="108" filterUnits="userSpaceOnUse">
      <feOffset dy="3" input="SourceAlpha"/>
      <feGaussianBlur stdDeviation="3" result="blur"/>
      <feFlood flood-opacity="0.161"/>
      <feComposite operator="in" in2="blur"/>
      <feComposite in="SourceGraphic"/>
    </filter>
  </defs>
  <g id="Group_1163040" data-name="Group 1163040" transform="translate(-160 -1964)">
    <g id="Group_1160654" data-name="Group 1160654">
      <g id="Group_1160536" data-name="Group 1160536" transform="translate(169 1970)">
        <g id="Icono">
          <g transform="matrix(1, 0, 0, 1, -9, -6)" filter="url(#Path_904820)">
            <g id="Path_904820-2" data-name="Path 904820" transform="translate(9 6)" fill="#ecf4fa">
              <path d="M 45 88.5 C 39.12687683105469 88.5 33.43022537231445 87.35007476806641 28.06830024719238 85.08217620849609 C 22.88852500915527 82.89131164550781 18.23629951477051 79.75458526611328 14.2408504486084 75.75914764404297 C 10.24541282653809 71.76370239257812 7.108687400817871 67.11147308349609 4.917825222015381 61.93170166015625 C 2.649924993515015 56.56977462768555 1.5 50.87312316894531 1.5 45 C 1.5 39.12687683105469 2.649924993515015 33.43022537231445 4.917825222015381 28.06830024719238 C 7.108687400817871 22.88852500915527 10.24541282653809 18.23629951477051 14.2408504486084 14.2408504486084 C 18.23629951477051 10.24541282653809 22.88852500915527 7.108687400817871 28.06830024719238 4.917825222015381 C 33.43022537231445 2.649924993515015 39.12687683105469 1.5 45 1.5 C 50.87312316894531 1.5 56.56977462768555 2.649924993515015 61.93170166015625 4.917825222015381 C 67.11147308349609 7.108687400817871 71.76370239257812 10.24541282653809 75.75914764404297 14.2408504486084 C 79.75458526611328 18.23629951477051 82.89131164550781 22.88852500915527 85.08217620849609 28.06830024719238 C 87.35007476806641 33.43022537231445 88.5 39.12687683105469 88.5 45 C 88.5 50.87312316894531 87.35007476806641 56.56977462768555 85.08217620849609 61.93170166015625 C 82.89131164550781 67.11147308349609 79.75458526611328 71.76370239257812 75.75914764404297 75.75914764404297 C 71.76370239257812 79.75458526611328 67.11147308349609 82.89131164550781 61.93170166015625 85.08217620849609 C 56.56977462768555 87.35007476806641 50.87312316894531 88.5 45 88.5 Z" stroke="none"/>
              <path d="M 45 3 C 39.32871246337891 3 33.82865524291992 4.110054016113281 28.65262985229492 6.299339294433594 C 23.65165710449219 8.414573669433594 19.15968322753906 11.44334411621094 15.301513671875 15.301513671875 C 11.44334411621094 19.15968322753906 8.414573669433594 23.65165710449219 6.299339294433594 28.65262985229492 C 4.110054016113281 33.82865524291992 3 39.32871246337891 3 45 C 3 50.67128753662109 4.110054016113281 56.17134475708008 6.299339294433594 61.34737396240234 C 8.414573669433594 66.34834289550781 11.44334411621094 70.84031677246094 15.301513671875 74.698486328125 C 19.15968322753906 78.55665588378906 23.65165710449219 81.58542633056641 28.65262985229492 83.70066070556641 C 33.82865524291992 85.88994598388672 39.32871246337891 87 45 87 C 50.67128753662109 87 56.17134475708008 85.88994598388672 61.34737396240234 83.70066070556641 C 66.34834289550781 81.58542633056641 70.84031677246094 78.55665588378906 74.698486328125 74.698486328125 C 78.55665588378906 70.84031677246094 81.58542633056641 66.34834289550781 83.70066070556641 61.34737396240234 C 85.88994598388672 56.17134475708008 87 50.67128753662109 87 45 C 87 39.32871246337891 85.88994598388672 33.82865524291992 83.70066070556641 28.65262985229492 C 81.58542633056641 23.65165710449219 78.55665588378906 19.15968322753906 74.698486328125 15.301513671875 C 70.84031677246094 11.44334411621094 66.34834289550781 8.414573669433594 61.34737396240234 6.299339294433594 C 56.17134475708008 4.110054016113281 50.67128753662109 3 45 3 M 45 0 C 69.85281372070312 0 90 20.14718627929688 90 45 C 90 69.85281372070312 69.85281372070312 90 45 90 C 20.14718627929688 90 0 69.85281372070312 0 45 C 0 20.14718627929688 20.14718627929688 0 45 0 Z" stroke="none" fill="#2a5673"/>
            </g>
          </g>
        </g>
      </g>
      <g id="emocional_1_" data-name="emocional (1)" transform="translate(163.905 1987.001)">
        <g id="Group_1160652" data-name="Group 1160652" transform="translate(26.018 0.811)">
          <g id="Group_1160647" data-name="Group 1160647" transform="translate(0)">
            <g id="Group_1160645" data-name="Group 1160645">
              <path id="Path_990393" data-name="Path 990393" d="M75.256,59.984a36.071,36.071,0,0,1-2.162-10.35,8.169,8.169,0,0,1,1.917-5.885c8.008-9.364,8.022-21.076,1.011-28.517-3.261-3.461-6-5.827-10-6.82-.291-.072-.736-.3-1.028-.357a31.045,31.045,0,0,0-13.163.282,19.021,19.021,0,0,0-11.889,7.9c-1.239,1.844-1.963,3.57-2.207,7.37-.122,1.906-.9,2.328-1.206,3.837A3.208,3.208,0,0,0,37,29.712a2.478,2.478,0,0,1,.268,1.9c-.079.306-.177.638-.3.988a14.819,14.819,0,0,1-2.9,5.136,1.9,1.9,0,0,0,.359,2.831,3.259,3.259,0,0,0,1.361.529l1.823.266a.108.108,0,0,1,.088.076,2.37,2.37,0,0,1-.4,2.346,1.007,1.007,0,0,0-.11,1.535,2.856,2.856,0,0,0,.675.621.109.109,0,0,1,0,.181,1.22,1.22,0,0,0,.2,2.182,6.056,6.056,0,0,1,.749.376,1.4,1.4,0,0,1,.018,1.684,2.924,2.924,0,0,0-.548,2.522c.639,2.341,3.261,2.928,5.7,2.522,1.973-.329,3.508-1.425,4.934-.329,1.011.778,2.2,2.1,2.4,5.945a.435.435,0,0,0,.433.414H73.395l1.453-.864a.433.433,0,0,0,.408-.582Z" transform="translate(-33.595 -7.477)" fill="#f4aa73"/>
            </g>
            <g id="Group_1160646" data-name="Group 1160646" transform="translate(31.399 0.578)">
              <path id="Path_990394" data-name="Path 990394" d="M334.385,65.595a.433.433,0,0,1-.408.582h-2.745a55.957,55.957,0,0,1-3.071-12.794,8.31,8.31,0,0,1,1.978-5.957c7.947-9.352,7.984-21.618.992-29.042a22.27,22.27,0,0,0-8.3-5.584,22.558,22.558,0,0,1,11.991,6.669c6.992,7.423,6.954,19.689-.992,29.042a8.31,8.31,0,0,0-1.978,5.957,41.752,41.752,0,0,0,2.534,11.126Z" transform="translate(-322.83 -12.801)" fill="#ea9f6c"/>
            </g>
          </g>
          <g id="Group_1160651" data-name="Group 1160651" transform="translate(11.387 7.952)">
            <g id="Group_1160648" data-name="Group 1160648" transform="translate(6.622 13.516)">
              <path id="Path_990395" data-name="Path 990395" d="M215.17,213.368c0,4.5-3.043,7.762-7.539,7.762A8.043,8.043,0,0,1,200,216.207a7.7,7.7,0,0,1-.509-2.839,8.141,8.141,0,0,1,14.473-5.119s.173.338.279.488C215.172,210.06,215.17,211.626,215.17,213.368Z" transform="translate(-199.489 -205.226)" fill="#ffe077"/>
              <path id="Path_990396" data-name="Path 990396" d="M219.954,238.19a8.143,8.143,0,0,1-15.775,2.839,8.144,8.144,0,0,0,13.963-7.958A8.1,8.1,0,0,1,219.954,238.19Z" transform="translate(-203.67 -230.048)" fill="#ffd05b"/>
            </g>
            <g id="Group_1160649" data-name="Group 1160649" transform="translate(14.004 3.854)">
              <path id="Path_990397" data-name="Path 990397" d="M283.17,124.368c0,4.5-3.043,7.762-7.539,7.762A8.043,8.043,0,0,1,268,127.207a7.7,7.7,0,0,1-.509-2.839,8.141,8.141,0,0,1,14.473-5.119s.173.338.279.488C283.172,121.06,283.17,122.626,283.17,124.368Z" transform="translate(-267.489 -116.226)" fill="#bbf39b"/>
              <path id="Path_990398" data-name="Path 990398" d="M287.954,149.19a8.143,8.143,0,0,1-15.775,2.839,8.144,8.144,0,0,0,13.963-7.958A8.1,8.1,0,0,1,287.954,149.19Z" transform="translate(-271.67 -141.048)" fill="#9ae59c"/>
            </g>
            <g id="Group_1160650" data-name="Group 1160650">
              <path id="Path_990399" data-name="Path 990399" d="M154.17,88.868c0,4.5-3.043,7.762-7.539,7.762A8.043,8.043,0,0,1,139,91.707a7.7,7.7,0,0,1-.509-2.839,8.141,8.141,0,0,1,14.473-5.119s.173.338.279.488C154.172,85.56,154.17,87.126,154.17,88.868Z" transform="translate(-138.489 -80.726)" fill="#fe8991"/>
              <path id="Path_990400" data-name="Path 990400" d="M158.954,113.69a8.143,8.143,0,0,1-15.775,2.839,8.144,8.144,0,0,0,13.963-7.958A8.1,8.1,0,0,1,158.954,113.69Z" transform="translate(-142.67 -105.548)" fill="#fe646f"/>
            </g>
          </g>
        </g>
        <g id="Group_1160653" data-name="Group 1160653" transform="translate(25.095 -0.001)">
          <path id="Path_990401" data-name="Path 990401" d="M41.728,97.492c-1.337-1.028-2.706-.617-4.029-.219a12.469,12.469,0,0,1-1.535.39c-1.968.328-4.257-.008-4.782-1.933a2.262,2.262,0,0,1,.47-1.9,2.12,2.12,0,0,0-.26-2.756,5.353,5.353,0,0,0-.838-.429c-.131-.068-.35-.214-.35-.425a.5.5,0,0,1,.3-.405.814.814,0,0,0,.014-1.431,2.152,2.152,0,0,1-.566-.489c-.2-.265-.162-.3-.007-.433a3.129,3.129,0,0,0,.618-3.291.814.814,0,0,0-.652-.54l-1.89-.276a2.46,2.46,0,0,1-1.021-.4,1.088,1.088,0,0,1-.207-1.618,15.754,15.754,0,0,0,3.057-5.409c.119-.344.225-.7.317-1.05a3.313,3.313,0,0,0-.359-2.52,2.421,2.421,0,0,1-.367-1.689,5.192,5.192,0,0,1,.489-1.33,6.328,6.328,0,0,0,.732-2.615c.232-3.612.907-5.235,2.071-6.968a17.289,17.289,0,0,1,2.125-2.578.814.814,0,1,0-1.151-1.152,18.927,18.927,0,0,0-2.325,2.822c-1.292,1.923-2.09,3.811-2.344,7.771a4.746,4.746,0,0,1-.574,2.014,6.775,6.775,0,0,0-.617,1.716,4.016,4.016,0,0,0,.568,2.847,1.675,1.675,0,0,1,.178,1.274c-.08.311-.174.622-.279.925a14.165,14.165,0,0,1-2.738,4.862,2.716,2.716,0,0,0,.512,4.044,4.1,4.1,0,0,0,1.7.661l1.336.195a1.249,1.249,0,0,1-.247,1.074,1.806,1.806,0,0,0-.226,2.637,3.035,3.035,0,0,0,.241.283,1.985,1.985,0,0,0-.315,1.071A2.13,2.13,0,0,0,30,92.085c.135.071.324.167.576.27a.944.944,0,0,1-.139.664,3.743,3.743,0,0,0-.627,3.14c.668,2.449,3.267,3.669,6.621,3.111a13.915,13.915,0,0,0,1.736-.437c1.244-.374,1.922-.546,2.568-.049.971.747,1.979,2.013,2.095,5.739a.814.814,0,0,0,.813.789h.026a.814.814,0,0,0,.789-.839C44.321,100.066,43,98.471,41.728,97.492Z" transform="translate(-25.095 -49.731)"/>
          <path id="Path_990402" data-name="Path 990402" d="M132.64,5.145a19.712,19.712,0,0,1,6.434-2.681c5.714-1.3,16.479-2.235,24.38,6.153,6.588,6.993,6.473,18.363-.272,27.035a.814.814,0,1,0,1.285,1,25.254,25.254,0,0,0,5.506-15.313A20.018,20.018,0,0,0,164.639,7.5,23.341,23.341,0,0,0,151.976.542a31.989,31.989,0,0,0-13.264.335,21.335,21.335,0,0,0-6.963,2.905.814.814,0,0,0,.891,1.363Z" transform="translate(-119.842 0.001)"/>
          <path id="Path_990403" data-name="Path 990403" d="M398.89,358.764a7.442,7.442,0,0,1,.576-3.413.814.814,0,1,0-1.5-.637,9.079,9.079,0,0,0-.7,4.164,43.515,43.515,0,0,0,2.8,11.941.814.814,0,0,0,1.523-.578A41.87,41.87,0,0,1,398.89,358.764Z" transform="translate(-356.844 -315.765)"/>
          <path id="Path_990404" data-name="Path 990404" d="M242.8,245.226a.814.814,0,0,0-.814.814v2.171a.814.814,0,1,0,1.628,0V246.04A.814.814,0,0,0,242.8,245.226Z" transform="translate(-218.443 -218.605)"/>
          <path id="Path_990405" data-name="Path 990405" d="M247.237,298.39a.814.814,0,0,0,1.151,0,2.257,2.257,0,0,1,3.189,0,.814.814,0,0,0,1.151-1.151,3.888,3.888,0,0,0-5.492,0A.814.814,0,0,0,247.237,298.39Z" transform="translate(-222.909 -263.959)"/>
          <path id="Path_990406" data-name="Path 990406" d="M162.9,86.038a8.993,8.993,0,0,0-5.851-8.4.814.814,0,0,0-.565,1.527,7.329,7.329,0,1,1-9.635,8.714,8.952,8.952,0,0,0,1.944-7.05,7.31,7.31,0,0,1,4.351-2.073.814.814,0,0,0-.176-1.619,8.929,8.929,0,0,0-4.636,1.925A8.956,8.956,0,1,0,138.9,91.077a8.969,8.969,0,0,0-.633,7.984.814.814,0,0,0,1.509-.611,7.337,7.337,0,0,1,1.1-7.357,8.913,8.913,0,0,0,4.685-1.934,8.961,8.961,0,0,0,2.912,3.951v1.776a.814.814,0,0,0,1.628,0v-.77a8.9,8.9,0,0,0,3.765.877c.022.235.034.471.034.708a7.328,7.328,0,0,1-12.15,5.517.814.814,0,1,0-1.072,1.226A8.956,8.956,0,0,0,155.522,95.7c0-.28-.013-.561-.039-.84a8.969,8.969,0,0,0,7.421-8.822Zm-22.96,3.474a7.328,7.328,0,1,1,7.328-7.328A7.336,7.336,0,0,1,139.944,89.512Z" transform="translate(-119.492 -65.278)"/>
          <path id="Path_990407" data-name="Path 990407" d="M311.617,159.211V157.04a.814.814,0,1,0-1.628,0v2.171a.814.814,0,0,0,1.628,0Z" transform="translate(-279.061 -139.266)"/>
          <path id="Path_990408" data-name="Path 990408" d="M361.617,159.211V157.04a.814.814,0,1,0-1.628,0v2.171a.814.814,0,0,0,1.628,0Z" transform="translate(-323.633 -139.266)"/>
          <path id="Path_990409" data-name="Path 990409" d="M317.984,211.611a3.871,3.871,0,0,0,2.746-1.136.814.814,0,1,0-1.151-1.151,2.258,2.258,0,0,1-3.189,0,.814.814,0,0,0-1.151,1.151A3.871,3.871,0,0,0,317.984,211.611Z" transform="translate(-283.528 -186.388)"/>
          <path id="Path_990410" data-name="Path 990410" d="M178.682,124.919a.814.814,0,0,0,0-1.151l-1.3-1.3a.814.814,0,0,0-1.151,1.151l.727.727-.727.727a.814.814,0,1,0,1.151,1.151Z" transform="translate(-159.608 -108.957)"/>
          <path id="Path_990411" data-name="Path 990411" d="M226.682,122.465a.814.814,0,0,0-1.151,0l-1.3,1.3a.814.814,0,0,0,0,1.151l1.3,1.3a.814.814,0,1,0,1.151-1.151l-.727-.727.727-.727A.814.814,0,0,0,226.682,122.465Z" transform="translate(-202.398 -108.957)"/>
          <path id="Path_990412" data-name="Path 990412" d="M186.237,174.739a.814.814,0,0,0,1.151,1.151,2.257,2.257,0,0,1,3.189,0,.814.814,0,0,0,1.151-1.151A3.888,3.888,0,0,0,186.237,174.739Z" transform="translate(-168.531 -154.757)"/>
        </g>
      </g>
    </g>
  </g>
</svg>
