<svg xmlns="http://www.w3.org/2000/svg" xmlns:xlink="http://www.w3.org/1999/xlink" width="108" height="108" viewBox="0 0 108 108">
  <defs>
    <filter id="Path_904820" x="0" y="0" width="108" height="108" filterUnits="userSpaceOnUse">
      <feOffset dy="3" input="SourceAlpha"/>
      <feGaussianBlur stdDeviation="3" result="blur"/>
      <feFlood flood-opacity="0.161"/>
      <feComposite operator="in" in2="blur"/>
      <feComposite in="SourceGraphic"/>
    </filter>
  </defs>
  <g id="Group_1163050" data-name="Group 1163050" transform="translate(-160 -5084)">
    <g id="Group_1160686" data-name="Group 1160686">
      <g id="Icono" transform="translate(169 5090)">
        <g transform="matrix(1, 0, 0, 1, -9, -6)" filter="url(#Path_904820)">
          <g id="Path_904820-2" data-name="Path 904820" transform="translate(9 6)" fill="#ebe9f0">
            <path d="M 45 88.5 C 39.12687683105469 88.5 33.43022537231445 87.35007476806641 28.06830024719238 85.08217620849609 C 22.88852500915527 82.89131164550781 18.23629951477051 79.75458526611328 14.2408504486084 75.75914764404297 C 10.24541282653809 71.76370239257812 7.108687400817871 67.11147308349609 4.917825222015381 61.93170166015625 C 2.649924993515015 56.56977462768555 1.5 50.87312316894531 1.5 45 C 1.5 39.12687683105469 2.649924993515015 33.43022537231445 4.917825222015381 28.06830024719238 C 7.108687400817871 22.88852500915527 10.24541282653809 18.23629951477051 14.2408504486084 14.2408504486084 C 18.23629951477051 10.24541282653809 22.88852500915527 7.108687400817871 28.06830024719238 4.917825222015381 C 33.43022537231445 2.649924993515015 39.12687683105469 1.5 45 1.5 C 50.87312316894531 1.5 56.56977462768555 2.649924993515015 61.93170166015625 4.917825222015381 C 67.11147308349609 7.108687400817871 71.76370239257812 10.24541282653809 75.75914764404297 14.2408504486084 C 79.75458526611328 18.23629951477051 82.89131164550781 22.88852500915527 85.08217620849609 28.06830024719238 C 87.35007476806641 33.43022537231445 88.5 39.12687683105469 88.5 45 C 88.5 50.87312316894531 87.35007476806641 56.56977462768555 85.08217620849609 61.93170166015625 C 82.89131164550781 67.11147308349609 79.75458526611328 71.76370239257812 75.75914764404297 75.75914764404297 C 71.76370239257812 79.75458526611328 67.11147308349609 82.89131164550781 61.93170166015625 85.08217620849609 C 56.56977462768555 87.35007476806641 50.87312316894531 88.5 45 88.5 Z" stroke="none"/>
            <path d="M 45 3 C 39.32871246337891 3 33.82865524291992 4.110054016113281 28.65262985229492 6.299339294433594 C 23.65165710449219 8.414573669433594 19.15968322753906 11.44334411621094 15.301513671875 15.301513671875 C 11.44334411621094 19.15968322753906 8.414573669433594 23.65165710449219 6.299339294433594 28.65262985229492 C 4.110054016113281 33.82865524291992 3 39.32871246337891 3 45 C 3 50.67128753662109 4.110054016113281 56.17134475708008 6.299339294433594 61.34737396240234 C 8.414573669433594 66.34834289550781 11.44334411621094 70.84031677246094 15.301513671875 74.698486328125 C 19.15968322753906 78.55665588378906 23.65165710449219 81.58542633056641 28.65262985229492 83.70066070556641 C 33.82865524291992 85.88994598388672 39.32871246337891 87 45 87 C 50.67128753662109 87 56.17134475708008 85.88994598388672 61.34737396240234 83.70066070556641 C 66.34834289550781 81.58542633056641 70.84031677246094 78.55665588378906 74.698486328125 74.698486328125 C 78.55665588378906 70.84031677246094 81.58542633056641 66.34834289550781 83.70066070556641 61.34737396240234 C 85.88994598388672 56.17134475708008 87 50.67128753662109 87 45 C 87 39.32871246337891 85.88994598388672 33.82865524291992 83.70066070556641 28.65262985229492 C 81.58542633056641 23.65165710449219 78.55665588378906 19.15968322753906 74.698486328125 15.301513671875 C 70.84031677246094 11.44334411621094 66.34834289550781 8.414573669433594 61.34737396240234 6.299339294433594 C 56.17134475708008 4.110054016113281 50.67128753662109 3 45 3 M 45 0 C 69.85281372070312 0 90 20.14718627929688 90 45 C 90 69.85281372070312 69.85281372070312 90 45 90 C 20.14718627929688 90 0 69.85281372070312 0 45 C 0 20.14718627929688 20.14718627929688 0 45 0 Z" stroke="none" fill="#251a42"/>
          </g>
        </g>
      </g>
      <g id="social_3_" data-name="social (3)" transform="translate(181.999 5072.223)">
        <g id="Group_1160685" data-name="Group 1160685" transform="translate(0.948 34.728)">
          <path id="Path_990777" data-name="Path 990777" d="M307.279,100.563,304.2,88.4l-9.175-.27L292.544,100.5Z" transform="translate(-256.387 -82.19)" fill="#686564"/>
          <path id="Path_990778" data-name="Path 990778" d="M113.951,137.474v1.5l-2.5.451a1.255,1.255,0,0,0-1.255,1.255l-.607,7.776.006-.074v6.37h-9.29l-.673-14.072a1.255,1.255,0,0,0-1.255-1.255l-2.427-.451v-1.5a5.02,5.02,0,0,1,5.02-5.02h7.958a5.021,5.021,0,0,1,5.02,5.02Z" transform="translate(-84.73 -120.89)" fill="#bbf39b"/>
          <path id="Path_990779" data-name="Path 990779" d="M289.676,183.447l1.344,5.376a.627.627,0,0,1-.609.78H273.605l.654-6.942-.994-13.092c0-2.773,3.242-5.132,6.014-5.132h7.205a5.02,5.02,0,0,1,5.02,5.02v2Z" transform="translate(-239.553 -148.815)" fill="#fece85"/>
          <path id="Path_990780" data-name="Path 990780" d="M390.546,211.9v11.2a1.926,1.926,0,0,1-3.853,0V215.74a3.842,3.842,0,0,1,3.843-3.842Z" transform="translate(-338.594 -190.258)" fill="#e88f77"/>
          <path id="Path_990781" data-name="Path 990781" d="M207.844,183.88v10.572a2.177,2.177,0,1,1-4.354,0v-1.165l-.006.074v-8.227a1.255,1.255,0,0,1,1.255-1.255Z" transform="translate(-178.622 -165.793)" fill="#ffb5a5"/>
          <path id="Path_990782" data-name="Path 990782" d="M100.307,185.135v11.854a2.177,2.177,0,1,1-4.355,0V183.88h3.1A1.255,1.255,0,0,1,100.307,185.135Z" transform="translate(-84.729 -165.793)" fill="#ffb5a5"/>
          <path id="Path_990783" data-name="Path 990783" d="M153.141,103h-4.678v3.8a2.339,2.339,0,0,0,4.678,0Z" transform="translate(-130.58 -95.173)" fill="#ff9d86"/>
          <path id="Path_990784" data-name="Path 990784" d="M195.474,264.4l-.191,7.945c0,.925-.936-.077-1.861-.077a1.675,1.675,0,0,1-1.675-1.675v-6.556l2.974-.389A.753.753,0,0,1,195.474,264.4Z" transform="translate(-168.374 -235.442)" fill="#ffdcd0"/>
          <path id="Path_990785" data-name="Path 990785" d="M292.16,262.832v6.556a1.676,1.676,0,0,1-1.675,1.675c-.463,0-1.247,1.133-1.551.829a1.515,1.515,0,0,1-.5-1.11v-7.761a.753.753,0,0,1,.753-.753Z" transform="translate(-252.796 -234.24)" fill="#ffdcd0"/>
          <path id="Path_990786" data-name="Path 990786" d="M218.167,308.34v14.69h8.876l.412-1.613V308.34l-4.644-.932Z" transform="translate(-191.443 -273.654)" fill="#b3dafe"/>
          <path id="Path_990787" data-name="Path 990787" d="M207.737,226.52v1h-2.6a.753.753,0,0,0-.753.753v8.056H195.1v-8.056a.753.753,0,0,0-.753-.753h-2.6v-1a5.02,5.02,0,0,1,5.02-5.02h5.95A5.02,5.02,0,0,1,207.737,226.52Z" transform="translate(-168.374 -198.642)" fill="#f7786b"/>
          <path id="Path_990788" data-name="Path 990788" d="M242.025,203.746h-4.337v2.2a2.168,2.168,0,1,0,4.336,0v-2.2Z" transform="translate(-208.488 -183.139)" fill="#ffc7b6"/>
          <path id="Path_990789" data-name="Path 990789" d="M231.444,424.884h6.22v5.654h-6.22Z" transform="translate(-203.036 -376.23)" fill="#f2fbff"/>
          <g id="Group_1160684" data-name="Group 1160684" transform="translate(0 10.455)">
            <g id="Group_1160682" data-name="Group 1160682" transform="translate(33.417 0)">
              <path id="Path_990790" data-name="Path 990790" d="M434.119,128l-1.419,9.742-.948,1.945.282,2.632-7.879,2.579,5.5-17.154c.282-.992.61-2.215,1.612-2.346,0,0,.221-.022.33-.022a8.791,8.791,0,0,0,.985-.1,2.557,2.557,0,0,1,1.536,2.72Z" transform="translate(-404.722 -125.082)" fill="#ffc7b6"/>
              <path id="Path_990791" data-name="Path 990791" d="M432.7,136.367l-.033.228-.633,4.349-4.671,1.528-3.208,1.05,1.372-4.95,3.6-13.009a2.557,2.557,0,0,1,2.128-1.837h.006a2.472,2.472,0,0,1,.323-.022,2.53,2.53,0,0,1,.993.2l-3.435,12.173a.508.508,0,0,0,.67.611A5.282,5.282,0,0,1,432.7,136.367Z" transform="translate(-404.722 -123.705)" fill="#ffb5a5"/>
              <path id="Path_990792" data-name="Path 990792" d="M319.284,246.95a2.861,2.861,0,0,1-1.493,2.514l-1.407.881-.841,1.778.467.911-.066.476a5.009,5.009,0,0,1-2.495,3.667l-9.168,5.181a.384.384,0,0,0-.193.331v4.2l-5.639,1.578-6.065-1.578v-8.45c0-1.894.114-3.5,1.3-5l.049-.062a11.787,11.787,0,0,1,2.556-2.5,8.138,8.138,0,0,1,2.736-.772l1.882-.189a13.767,13.767,0,0,0,4.18-1.1l10.6-4.67a2.362,2.362,0,0,1,3.35,1.64A2.854,2.854,0,0,1,319.284,246.95Z" transform="translate(-289.665 -228.671)" fill="#ffc7b6"/>
              <path id="Path_990793" data-name="Path 990793" d="M290.7,298.819a8.386,8.386,0,0,0-1.674,5.026V315.53l-3.044-.7v-8.45a8.4,8.4,0,0,1,1.828-5.226l.049-.062A8.151,8.151,0,0,1,290.7,298.819Z" transform="translate(-284.077 -276.609)" fill="#ffb5a5"/>
              <path id="Path_990794" data-name="Path 990794" d="M274.992,425.273l3.38-.39h10.169a1.211,1.211,0,0,1,1.211,1.211v3.233a1.211,1.211,0,0,1-1.211,1.211H278.372l-3.356-.217a1.211,1.211,0,0,1-1.211-1.211l-.024-2.626A1.211,1.211,0,0,1,274.992,425.273Z" transform="translate(-273.421 -386.684)" fill="#72706f"/>
              <path id="Path_990795" data-name="Path 990795" d="M275.891,424.884v5.654h-3.74a1.21,1.21,0,0,1-1.211-1.211v-3.233a1.21,1.21,0,0,1,1.211-1.21Z" transform="translate(-270.939 -386.685)" fill="#686564"/>
              <path id="Path_990796" data-name="Path 990796" d="M411.959,300.68a1.165,1.165,0,0,0,1.466.293l6.768-3.688.374-2.689-7.415,3.924-.788.377A1.165,1.165,0,0,0,411.959,300.68Z" transform="translate(-393.848 -272.922)" fill="#ffb5a5"/>
            </g>
            <g id="Group_1160683" data-name="Group 1160683">
              <path id="Path_990797" data-name="Path 990797" d="M14.952,141.266l-2.127-14.159c-.222-1.54.521-2.883,2.077-2.883.111,0,.182-.364.29-.35a2.556,2.556,0,0,1,2.129,1.836l3.6,13.009-.437,1.888L22.3,143.67Z" transform="translate(-12.112 -123.852)" fill="#ffc7b6"/>
              <path id="Path_990798" data-name="Path 990798" d="M18.995,143.522l-4.314-1.412-3.565-1.167-.633-4.349-1.452-9.97a2.554,2.554,0,0,1,2.859-2.9l1.561,12.538a.886.886,0,0,0,.529.705c1.063.458,3.583,1.579,3.644,1.6Z" transform="translate(-8.809 -123.704)" fill="#ffb5a5"/>
              <path id="Path_990799" data-name="Path 990799" d="M33.348,253.218l-.05-.063a8.158,8.158,0,0,0-5.577-3.047l-1.882-.189a13.77,13.77,0,0,1-4.18-1.1l-10.6-4.67a2.362,2.362,0,0,0-3.35,1.64,2.861,2.861,0,0,0,1.246,3.674l1.407.882.841,1.778-.466.911.066.475a5.005,5.005,0,0,0,2.495,3.667l9.167,5.181c.119.067.6.509.6.647l.1,3.89L28.3,268.47l6.877-1.578v-8.45a8.4,8.4,0,0,0-1.827-5.224Z" transform="translate(-7.465 -228.67)" fill="#ffc7b6"/>
              <path id="Path_990800" data-name="Path 990800" d="M128.981,390.474v3.185l-1.845,1.578-1.2-1.578v-4.2a.38.38,0,0,0-.193-.331l1.84-.026A1.377,1.377,0,0,1,128.981,390.474Z" transform="translate(-110.742 -355.436)" fill="#ffb5a5"/>
              <path id="Path_990801" data-name="Path 990801" d="M116.278,425.273l3.38-.39h10.169a1.211,1.211,0,0,1,1.211,1.211v3.233a1.211,1.211,0,0,1-1.211,1.211H119.658l-3.357-.217a1.211,1.211,0,0,1-1.211-1.211l-.024-2.626A1.211,1.211,0,0,1,116.278,425.273Z" transform="translate(-101.42 -386.684)" fill="#72706f"/>
              <path id="Path_990802" data-name="Path 990802" d="M117.176,424.884v5.654h-3.74a1.21,1.21,0,0,1-1.211-1.211v-3.233a1.21,1.21,0,0,1,1.211-1.21Z" transform="translate(-98.937 -386.684)" fill="#686564"/>
              <path id="Path_990803" data-name="Path 990803" d="M38.932,300.68a1.165,1.165,0,0,1-1.466.293L30.7,297.286l-.374-2.689,7.415,3.924.788.377a1.166,1.166,0,0,1,.405,1.782Z" transform="translate(-27.424 -272.922)" fill="#ffb5a5"/>
            </g>
          </g>
          <path id="Path_990804" data-name="Path 990804" d="M142.609,45.324c0,2.608-1.812,5.817-4.048,5.817s-4.048-3.209-4.048-5.817a4.048,4.048,0,1,1,8.1,0Z" transform="translate(-118.4 -41.276)" fill="#ffb5a5"/>
          <path id="Path_990805" data-name="Path 990805" d="M231.19,143.366c0,2.338-1.873,5.211-4.183,5.211s-4.183-2.873-4.183-5.211a4.183,4.183,0,1,1,8.365,0Z" transform="translate(-195.51 -126.722)" fill="#ffdcd0"/>
          <path id="Path_990806" data-name="Path 990806" d="M336.624,132.5v3.884a2.381,2.381,0,1,1-4.762,0v-3.933Z" transform="translate(-290.718 -120.89)" fill="#e08369"/>
          <path id="Path_990807" data-name="Path 990807" d="M322.847,86.853c-.032,2.738-2.133,6.16-4.722,6.16s-4.69-3.422-4.722-6.16c1.242.294,2.644-.634,3.6-1.341a1.9,1.9,0,0,1,2.235,0C320.2,86.22,321.605,87.147,322.847,86.853Z" transform="translate(-274.6 -79.585)" fill="#e88f77"/>
          <path id="Path_990808" data-name="Path 990808" d="M322.847,63.829v.062a4.483,4.483,0,0,1-3.6-.556,1.9,1.9,0,0,0-2.235,0,4.483,4.483,0,0,1-3.6.556v-.062a4.729,4.729,0,1,1,9.444,0Z" transform="translate(-274.6 -56.623)" fill="#72706f"/>
        </g>
        <path id="Path_990809" data-name="Path 990809" d="M64.606,62.066a3.79,3.79,0,0,0-1.619-1.774l.584-4.047a.951.951,0,1,0-1.883-.272l-.552,3.83a3.783,3.783,0,0,0-1.55.322l-3.993,1.76,4.1-14.435a1.6,1.6,0,0,1,3.131.667l-.5,3.462a.951.951,0,1,0,1.883.272l.5-3.462a3.506,3.506,0,0,0-6.844-1.458l-3.915,13.79V55.373a5.942,5.942,0,0,0-1.188-3.583S50,40.917,49.994,40.9a5.614,5.614,0,0,0-10.961-.154c-.019.044-2.085,7.791-2.1,7.853a5.1,5.1,0,0,0-7.782-1.447,6.056,6.056,0,0,0-3.988-1.5h-.717V43.593a8.474,8.474,0,0,0,1.631-4.924.951.951,0,0,0-.951-.936h-.016a.951.951,0,0,0-.936.967c.061,2.245-1.624,4.947-3.1,4.942s-3.1-2.546-3.1-4.865a2.878,2.878,0,0,1,3.1-3.1,3.561,3.561,0,0,1,1.434.282.951.951,0,1,0,.762-1.743,5.446,5.446,0,0,0-2.2-.441,4.783,4.783,0,0,0-5,5,8.279,8.279,0,0,0,1.7,4.906v1.97H17.06A6.067,6.067,0,0,0,11,51.53s0,8.972-.017,9.192L9.545,55.644a.951.951,0,1,0-1.83.52L9.34,61.886l-3.993-1.76A3.786,3.786,0,0,0,3.8,59.8L2.111,48.118a1.6,1.6,0,0,1,3.131-.667l1.282,4.518a.951.951,0,1,0,1.83-.52L7.072,46.932A3.506,3.506,0,0,0,.228,48.39l1.717,11.9A3.79,3.79,0,0,0,.326,62.066a3.832,3.832,0,0,0,1.66,4.9l.968.527L3.345,70.3a5.992,5.992,0,0,0,2.969,4.364l8.877,5.017v2.922a2.221,2.221,0,0,0-1.908,2.2v3.118a2.222,2.222,0,0,0,2.22,2.22H49.428a2.222,2.222,0,0,0,2.22-2.22V84.8a2.221,2.221,0,0,0-1.908-2.2V79.684l8.877-5.017A5.992,5.992,0,0,0,61.586,70.3l.392-2.814.968-.527a3.832,3.832,0,0,0,1.66-4.9ZM33.439,88.236H31.492a2.215,2.215,0,0,0,.025-.317V84.8a2.215,2.215,0,0,0-.025-.317h1.947a2.215,2.215,0,0,0-.025.317v3.118A2.214,2.214,0,0,0,33.439,88.236ZM25.268,67.2v-2.32h1.382a.4.4,0,0,1,.395.395v3.394A9.129,9.129,0,0,0,25.268,67.2ZM43.043,49.251a4,4,0,0,0,2.859.016V50.5a1.43,1.43,0,1,1-2.859,0V49.251ZM47.8,48a7.445,7.445,0,0,0,.8-.962,8.558,8.558,0,0,0,.685-1.162L50.316,49.9a6.268,6.268,0,0,0-2.177-.421H47.8Zm-3.312-.381c-1.68,0-3.2-2.088-3.643-4.135q.231.02.459.02a4.395,4.395,0,0,0,2.77-.911.644.644,0,0,1,.829,0,4.513,4.513,0,0,0,3.229.889C47.7,45.532,46.173,47.621,44.493,47.621Zm-4.116-.581a7.5,7.5,0,0,0,.764.921v1.522h-.334a6.077,6.077,0,0,0-2.261.434l1.1-4.126a8.567,8.567,0,0,0,.727,1.249ZM31.2,57.071a3.8,3.8,0,0,0,2.511-.005v.977a1.256,1.256,0,0,1-2.511,0v-.972Zm-1.9-1.232v1.019a6.02,6.02,0,0,0-2.513.6V54.517a.326.326,0,0,1,.326-.326h1A6.839,6.839,0,0,0,29.3,55.839Zm-4.027,7.077a4.162,4.162,0,0,1,4.11-4.157,3.157,3.157,0,0,0,6.151,0,4.2,4.2,0,0,1,4.11,4.223H38.257a2.3,2.3,0,0,0-2.3,2.3v5.9H28.947v-5.9a2.3,2.3,0,0,0-2.3-2.3H25.268v-.066ZM35.322,75.106v7.476H29.61V75.106a9.269,9.269,0,0,0-.227-2.026h6.165A9.277,9.277,0,0,0,35.322,75.106Zm2.541-9.828a.4.4,0,0,1,.395-.395h1.382v2.336a9.12,9.12,0,0,0-1.776,1.48Zm3.679-2.363a6.066,6.066,0,0,0-5.93-6.057V55.822a8.292,8.292,0,0,0,1.49-2.168,4.144,4.144,0,0,1,3.705-2.269h.456a3.331,3.331,0,0,0,6.422,0h.455a4.013,4.013,0,0,1,3.869,3.477l-1.827,1.246A4.985,4.985,0,0,0,48,60.231v4.9a12.806,12.806,0,0,1-2.487.5l-1.882.189a9.043,9.043,0,0,0-2.092.468V62.915Zm8.364-2.685a3.085,3.085,0,0,1,1.348-2.55l.789-.538V63.45l-2.137.942ZM44.493,38.325a3.849,3.849,0,0,1,3.7,3.239,2.7,2.7,0,0,1-2.084-.445,2.539,2.539,0,0,0-3.228,0,2.7,2.7,0,0,1-2.084.445,3.849,3.849,0,0,1,3.7-3.239ZM32.445,47.837a3.261,3.261,0,0,1,3.231,3.282c0,1.878-1.521,4.26-3.231,4.26S29.214,53,29.214,51.119A3.261,3.261,0,0,1,32.445,47.837Zm-9.906-2.631v1.459a1.43,1.43,0,1,1-2.859,0V45.237a3.335,3.335,0,0,0,2.859-.031ZM17.06,47.553H17.9a3.331,3.331,0,0,0,6.422,0h.839a4.156,4.156,0,0,1,2.786,1.073,5.192,5.192,0,0,0-.634,2.493,6.034,6.034,0,0,0,.12,1.169h-.323a2.231,2.231,0,0,0-2.229,2.229v4.4a6.034,6.034,0,0,0-1.514,4v3.37a9.048,9.048,0,0,0-2.067-.46l-1.882-.188a12.813,12.813,0,0,1-2.085-.387l0-10.734a2.231,2.231,0,0,0-2.228-2.229l-2.2,0v-.574A4.162,4.162,0,0,1,17.06,47.553Zm-4.171,6.637H15.1a.326.326,0,0,1,.326.326l0,10.053-2.54-1.119ZM29.295,88.236H15.5a.317.317,0,0,1-.317-.317V84.8a.317.317,0,0,1,.317-.317h5.011a.951.951,0,1,0,0-1.9h-3.42V79.129a.951.951,0,0,0-.483-.828L7.25,73.011a4.078,4.078,0,0,1-2.021-2.97l-.2-1.419,5.775,3.146a.951.951,0,1,0,.91-1.671L2.9,65.291a1.91,1.91,0,0,1,1.684-3.424l10.178,4.486a14.7,14.7,0,0,0,4.469,1.177l1.882.189a7.469,7.469,0,0,1,6.6,7.387v7.476H24.961a.951.951,0,1,0,0,1.9H29.3a.317.317,0,0,1,.317.317v3.118a.317.317,0,0,1-.317.317h0Zm20.451-.317a.317.317,0,0,1-.317.317H35.633a.317.317,0,0,1-.317-.317V84.8a.317.317,0,0,1,.317-.317H49.428a.317.317,0,0,1,.317.317Zm12.29-22.628L53.214,70.1a.951.951,0,1,0,.91,1.671L59.9,68.622l-.2,1.419a4.078,4.078,0,0,1-2.021,2.97L48.32,78.3a.951.951,0,0,0-.483.828v3.452H37.224V75.106a7.5,7.5,0,0,1,6.6-7.387L45.7,67.53a14.7,14.7,0,0,0,4.469-1.177l10.178-4.486a1.91,1.91,0,0,1,1.685,3.424Z" transform="translate(0 0)"/>
      </g>
    </g>
  </g>
</svg>
