<svg xmlns="http://www.w3.org/2000/svg" xmlns:xlink="http://www.w3.org/1999/xlink" width="108" height="108" viewBox="0 0 108 108">
  <defs>
    <filter id="Path_904820" x="0" y="0" width="108" height="108" filterUnits="userSpaceOnUse">
      <feOffset dy="3" input="SourceAlpha"/>
      <feGaussianBlur stdDeviation="3" result="blur"/>
      <feFlood flood-opacity="0.161"/>
      <feComposite operator="in" in2="blur"/>
      <feComposite in="SourceGraphic"/>
    </filter>
  </defs>
  <g id="Group_1163031" data-name="Group 1163031" transform="translate(-712 -5361.306)">
    <g id="Group_1160623" data-name="Group 1160623" transform="translate(0 127.306)">
      <g id="Group_1160533" data-name="Group 1160533" transform="translate(511 1856)">
        <g id="Icono" transform="translate(210 3384)">
          <g transform="matrix(1, 0, 0, 1, -9, -6)" filter="url(#Path_904820)">
            <g id="Path_904820-2" data-name="Path 904820" transform="translate(9 6)" fill="#edf3fc">
              <path d="M 45 88.5 C 39.12687683105469 88.5 33.43022537231445 87.35007476806641 28.06830024719238 85.08217620849609 C 22.88852500915527 82.89131164550781 18.23629951477051 79.75458526611328 14.2408504486084 75.75914764404297 C 10.24541282653809 71.76370239257812 7.108687400817871 67.11147308349609 4.917825222015381 61.93170166015625 C 2.649924993515015 56.56977462768555 1.5 50.87312316894531 1.5 45 C 1.5 39.12687683105469 2.649924993515015 33.43022537231445 4.917825222015381 28.06830024719238 C 7.108687400817871 22.88852500915527 10.24541282653809 18.23629951477051 14.2408504486084 14.2408504486084 C 18.23629951477051 10.24541282653809 22.88852500915527 7.108687400817871 28.06830024719238 4.917825222015381 C 33.43022537231445 2.649924993515015 39.12687683105469 1.5 45 1.5 C 50.87312316894531 1.5 56.56977462768555 2.649924993515015 61.93170166015625 4.917825222015381 C 67.11147308349609 7.108687400817871 71.76370239257812 10.24541282653809 75.75914764404297 14.2408504486084 C 79.75458526611328 18.23629951477051 82.89131164550781 22.88852500915527 85.08217620849609 28.06830024719238 C 87.35007476806641 33.43022537231445 88.5 39.12687683105469 88.5 45 C 88.5 50.87312316894531 87.35007476806641 56.56977462768555 85.08217620849609 61.93170166015625 C 82.89131164550781 67.11147308349609 79.75458526611328 71.76370239257812 75.75914764404297 75.75914764404297 C 71.76370239257812 79.75458526611328 67.11147308349609 82.89131164550781 61.93170166015625 85.08217620849609 C 56.56977462768555 87.35007476806641 50.87312316894531 88.5 45 88.5 Z" stroke="none"/>
              <path d="M 45 3 C 39.32871246337891 3 33.82865524291992 4.110054016113281 28.65262985229492 6.299339294433594 C 23.65165710449219 8.414573669433594 19.15968322753906 11.44334411621094 15.301513671875 15.301513671875 C 11.44334411621094 19.15968322753906 8.414573669433594 23.65165710449219 6.299339294433594 28.65262985229492 C 4.110054016113281 33.82865524291992 3 39.32871246337891 3 45 C 3 50.67128753662109 4.110054016113281 56.17134475708008 6.299339294433594 61.34737396240234 C 8.414573669433594 66.34834289550781 11.44334411621094 70.84031677246094 15.301513671875 74.698486328125 C 19.15968322753906 78.55665588378906 23.65165710449219 81.58542633056641 28.65262985229492 83.70066070556641 C 33.82865524291992 85.88994598388672 39.32871246337891 87 45 87 C 50.67128753662109 87 56.17134475708008 85.88994598388672 61.34737396240234 83.70066070556641 C 66.34834289550781 81.58542633056641 70.84031677246094 78.55665588378906 74.698486328125 74.698486328125 C 78.55665588378906 70.84031677246094 81.58542633056641 66.34834289550781 83.70066070556641 61.34737396240234 C 85.88994598388672 56.17134475708008 87 50.67128753662109 87 45 C 87 39.32871246337891 85.88994598388672 33.82865524291992 83.70066070556641 28.65262985229492 C 81.58542633056641 23.65165710449219 78.55665588378906 19.15968322753906 74.698486328125 15.301513671875 C 70.84031677246094 11.44334411621094 66.34834289550781 8.414573669433594 61.34737396240234 6.299339294433594 C 56.17134475708008 4.110054016113281 50.67128753662109 3 45 3 M 45 0 C 69.85281372070312 0 90 20.14718627929688 90 45 C 90 69.85281372070312 69.85281372070312 90 45 90 C 20.14718627929688 90 0 69.85281372070312 0 45 C 0 20.14718627929688 20.14718627929688 0 45 0 Z" stroke="none" fill="#2f4f7e"/>
            </g>
          </g>
        </g>
      </g>
      <g id="afectivo" transform="translate(740 5259)">
        <g id="Group_1160621" data-name="Group 1160621" transform="translate(1.812 1.812)">
          <g id="Group_1160611" data-name="Group 1160611" transform="translate(23.54 27.598)">
            <path id="Path_990309" data-name="Path 990309" d="M35.87,39.247V57.1H31V36h1.623A3.246,3.246,0,0,1,35.87,39.247Z" transform="translate(-31 -36)" fill="#ccd1d9"/>
          </g>
          <g id="Group_1160612" data-name="Group 1160612" transform="translate(31.657 30.845)">
            <path id="Path_990310" data-name="Path 990310" d="M45.87,40V57.858H41V43.247A3.246,3.246,0,0,1,44.247,40Z" transform="translate(-41 -40)" fill="#ccd1d9"/>
          </g>
          <g id="Group_1160613" data-name="Group 1160613" transform="translate(39.774 21.105)">
            <path id="Path_990311" data-name="Path 990311" d="M55.87,28V55.6H51V31.247A3.246,3.246,0,0,1,54.247,28Z" transform="translate(-51 -28)" fill="#ccd1d9"/>
          </g>
          <g id="Group_1160614" data-name="Group 1160614" transform="translate(0 43.833)">
            <path id="Path_990312" data-name="Path 990312" d="M2,56H8.494v4.87H2Z" transform="translate(-2 -56)" fill="#f0d0b4"/>
          </g>
          <g id="Group_1160615" data-name="Group 1160615" transform="translate(0 30.845)">
            <path id="Path_990313" data-name="Path 990313" d="M8.494,52.988H2V47.882A8.811,8.811,0,0,1,6.87,40l.576.349a14.7,14.7,0,0,0,7.541,2.086,11.083,11.083,0,0,1,3.247,7.841v7.581H8.494Z" transform="translate(-2 -40)" fill="#5cd6b3"/>
          </g>
          <g id="Group_1160616" data-name="Group 1160616" transform="translate(0 3.247)">
            <path id="Path_990314" data-name="Path 990314" d="M22.293,8.062a2,2,0,0,1-.13.722l-2.11,5.633a3.139,3.139,0,0,0-.195-.3H18.234l-3.02,1.51a4.062,4.062,0,0,0-2.192,2.963l-.471,2.833-.95-.95A2.3,2.3,0,0,0,7.682,22.1a3.279,3.279,0,0,0,1.469,2.735l.966.649-.106.406A7.57,7.57,0,0,1,6.87,30.352L5.279,28.5A13.632,13.632,0,0,1,15.629,6h4.6a2.051,2.051,0,0,1,2.062,2.062Z" transform="translate(-2 -6)" fill="#656d78"/>
          </g>
          <g id="Group_1160617" data-name="Group 1160617" transform="translate(4.87 11.364)">
            <path id="Path_990315" data-name="Path 990315" d="M21.182,16.3c2.662,3.969,3.052,9.44,3.052,9.44l-1.623.812V29.8a4.046,4.046,0,0,1-4.059,4.059,8.1,8.1,0,0,1-3.223-.674l.787,4.732A14.7,14.7,0,0,1,8.576,35.83L8,35.481V32.234a7.57,7.57,0,0,0,3.141-4.464l.106-.406-.966-.649a3.279,3.279,0,0,1-1.469-2.735,2.3,2.3,0,0,1,3.921-1.623l.95.95.471-2.833a4.062,4.062,0,0,1,2.192-2.963L19.364,16h1.623a3.138,3.138,0,0,1,.195.3Z" transform="translate(-8 -16)" fill="#f0d0b4"/>
          </g>
          <g id="Group_1160618" data-name="Group 1160618" transform="translate(35.716)">
            <path id="Path_990316" data-name="Path 990316" d="M58.987,5.442a3.446,3.446,0,0,1-1.007,2.435l-5.487,5.487L47.007,7.877a3.444,3.444,0,0,1,4.87-4.87l.617.617.617-.617a3.442,3.442,0,0,1,5.877,2.435Z" transform="translate(-46 -2)" fill="#ff826e"/>
          </g>
          <g id="Group_1160619" data-name="Group 1160619" transform="translate(31.657 22.728)">
            <path id="Path_990317" data-name="Path 990317" d="M44.669,30.341A2.433,2.433,0,1,1,41,32.435a2.378,2.378,0,0,1,.179-.9A2.411,2.411,0,0,1,43.435,30,2.346,2.346,0,0,1,44.669,30.341Z" transform="translate(-41 -30)" fill="#ff826e"/>
          </g>
          <g id="Group_1160620" data-name="Group 1160620" transform="translate(23.594 19.527)">
            <ellipse id="Ellipse_11639" data-name="Ellipse 11639" cx="2.382" cy="2.441" rx="2.382" ry="2.441" transform="translate(0 0)" fill="#ff826e"/>
          </g>
        </g>
        <g id="Group_1160622" data-name="Group 1160622" transform="translate(1 1)">
          <path id="Path_990318" data-name="Path 990318" d="M20.769,14.122l1.964-5.239a2.844,2.844,0,0,0,.184-1.01A2.877,2.877,0,0,0,20.044,5h-4.6A14.439,14.439,0,0,0,4.477,28.837L5.87,30.464v2.464A9.562,9.562,0,0,0,1,41.29V52.08H18.858v-8.4a11.81,11.81,0,0,0-3.3-8.206l-.527-3.163a8.794,8.794,0,0,0,2.2.283,4.875,4.875,0,0,0,4.87-4.87V24.983l1.66-.83-.039-.541a23.286,23.286,0,0,0-2.957-9.491ZM5.709,27.781A12.817,12.817,0,0,1,15.44,6.623h4.6a1.25,1.25,0,0,1,1.249,1.25,1.233,1.233,0,0,1-.08.439l-1.8,4.8H17.855l-3.193,1.6a4.885,4.885,0,0,0-2.626,3.555l-.214,1.286a3.108,3.108,0,0,0-5.139,2.352A4.1,4.1,0,0,0,8.51,25.323L9,25.65a6.735,6.735,0,0,1-2.2,3.407ZM2.623,47.209h4.87v3.247H2.623Zm14.611,3.247H9.117V43.642a10.447,10.447,0,0,0-1.76-5.812l-1.351.9a8.834,8.834,0,0,1,1.487,4.912v1.944H2.623v-4.3a7.941,7.941,0,0,1,4.053-6.937l.166.1a15.462,15.462,0,0,0,7.586,2.191,10.2,10.2,0,0,1,2.805,7.04ZM20.481,23.98v2.937H19.53a4.7,4.7,0,0,1-3.345-1.386l-1.148,1.148A6.308,6.308,0,0,0,19.53,28.54h.836a3.243,3.243,0,0,1-3.132,2.435,7.213,7.213,0,0,1-4.011-1.214l-.409-.273-.9,1.351.409.273a8.822,8.822,0,0,0,.956.55L13.836,35a13.861,13.861,0,0,1-6.157-1.939l-.185-.11V30.573a8.354,8.354,0,0,0,3.12-4.675l.242-.964-1.445-.964a2.474,2.474,0,0,1-1.106-2.064,1.484,1.484,0,0,1,2.533-1.05l2.067,2.066.731-4.387a3.259,3.259,0,0,1,1.751-2.37l2.851-1.426h1a21.138,21.138,0,0,1,2.81,8.454Z" transform="translate(-1 -1.753)"/>
          <path id="Path_990319" data-name="Path 990319" d="M19,23.435h1.623a.812.812,0,1,1,1.623,0H23.87a2.435,2.435,0,1,0-4.87,0Z" transform="translate(-4.389 -4.766)"/>
          <path id="Path_990320" data-name="Path 990320" d="M52.532,1a4.225,4.225,0,0,0-3.009,1.246l-.041.041-.041-.041a4.256,4.256,0,0,0-6.019,6.018l5.041,5.041L42.25,23.867a3.191,3.191,0,0,0-.886-.139,3.235,3.235,0,0,0-2.606,1.33l-2.3-.922a3.363,3.363,0,0,0,.041-.407,3.276,3.276,0,1,0-.64,1.917l2.305.922a3.207,3.207,0,0,0-.041.407,3.247,3.247,0,1,0,5.54-2.3l6.472-11,5.413-5.412A4.256,4.256,0,0,0,52.532,1ZM33.247,25.352a1.623,1.623,0,1,1,1.623-1.623A1.625,1.625,0,0,1,33.247,25.352ZM41.364,28.6a1.623,1.623,0,1,1,1.623-1.623A1.625,1.625,0,0,1,41.364,28.6ZM54.393,7.117l-4.912,4.911L44.57,7.117a2.632,2.632,0,1,1,3.722-3.723l1.189,1.188,1.19-1.188a2.608,2.608,0,0,1,1.86-.771,2.633,2.633,0,0,1,1.861,4.494Z" transform="translate(-6.46 -1)"/>
          <path id="Path_990321" data-name="Path 990321" d="M50,31.059V56.222h6.494V27H54.059A4.063,4.063,0,0,0,50,31.059ZM54.87,54.6H51.623V31.059a2.438,2.438,0,0,1,2.435-2.435h.812Z" transform="translate(-10.226 -5.895)"/>
          <path id="Path_990322" data-name="Path 990322" d="M40,43.059V58.481h6.494V39H44.059A4.063,4.063,0,0,0,40,43.059Zm4.87,13.8H41.623v-13.8a2.438,2.438,0,0,1,2.435-2.435h.812Z" transform="translate(-8.343 -8.155)"/>
          <path id="Path_990323" data-name="Path 990323" d="M32.435,35H30V57.728h6.494V39.059A4.063,4.063,0,0,0,32.435,35ZM34.87,56.1H31.623V36.623h.812a2.438,2.438,0,0,1,2.435,2.435Z" transform="translate(-6.46 -7.402)"/>
        </g>
      </g>
    </g>
  </g>
</svg>
