<svg xmlns="http://www.w3.org/2000/svg" xmlns:xlink="http://www.w3.org/1999/xlink" width="108" height="108" viewBox="0 0 108 108">
  <defs>
    <filter id="Path_904820" x="0" y="0" width="108" height="108" filterUnits="userSpaceOnUse">
      <feOffset dy="3" input="SourceAlpha"/>
      <feGaussianBlur stdDeviation="3" result="blur"/>
      <feFlood flood-opacity="0.161"/>
      <feComposite operator="in" in2="blur"/>
      <feComposite in="SourceGraphic"/>
    </filter>
  </defs>
  <g id="Group_1163015" data-name="Group 1163015" transform="translate(-605 -1148)">
    <g id="Group_1160599" data-name="Group 1160599">
      <g id="Group_1160503" data-name="Group 1160503" transform="translate(401 -5301)">
        <g id="Icono" transform="translate(213 6455)">
          <g transform="matrix(1, 0, 0, 1, -9, -6)" filter="url(#Path_904820)">
            <g id="Path_904820-2" data-name="Path 904820" transform="translate(9 6)" fill="#ebe9f0">
              <path d="M 45 88.5 C 39.12687683105469 88.5 33.43022537231445 87.35007476806641 28.06830024719238 85.08217620849609 C 22.88852500915527 82.89131164550781 18.23629951477051 79.75458526611328 14.2408504486084 75.75914764404297 C 10.24541282653809 71.76370239257812 7.108687400817871 67.11147308349609 4.917825222015381 61.93170166015625 C 2.649924993515015 56.56977462768555 1.5 50.87312316894531 1.5 45 C 1.5 39.12687683105469 2.649924993515015 33.43022537231445 4.917825222015381 28.06830024719238 C 7.108687400817871 22.88852500915527 10.24541282653809 18.23629951477051 14.2408504486084 14.2408504486084 C 18.23629951477051 10.24541282653809 22.88852500915527 7.108687400817871 28.06830024719238 4.917825222015381 C 33.43022537231445 2.649924993515015 39.12687683105469 1.5 45 1.5 C 50.87312316894531 1.5 56.56977462768555 2.649924993515015 61.93170166015625 4.917825222015381 C 67.11147308349609 7.108687400817871 71.76370239257812 10.24541282653809 75.75914764404297 14.2408504486084 C 79.75458526611328 18.23629951477051 82.89131164550781 22.88852500915527 85.08217620849609 28.06830024719238 C 87.35007476806641 33.43022537231445 88.5 39.12687683105469 88.5 45 C 88.5 50.87312316894531 87.35007476806641 56.56977462768555 85.08217620849609 61.93170166015625 C 82.89131164550781 67.11147308349609 79.75458526611328 71.76370239257812 75.75914764404297 75.75914764404297 C 71.76370239257812 79.75458526611328 67.11147308349609 82.89131164550781 61.93170166015625 85.08217620849609 C 56.56977462768555 87.35007476806641 50.87312316894531 88.5 45 88.5 Z" stroke="none"/>
              <path d="M 45 3 C 39.32871246337891 3 33.82865524291992 4.110054016113281 28.65262985229492 6.299339294433594 C 23.65165710449219 8.414573669433594 19.15968322753906 11.44334411621094 15.301513671875 15.301513671875 C 11.44334411621094 19.15968322753906 8.414573669433594 23.65165710449219 6.299339294433594 28.65262985229492 C 4.110054016113281 33.82865524291992 3 39.32871246337891 3 45 C 3 50.67128753662109 4.110054016113281 56.17134475708008 6.299339294433594 61.34737396240234 C 8.414573669433594 66.34834289550781 11.44334411621094 70.84031677246094 15.301513671875 74.698486328125 C 19.15968322753906 78.55665588378906 23.65165710449219 81.58542633056641 28.65262985229492 83.70066070556641 C 33.82865524291992 85.88994598388672 39.32871246337891 87 45 87 C 50.67128753662109 87 56.17134475708008 85.88994598388672 61.34737396240234 83.70066070556641 C 66.34834289550781 81.58542633056641 70.84031677246094 78.55665588378906 74.698486328125 74.698486328125 C 78.55665588378906 70.84031677246094 81.58542633056641 66.34834289550781 83.70066070556641 61.34737396240234 C 85.88994598388672 56.17134475708008 87 50.67128753662109 87 45 C 87 39.32871246337891 85.88994598388672 33.82865524291992 83.70066070556641 28.65262985229492 C 81.58542633056641 23.65165710449219 78.55665588378906 19.15968322753906 74.698486328125 15.301513671875 C 70.84031677246094 11.44334411621094 66.34834289550781 8.414573669433594 61.34737396240234 6.299339294433594 C 56.17134475708008 4.110054016113281 50.67128753662109 3 45 3 M 45 0 C 69.85281372070312 0 90 20.14718627929688 90 45 C 90 69.85281372070312 69.85281372070312 90 45 90 C 20.14718627929688 90 0 69.85281372070312 0 45 C 0 20.14718627929688 20.14718627929688 0 45 0 Z" stroke="none" fill="#453179"/>
            </g>
          </g>
        </g>
      </g>
      <g id="me-gusta" transform="translate(627.726 1169)">
        <path id="Path_979735" data-name="Path 979735" d="M150,13.123c-6.481-12.036-19.5-2.384-11.11,7.407A40.065,40.065,0,0,0,150,29.788a40.064,40.064,0,0,0,11.11-9.258C169.5,10.739,156.48,1.087,150,13.123Z" transform="translate(-118.418 -6.65)" fill="#ff66b2"/>
        <path id="Path_979736" data-name="Path 979736" d="M142.548,20.535C137.625,14.792,140.07,9.1,144.241,7.8c-5.964-1.784-11.608,5.437-5.352,12.737A40.066,40.066,0,0,0,150,29.794s.691-.346,1.829-1.077A43.361,43.361,0,0,1,142.548,20.535Z" transform="translate(-118.419 -6.655)" fill="#f39"/>
        <g id="Group_1160597" data-name="Group 1160597" transform="translate(35.284 24.064)">
          <path id="Path_979737" data-name="Path 979737" d="M292.228,208.712a2.777,2.777,0,0,0-4.166,2.405v9.258h2.778v-9.258A2.776,2.776,0,0,1,292.228,208.712Z" transform="translate(-288.062 -208.34)" fill="#ffe6c9"/>
          <path id="Path_979738" data-name="Path 979738" d="M340.322,224.743a2.777,2.777,0,0,0-4.166,2.405v7.407h2.778v-7.407A2.776,2.776,0,0,1,340.322,224.743Z" transform="translate(-330.601 -222.519)" fill="#ffe6c9"/>
          <path id="Path_979739" data-name="Path 979739" d="M388.416,240.775a2.777,2.777,0,0,0-4.166,2.405v5.555h2.778V243.18A2.775,2.775,0,0,1,388.416,240.775Z" transform="translate(-373.14 -236.699)" fill="#ffe6c9"/>
        </g>
        <path id="Path_979740" data-name="Path 979740" d="M174.333,141.145a2.778,2.778,0,0,0-2.778,2.778v-1.852a2.778,2.778,0,1,0-5.555,0v-1.852a2.778,2.778,0,0,0-5.555,0v-9.259a2.778,2.778,0,1,0-5.555,0v21.245l-6.076-8.1a2.778,2.778,0,0,0-4.512,3.24l10.588,15.04v9.258h22.22V143.922A2.777,2.777,0,0,0,174.333,141.145Z" transform="translate(-125.161 -113.377)" fill="#f1cbbd"/>
        <g id="Group_1160598" data-name="Group 1160598" transform="translate(18.619 14.806)">
          <path id="Path_979741" data-name="Path 979741" d="M157.669,284.692v-9.258l-10.588-15.04a2.778,2.778,0,0,1,.636-3.876c.062-.044.125-.085.189-.124a2.778,2.778,0,0,0-3.6,4.05l10.588,15.04v9.258h22.22v-.05H157.669Z" transform="translate(-143.781 -241.277)" fill="#edbca9"/>
          <path id="Path_979742" data-name="Path 979742" d="M242.746,152.206V130.912a2.776,2.776,0,0,1,1.346-2.38,2.778,2.778,0,0,0-4.123,2.43v21.245h2.778Z" transform="translate(-228.858 -128.184)" fill="#edbca9"/>
        </g>
        <path id="Path_979743" data-name="Path 979743" d="M425.7,340.667a.868.868,0,0,0-.868.868v18.054a.868.868,0,1,0,1.736,0V341.535A.868.868,0,0,0,425.7,340.667Z" transform="translate(-373.747 -301.318)"/>
        <path id="Path_979744" data-name="Path 979744" d="M160.873,26.9a3.624,3.624,0,0,0-2.09.662,3.641,3.641,0,0,0-5.555-1.852,3.642,3.642,0,0,0-5.374-1.972V21.151a.864.864,0,0,0,.25-.132,45.408,45.408,0,0,0,6.948-6.574c2.834-3.306,3.676-7,2.311-10.141a7.044,7.044,0,0,0-6.182-4.3c-2.976-.126-5.8,1.6-7.9,4.774-2.1-3.176-4.919-4.9-7.9-4.774A7.044,7.044,0,0,0,129.2,4.3c-1.365,3.139-.523,6.835,2.311,10.141a44.54,44.54,0,0,0,8.972,8.02c.025.017.051.03.077.043V36.226l-4.509-6.008a3.645,3.645,0,0,0-5.921,4.254l10.43,14.815v8.984a.868.868,0,1,0,1.736,0V49.012a.876.876,0,0,0-.158-.5L131.547,33.466a1.91,1.91,0,0,1,3.1-2.228l.011.015,6.076,8.1a.868.868,0,0,0,1.562-.521V17.584a1.91,1.91,0,0,1,3.819,0V33.273a.868.868,0,0,0,1.736,0V26.842a1.91,1.91,0,0,1,3.819,0v6.431a.868.868,0,1,0,1.736,0V28.694a1.91,1.91,0,0,1,3.819,0v4.579a.868.868,0,1,0,1.736,0V30.545a1.91,1.91,0,0,1,3.819,0V36.1a.868.868,0,1,0,1.736,0V30.545A3.65,3.65,0,0,0,160.873,26.9ZM144.208,13.938a3.65,3.65,0,0,0-3.645,3.645v2.827a43.272,43.272,0,0,1-7.731-7.1C130.447,10.534,129.7,7.5,130.794,5a5.321,5.321,0,0,1,4.663-3.255c2.665-.11,5.24,1.763,7.061,5.144a.876.876,0,0,0,1.528,0c1.82-3.381,4.4-5.256,7.061-5.144A5.321,5.321,0,0,1,155.77,5c1.089,2.506.347,5.538-2.037,8.319a43.878,43.878,0,0,1-5.88,5.7V17.584A3.65,3.65,0,0,0,144.208,13.938Z" transform="translate(-111.701 0)"/>
        <path id="Path_979745" data-name="Path 979745" d="M471.927,1.207a.868.868,0,0,0-1.3,1.154,10.239,10.239,0,0,1,0,13.6.868.868,0,1,0,1.3,1.153,11.975,11.975,0,0,0,0-15.912Z" transform="translate(-414.064 -0.81)"/>
        <path id="Path_979746" data-name="Path 979746" d="M449.211,23.958a.868.868,0,1,0-1.331,1.115,6.535,6.535,0,0,1,0,8.392.868.868,0,1,0,1.331,1.115,8.27,8.27,0,0,0,0-10.621Z" transform="translate(-393.957 -20.916)"/>
        <path id="Path_979747" data-name="Path 979747" d="M425.2,46.652a.868.868,0,0,0-.216,1.208,2.832,2.832,0,0,1,0,3.236.868.868,0,1,0,1.424.992,4.568,4.568,0,0,0,0-5.221A.868.868,0,0,0,425.2,46.652Z" transform="translate(-373.747 -41.126)"/>
        <path id="Path_979748" data-name="Path 979748" d="M4.01,9.162A10.226,10.226,0,0,1,6.6,2.36.868.868,0,0,0,5.3,1.207a11.975,11.975,0,0,0,0,15.912.868.868,0,1,0,1.3-1.153A10.226,10.226,0,0,1,4.01,9.162Z" transform="translate(0 -0.809)"/>
        <path id="Path_979749" data-name="Path 979749" d="M37.488,23.85a.868.868,0,0,0-1.223.108,8.271,8.271,0,0,0,0,10.622A.868.868,0,1,0,37.6,33.465a6.535,6.535,0,0,1,0-8.392A.868.868,0,0,0,37.488,23.85Z" transform="translate(-28.358 -20.916)"/>
        <path id="Path_979750" data-name="Path 979750" d="M68.427,46.652a.868.868,0,0,0-1.208.216,4.568,4.568,0,0,0,0,5.221.868.868,0,1,0,1.424-.992,2.832,2.832,0,0,1,0-3.236A.869.869,0,0,0,68.427,46.652Z" transform="translate(-56.718 -41.126)"/>
      </g>
    </g>
  </g>
</svg>
