<svg xmlns="http://www.w3.org/2000/svg" xmlns:xlink="http://www.w3.org/1999/xlink" width="108" height="108" viewBox="0 0 108 108">
  <defs>
    <filter id="Path_904820" x="0" y="0" width="108" height="108" filterUnits="userSpaceOnUse">
      <feOffset dy="3" input="SourceAlpha"/>
      <feGaussianBlur stdDeviation="3" result="blur"/>
      <feFlood flood-opacity="0.161"/>
      <feComposite operator="in" in2="blur"/>
      <feComposite in="SourceGraphic"/>
    </filter>
  </defs>
  <g id="Group_1163046" data-name="Group 1163046" transform="translate(-184 -3872)">
    <g id="Group_1160681" data-name="Group 1160681">
      <g id="Group_1160557" data-name="Group 1160557" transform="translate(193 3878)">
        <g id="Icono">
          <g transform="matrix(1, 0, 0, 1, -9, -6)" filter="url(#Path_904820)">
            <g id="Path_904820-2" data-name="Path 904820" transform="translate(9 6)" fill="#edf3fc">
              <path d="M 45 88.5 C 39.12687683105469 88.5 33.43022537231445 87.35007476806641 28.06830024719238 85.08217620849609 C 22.88852500915527 82.89131164550781 18.23629951477051 79.75458526611328 14.2408504486084 75.75914764404297 C 10.24541282653809 71.76370239257812 7.108687400817871 67.11147308349609 4.917825222015381 61.93170166015625 C 2.649924993515015 56.56977462768555 1.5 50.87312316894531 1.5 45 C 1.5 39.12687683105469 2.649924993515015 33.43022537231445 4.917825222015381 28.06830024719238 C 7.108687400817871 22.88852500915527 10.24541282653809 18.23629951477051 14.2408504486084 14.2408504486084 C 18.23629951477051 10.24541282653809 22.88852500915527 7.108687400817871 28.06830024719238 4.917825222015381 C 33.43022537231445 2.649924993515015 39.12687683105469 1.5 45 1.5 C 50.87312316894531 1.5 56.56977462768555 2.649924993515015 61.93170166015625 4.917825222015381 C 67.11147308349609 7.108687400817871 71.76370239257812 10.24541282653809 75.75914764404297 14.2408504486084 C 79.75458526611328 18.23629951477051 82.89131164550781 22.88852500915527 85.08217620849609 28.06830024719238 C 87.35007476806641 33.43022537231445 88.5 39.12687683105469 88.5 45 C 88.5 50.87312316894531 87.35007476806641 56.56977462768555 85.08217620849609 61.93170166015625 C 82.89131164550781 67.11147308349609 79.75458526611328 71.76370239257812 75.75914764404297 75.75914764404297 C 71.76370239257812 79.75458526611328 67.11147308349609 82.89131164550781 61.93170166015625 85.08217620849609 C 56.56977462768555 87.35007476806641 50.87312316894531 88.5 45 88.5 Z" stroke="none"/>
              <path d="M 45 3 C 39.32871246337891 3 33.82865524291992 4.110054016113281 28.65262985229492 6.299339294433594 C 23.65165710449219 8.414573669433594 19.15968322753906 11.44334411621094 15.301513671875 15.301513671875 C 11.44334411621094 19.15968322753906 8.414573669433594 23.65165710449219 6.299339294433594 28.65262985229492 C 4.110054016113281 33.82865524291992 3 39.32871246337891 3 45 C 3 50.67128753662109 4.110054016113281 56.17134475708008 6.299339294433594 61.34737396240234 C 8.414573669433594 66.34834289550781 11.44334411621094 70.84031677246094 15.301513671875 74.698486328125 C 19.15968322753906 78.55665588378906 23.65165710449219 81.58542633056641 28.65262985229492 83.70066070556641 C 33.82865524291992 85.88994598388672 39.32871246337891 87 45 87 C 50.67128753662109 87 56.17134475708008 85.88994598388672 61.34737396240234 83.70066070556641 C 66.34834289550781 81.58542633056641 70.84031677246094 78.55665588378906 74.698486328125 74.698486328125 C 78.55665588378906 70.84031677246094 81.58542633056641 66.34834289550781 83.70066070556641 61.34737396240234 C 85.88994598388672 56.17134475708008 87 50.67128753662109 87 45 C 87 39.32871246337891 85.88994598388672 33.82865524291992 83.70066070556641 28.65262985229492 C 81.58542633056641 23.65165710449219 78.55665588378906 19.15968322753906 74.698486328125 15.301513671875 C 70.84031677246094 11.44334411621094 66.34834289550781 8.414573669433594 61.34737396240234 6.299339294433594 C 56.17134475708008 4.110054016113281 50.67128753662109 3 45 3 M 45 0 C 69.85281372070312 0 90 20.14718627929688 90 45 C 90 69.85281372070312 69.85281372070312 90 45 90 C 20.14718627929688 90 0 69.85281372070312 0 45 C 0 20.14718627929688 20.14718627929688 0 45 0 Z" stroke="none" fill="#5692e8"/>
            </g>
          </g>
        </g>
      </g>
      <g id="jugando-a-las-cartas" transform="translate(187.229 3894)">
        <g id="Group_1160679" data-name="Group 1160679" transform="translate(28.588 0.864)">
          <path id="Path_990745" data-name="Path 990745" d="M184.092,301a6.753,6.753,0,0,1-2.687.555h-3.077a3.363,3.363,0,1,1-6.726,0h-3.077a6.753,6.753,0,0,1-2.687-.555,9.219,9.219,0,0,0-7.587,8.53h1.811a.576.576,0,0,1,.576.576v2.578a.576.576,0,0,1-.576.576H158.7v3.73h1.932v7.46H191.7V310.074a9.219,9.219,0,0,0-7.6-9.075Z" transform="translate(-147.332 -267.178)" fill="#fe7701"/>
          <path id="Path_990746" data-name="Path 990746" d="M168.524,301.555a6.753,6.753,0,0,1-2.687-.555,9.219,9.219,0,0,0-7.587,8.53h1.811a.576.576,0,0,1,.576.576v2.578a.576.576,0,0,1-.576.576H158.7v3.73h1.932v7.46h2.493V310.075a9.22,9.22,0,0,1,5.7-8.52Z" transform="translate(-147.332 -267.179)" fill="#f46700"/>
          <g id="Group_1160659" data-name="Group 1160659" transform="translate(1.932 53.541)">
            <g id="Group_1160657" data-name="Group 1160657">
              <path id="Path_990747" data-name="Path 990747" d="M80.267,472.131H91.64v3.73H80.267Z" transform="translate(-80.267 -472.131)" fill="#d8ecfe"/>
            </g>
            <g id="Group_1160658" data-name="Group 1160658">
              <path id="Path_990748" data-name="Path 990748" d="M80.267,472.131h3.887v3.73H80.267Z" transform="translate(-80.267 -472.131)" fill="#c4e2ff"/>
            </g>
          </g>
          <g id="Group_1160665" data-name="Group 1160665" transform="translate(12.884)">
            <path id="Path_990749" data-name="Path 990749" d="M201.814,7.5A13.218,13.218,0,0,0,188.6,20.718V35.1a6.778,6.778,0,0,0,6.777,6.778h3.077V37.621a9.837,9.837,0,0,0,6.726,0v4.255h3.077a6.777,6.777,0,0,0,6.777-6.778V20.718A13.218,13.218,0,0,0,201.814,7.5Z" transform="translate(-187.064 -7.5)" fill="#a44f3e"/>
            <g id="Group_1160660" data-name="Group 1160660" transform="translate(1.532 0)">
              <path id="Path_990750" data-name="Path 990750" d="M190.455,24.382h1.564V23.315a1.171,1.171,0,0,1,1.171-1.171h1.283V20.719A13.222,13.222,0,0,1,204.752,7.829,13.227,13.227,0,0,0,188.6,20.719v4.218a3.373,3.373,0,0,1,1.859-.556Z" transform="translate(-188.596 -7.501)" fill="#883f2e"/>
              <path id="Path_990751" data-name="Path 990751" d="M198.451,227.23a6.777,6.777,0,0,1-3.978-6.172v-.2a9.8,9.8,0,0,1-1.665-2.625h-2.353a3.374,3.374,0,0,1-1.859-.556v3.379a6.778,6.778,0,0,0,6.777,6.777h3.077v-.606Z" transform="translate(-188.596 -193.459)" fill="#883f2e"/>
            </g>
            <path id="Path_990752" data-name="Path 990752" d="M277.476,269.481a9.777,9.777,0,0,1-3.363-.593v4.255a3.363,3.363,0,1,0,6.726,0v-4.255A9.774,9.774,0,0,1,277.476,269.481Z" transform="translate(-262.727 -238.767)" fill="#fed2a4"/>
            <path id="Path_990753" data-name="Path 990753" d="M277.053,273.144v-3.673a9.758,9.758,0,0,1-2.94-.582v4.255a3.364,3.364,0,0,0,4.833,3.025A3.363,3.363,0,0,1,277.053,273.144Z" transform="translate(-262.727 -238.768)" fill="#ffbd86"/>
            <g id="Group_1160661" data-name="Group 1160661" transform="translate(0 16.881)">
              <path id="Path_990754" data-name="Path 990754" d="M180.257,158.028V153.99h-1.564a3.391,3.391,0,0,0-3.391,3.391v1.113a3.391,3.391,0,0,0,3.391,3.391h2.353A9.762,9.762,0,0,1,180.257,158.028Z" transform="translate(-175.303 -153.99)" fill="#fed2a4"/>
              <path id="Path_990755" data-name="Path 990755" d="M383.8,153.99h-1.564v4.038a9.762,9.762,0,0,1-.79,3.857H383.8a3.391,3.391,0,0,0,3.391-3.391v-1.113A3.391,3.391,0,0,0,383.8,153.99Z" transform="translate(-357.69 -153.99)" fill="#fed2a4"/>
            </g>
            <g id="Group_1160662" data-name="Group 1160662" transform="translate(4.954 11.722)">
              <path id="Path_990756" data-name="Path 990756" d="M233.577,109.576a2.914,2.914,0,0,1,4.244,1.919,3.194,3.194,0,0,1,.066.648v6.276a9.795,9.795,0,1,1-19.59,0v-5.1a1.171,1.171,0,0,1,1.171-1.171h8.463a3.514,3.514,0,0,0,1.668-.421Z" transform="translate(-218.297 -109.221)" fill="#ffe5c2"/>
            </g>
            <g id="Group_1160664" data-name="Group 1160664" transform="translate(4.955 14.643)">
              <g id="Group_1160663" data-name="Group 1160663">
                <path id="Path_990757" data-name="Path 990757" d="M222.066,140.848v-5.1a1.171,1.171,0,0,1,1.171-1.171h-3.768a1.171,1.171,0,0,0-1.171,1.171v5.1a9.795,9.795,0,0,0,11.679,9.612,9.8,9.8,0,0,1-7.911-9.612Z" transform="translate(-218.298 -134.572)" fill="#fed2a4"/>
              </g>
            </g>
          </g>
          <g id="Group_1160666" data-name="Group 1160666" transform="translate(19.705 41.77)">
            <path id="Path_990758" data-name="Path 990758" d="M241.17,370.015c0-.013.01-.025.014-.037l-6.257,1.677a.576.576,0,0,0-.407.706l1.418,5.294h2.942a1.841,1.841,0,0,1,.239.017Z" transform="translate(-234.5 -369.978)" fill="#ffd15b"/>
          </g>
          <g id="Group_1160667" data-name="Group 1160667" transform="translate(19.705 42.781)">
            <path id="Path_990759" data-name="Path 990759" d="M235.937,385.417h2.942c.047,0,.094,0,.14.007l-1.669-6.229a.574.574,0,0,1,.06-.441l-2.484.666a.576.576,0,0,0-.407.706Z" transform="translate(-234.499 -378.752)" fill="#fdb441"/>
          </g>
          <path id="Path_990760" data-name="Path 990760" d="M276.189,376.5v2.818l3.342.9V376.5a1.842,1.842,0,0,1,1.842-1.842h2.6l1.418-5.292a.576.576,0,0,0-.407-.706l-7.638-2.047a.576.576,0,0,0-.706.407l-2.051,7.654A1.842,1.842,0,0,1,276.189,376.5Z" transform="translate(-250.262 -325.215)" fill="#0593fc"/>
          <path id="Path_990761" data-name="Path 990761" d="M285.388,369.367a.576.576,0,0,0-.407-.706l-7.638-2.047a.576.576,0,0,0-.706.407l-2.051,7.654a1.842,1.842,0,0,1,1.6,1.825v2.791l2.349-8.767a.576.576,0,0,1,.706-.407l5.545,1.486Z" transform="translate(-250.262 -325.215)" fill="#0182fc"/>
          <g id="Group_1160668" data-name="Group 1160668" transform="translate(19.324 49.445)">
            <path id="Path_990762" data-name="Path 990762" d="M235.953,444.406h-2.919a1.843,1.843,0,0,1-1.842-1.842v-4.142a1.842,1.842,0,0,1,1.842-1.842h2.919a1.842,1.842,0,0,1,1.842,1.842v4.142A1.843,1.843,0,0,1,235.953,444.406Z" transform="translate(-231.192 -436.579)" fill="#ffe5c2"/>
          </g>
          <g id="Group_1160669" data-name="Group 1160669" transform="translate(19.324 49.445)">
            <path id="Path_990763" data-name="Path 990763" d="M234.129,442.563v-4.142a1.842,1.842,0,0,1,1.833-1.842h-2.929a1.842,1.842,0,0,0-1.842,1.842v4.142a1.842,1.842,0,0,0,1.842,1.842h2.929A1.842,1.842,0,0,1,234.129,442.563Z" transform="translate(-231.191 -436.579)" fill="#fed2a4"/>
          </g>
          <g id="Group_1160670" data-name="Group 1160670" transform="translate(29.27 49.445)">
            <path id="Path_990764" data-name="Path 990764" d="M322.261,444.406h-2.919a1.842,1.842,0,0,1-1.842-1.842v-4.142a1.842,1.842,0,0,1,1.842-1.842h2.919a1.842,1.842,0,0,1,1.842,1.842v4.142A1.842,1.842,0,0,1,322.261,444.406Z" transform="translate(-317.5 -436.579)" fill="#ffe5c2"/>
          </g>
          <g id="Group_1160671" data-name="Group 1160671" transform="translate(29.27 49.445)">
            <path id="Path_990765" data-name="Path 990765" d="M320.4,442.563v-4.142a1.842,1.842,0,0,1,1.842-1.842h-2.9a1.842,1.842,0,0,0-1.842,1.842v4.142a1.842,1.842,0,0,0,1.842,1.842h2.9A1.843,1.843,0,0,1,320.4,442.563Z" transform="translate(-317.5 -436.579)" fill="#fed2a4"/>
          </g>
          <g id="Group_1160678" data-name="Group 1160678" transform="translate(0 42.352)">
            <g id="Group_1160672" data-name="Group 1160672" transform="translate(1.932 7.46)">
              <path id="Path_990766" data-name="Path 990766" d="M80.267,439.762H91.64v3.73H80.267Z" transform="translate(-80.267 -439.762)" fill="#ffd15b"/>
            </g>
            <g id="Group_1160673" data-name="Group 1160673" transform="translate(1.932 7.46)">
              <path id="Path_990767" data-name="Path 990767" d="M80.267,439.762h3.887v3.73H80.267Z" transform="translate(-80.267 -439.762)" fill="#fdb441"/>
            </g>
            <g id="Group_1160674" data-name="Group 1160674" transform="translate(0 3.73)">
              <path id="Path_990768" data-name="Path 990768" d="M74.873,411.123h-10.8a.576.576,0,0,1-.576-.576v-2.578a.576.576,0,0,1,.576-.576h10.8Z" transform="translate(-63.5 -407.393)" fill="#97d729"/>
            </g>
            <g id="Group_1160675" data-name="Group 1160675" transform="translate(0 3.73)">
              <path id="Path_990769" data-name="Path 990769" d="M67.4,410.547v-2.578a.576.576,0,0,1,.576-.576h-3.9a.576.576,0,0,0-.576.576v2.578a.576.576,0,0,0,.576.576h3.9A.576.576,0,0,1,67.4,410.547Z" transform="translate(-63.5 -407.393)" fill="#8bc727"/>
            </g>
            <g id="Group_1160676" data-name="Group 1160676" transform="translate(1.932 0)">
              <path id="Path_990770" data-name="Path 990770" d="M91.064,378.755h-10.8V375.6a.576.576,0,0,1,.576-.576H91.064a.576.576,0,0,1,.576.576v2.578A.576.576,0,0,1,91.064,378.755Z" transform="translate(-80.267 -375.025)" fill="#0593fc"/>
            </g>
            <g id="Group_1160677" data-name="Group 1160677" transform="translate(1.932)">
              <path id="Path_990771" data-name="Path 990771" d="M84.73,375.025H80.843a.576.576,0,0,0-.576.576v3.154h3.887V375.6A.576.576,0,0,1,84.73,375.025Z" transform="translate(-80.267 -375.025)" fill="#0182fc"/>
            </g>
          </g>
        </g>
        <g id="Group_1160680" data-name="Group 1160680" transform="translate(24.041 0)">
          <path id="Path_990772" data-name="Path 990772" d="M76.636,57.271H73.818V51.625a.864.864,0,0,0-1.729,0v5.646H65.142a2.692,2.692,0,0,0,.184-.978V53h1.626a.864.864,0,0,0,.864-.864V45.057a.864.864,0,1,0-1.729,0V51.27h-.91a2.718,2.718,0,0,0-1.785-1.712l1.157-4.318a1.44,1.44,0,0,0-1.018-1.764L57.6,41.888a1.436,1.436,0,0,0-1.469-.459l-.121.032-.121-.032a1.435,1.435,0,0,0-1.469.459L48.5,43.476a1.44,1.44,0,0,0-1.018,1.764l1.188,4.434a2.72,2.72,0,0,0-1.47,1.6h-.841V45.057a.864.864,0,0,0-1.729,0v7.078A.864.864,0,0,0,45.49,53h1.558v3.295a2.692,2.692,0,0,0,.184.978H42.758v-6.6a.864.864,0,0,0-.864-.864H40.826v-2h.492a1.442,1.442,0,0,0,1.44-1.44V43.792a1.442,1.442,0,0,0-1.44-1.44h-.842a8.375,8.375,0,0,1,6.53-6.771,7.6,7.6,0,0,0,2.775.524h2.3a4.228,4.228,0,0,0,8.276,0h2.3a7.6,7.6,0,0,0,2.775-.524,8.369,8.369,0,0,1,6.653,8.18v3.831a.864.864,0,0,0,1.729,0V43.76A10.1,10.1,0,0,0,67.469,34.4,7.629,7.629,0,0,0,70.3,28.463V25.515a4.247,4.247,0,0,0,1.532-3.266V21.136A4.247,4.247,0,0,0,70.3,17.869V14.082a13.979,13.979,0,0,0-2.671-8.251.864.864,0,1,0-1.4,1.014,12.261,12.261,0,0,1,2.342,7.238V17a4.245,4.245,0,0,0-.995-.119h-.7V15.508a4.066,4.066,0,0,0-.084-.823,3.675,3.675,0,0,0-2.072-2.6,3.84,3.84,0,0,0-3.429.1l-3.977,2.146a2.657,2.657,0,0,1-1.258.318H47.6a2.038,2.038,0,0,0-2.036,2.036v.2h-.7a4.252,4.252,0,0,0-.995.119V14.082A12.354,12.354,0,0,1,63.583,4.161a.864.864,0,1,0,1.031-1.387A14.082,14.082,0,0,0,42.139,14.082v3.787a4.248,4.248,0,0,0-1.532,3.266v1.113a4.248,4.248,0,0,0,1.532,3.266v2.948A7.629,7.629,0,0,0,44.973,34.4a10.109,10.109,0,0,0-6.247,7.955H31.1a1.442,1.442,0,0,0-1.44,1.44v2.29h-.492a1.442,1.442,0,0,0-1.44,1.44V50.1a1.442,1.442,0,0,0,1.44,1.44h.492v5.731H24.905a.864.864,0,1,0,0,1.729H76.636a.864.864,0,0,0,0-1.729ZM58.72,35.24a2.5,2.5,0,0,1-5,0v-3.1a10.643,10.643,0,0,0,5,0Zm8.16-13.457V18.609h.7a2.529,2.529,0,0,1,2.527,2.527v1.113a2.529,2.529,0,0,1-2.527,2.527H66.452a10.626,10.626,0,0,0,.428-2.992Zm.7,4.721a4.252,4.252,0,0,0,.995-.119v2.078a5.92,5.92,0,0,1-5.913,5.913H60.448v-2.81A10.726,10.726,0,0,0,65.776,26.5h1.8ZM47.29,16.679a.307.307,0,0,1,.307-.307H56.06a4.392,4.392,0,0,0,2.079-.525L62.116,13.7a2.075,2.075,0,0,1,1.878-.053A1.961,1.961,0,0,1,65.1,15.035a2.335,2.335,0,0,1,.048.473v6.276a8.931,8.931,0,1,1-17.861,0Zm-4.954,5.57V21.136a2.529,2.529,0,0,1,2.527-2.527h.7v3.174a10.627,10.627,0,0,0,.428,2.992H44.862A2.529,2.529,0,0,1,42.336,22.249Zm1.532,6.214V26.385a4.245,4.245,0,0,0,.995.119h1.8a10.726,10.726,0,0,0,5.327,5.062v2.81H49.781a5.92,5.92,0,0,1-5.913-5.913ZM31.384,44.08h9.645v2H31.384Zm-1.932,5.732v-2H39.1v2H29.452Zm11.577,3.73H39.247a.864.864,0,0,0,0,1.729h1.782v2H31.384v-2h3.83a.864.864,0,0,0,0-1.729h-3.83v-2h9.645v2Zm12.622,2.752a.979.979,0,0,1-.978.978H49.754a.979.979,0,0,1-.978-.978V52.151a.979.979,0,0,1,.978-.978h2.919a.979.979,0,0,1,.978.978Zm-1.4-6.849h-1.86l-1.172-4.373,4.529-1.214ZM55.2,57.271a2.684,2.684,0,0,0,.18-.835l.638-.171.991.265a2.692,2.692,0,0,0,.173.741Zm1.8-5.12v2.587l-1.613-.432V52.151a2.709,2.709,0,0,0-1.423-2.383l1.767-6.6,7.081,1.9-1.172,4.373H59.7A2.71,2.71,0,0,0,56.993,52.151Zm6.6,4.142a.979.979,0,0,1-.978.978H59.7a.979.979,0,0,1-.978-.978V52.151a.979.979,0,0,1,.978-.978h2.919a.979.979,0,0,1,.978.978Z" transform="translate(-24.041 0)"/>
          <path id="Path_990773" data-name="Path 990773" d="M276.23,225a4.6,4.6,0,0,0,3.272-1.355.864.864,0,1,0-1.222-1.222,2.9,2.9,0,0,1-4.1,0,.864.864,0,0,0-1.222,1.222A4.6,4.6,0,0,0,276.23,225Z" transform="translate(-244.05 -196.564)"/>
          <path id="Path_990774" data-name="Path 990774" d="M256.962,153.157a.864.864,0,0,0,.864-.864v-2.235a.864.864,0,0,0-1.729,0v2.235A.864.864,0,0,0,256.962,153.157Z" transform="translate(-229.357 -132.002)"/>
          <path id="Path_990775" data-name="Path 990775" d="M336.361,153.157a.864.864,0,0,0,.864-.864v-2.235a.864.864,0,1,0-1.729,0v2.235A.864.864,0,0,0,336.361,153.157Z" transform="translate(-299.607 -132.002)"/>
          <path id="Path_990776" data-name="Path 990776" d="M286.479,172.836a.864.864,0,0,0,1.292-1.148l-.758-.852.787-.983a.864.864,0,1,0-1.35-1.08l-1.242,1.553a.864.864,0,0,0,.029,1.114Z" transform="translate(-254.945 -149.037)"/>
        </g>
      </g>
    </g>
  </g>
</svg>
