<svg xmlns="http://www.w3.org/2000/svg" xmlns:xlink="http://www.w3.org/1999/xlink" width="108" height="108" viewBox="0 0 108 108">
  <defs>
    <filter id="Path_904820" x="0" y="0" width="108" height="108" filterUnits="userSpaceOnUse">
      <feOffset dy="3" input="SourceAlpha"/>
      <feGaussianBlur stdDeviation="3" result="blur"/>
      <feFlood flood-opacity="0.161"/>
      <feComposite operator="in" in2="blur"/>
      <feComposite in="SourceGraphic"/>
    </filter>
  </defs>
  <g id="Group_1163019" data-name="Group 1163019" transform="translate(-160 -1946)">
    <g id="Group_1163016" data-name="Group 1163016">
      <g id="Group_1160608" data-name="Group 1160608">
        <g id="Group_1160531" data-name="Group 1160531" transform="translate(169 1952)">
          <g id="Icono">
            <g transform="matrix(1, 0, 0, 1, -9, -6)" filter="url(#Path_904820)">
              <g id="Path_904820-2" data-name="Path 904820" transform="translate(9 6)" fill="#ecf4fa">
                <path d="M 45 88.5 C 39.12687683105469 88.5 33.43022537231445 87.35007476806641 28.06830024719238 85.08217620849609 C 22.88852500915527 82.89131164550781 18.23629951477051 79.75458526611328 14.2408504486084 75.75914764404297 C 10.24541282653809 71.76370239257812 7.108687400817871 67.11147308349609 4.917825222015381 61.93170166015625 C 2.649924993515015 56.56977462768555 1.5 50.87312316894531 1.5 45 C 1.5 39.12687683105469 2.649924993515015 33.43022537231445 4.917825222015381 28.06830024719238 C 7.108687400817871 22.88852500915527 10.24541282653809 18.23629951477051 14.2408504486084 14.2408504486084 C 18.23629951477051 10.24541282653809 22.88852500915527 7.108687400817871 28.06830024719238 4.917825222015381 C 33.43022537231445 2.649924993515015 39.12687683105469 1.5 45 1.5 C 50.87312316894531 1.5 56.56977462768555 2.649924993515015 61.93170166015625 4.917825222015381 C 67.11147308349609 7.108687400817871 71.76370239257812 10.24541282653809 75.75914764404297 14.2408504486084 C 79.75458526611328 18.23629951477051 82.89131164550781 22.88852500915527 85.08217620849609 28.06830024719238 C 87.35007476806641 33.43022537231445 88.5 39.12687683105469 88.5 45 C 88.5 50.87312316894531 87.35007476806641 56.56977462768555 85.08217620849609 61.93170166015625 C 82.89131164550781 67.11147308349609 79.75458526611328 71.76370239257812 75.75914764404297 75.75914764404297 C 71.76370239257812 79.75458526611328 67.11147308349609 82.89131164550781 61.93170166015625 85.08217620849609 C 56.56977462768555 87.35007476806641 50.87312316894531 88.5 45 88.5 Z" stroke="none"/>
                <path d="M 45 3 C 39.32871246337891 3 33.82865524291992 4.110054016113281 28.65262985229492 6.299339294433594 C 23.65165710449219 8.414573669433594 19.15968322753906 11.44334411621094 15.301513671875 15.301513671875 C 11.44334411621094 19.15968322753906 8.414573669433594 23.65165710449219 6.299339294433594 28.65262985229492 C 4.110054016113281 33.82865524291992 3 39.32871246337891 3 45 C 3 50.67128753662109 4.110054016113281 56.17134475708008 6.299339294433594 61.34737396240234 C 8.414573669433594 66.34834289550781 11.44334411621094 70.84031677246094 15.301513671875 74.698486328125 C 19.15968322753906 78.55665588378906 23.65165710449219 81.58542633056641 28.65262985229492 83.70066070556641 C 33.82865524291992 85.88994598388672 39.32871246337891 87 45 87 C 50.67128753662109 87 56.17134475708008 85.88994598388672 61.34737396240234 83.70066070556641 C 66.34834289550781 81.58542633056641 70.84031677246094 78.55665588378906 74.698486328125 74.698486328125 C 78.55665588378906 70.84031677246094 81.58542633056641 66.34834289550781 83.70066070556641 61.34737396240234 C 85.88994598388672 56.17134475708008 87 50.67128753662109 87 45 C 87 39.32871246337891 85.88994598388672 33.82865524291992 83.70066070556641 28.65262985229492 C 81.58542633056641 23.65165710449219 78.55665588378906 19.15968322753906 74.698486328125 15.301513671875 C 70.84031677246094 11.44334411621094 66.34834289550781 8.414573669433594 61.34737396240234 6.299339294433594 C 56.17134475708008 4.110054016113281 50.67128753662109 3 45 3 M 45 0 C 69.85281372070312 0 90 20.14718627929688 90 45 C 90 69.85281372070312 69.85281372070312 90 45 90 C 20.14718627929688 90 0 69.85281372070312 0 45 C 0 20.14718627929688 20.14718627929688 0 45 0 Z" stroke="none" fill="#2a5673"/>
              </g>
            </g>
          </g>
        </g>
        <g id="nino_1_" data-name="nino (1)" transform="translate(170.674 1966)">
          <g id="Group_1160606" data-name="Group 1160606" transform="translate(15.23 0.902)">
            <g id="Group_1160605" data-name="Group 1160605" transform="translate(0)">
              <path id="Path_990288" data-name="Path 990288" d="M350.814,107.681l2.275-4.9,11.046,5.129a.448.448,0,0,1,.021.8l-1.9,1.005a.448.448,0,0,0-.228.491l.457,2.1a.448.448,0,0,1-.627.5Z" transform="translate(-311.249 -91.322)" fill="#e27f86"/>
              <path id="Path_990289" data-name="Path 990289" d="M152.817,56.453H120.141c.636-6.374,2.866-12.995,5.856-15.8,4.154-3.907,16.815-3.907,20.969,0C149.954,43.46,152.183,50.079,152.817,56.453Z" transform="translate(-108.319 -34.085)" fill="#784132"/>
              <g id="Group_1160602" data-name="Group 1160602" transform="translate(10.445 8.313)">
                <ellipse id="Ellipse_11637" data-name="Ellipse 11637" cx="4.351" cy="4.036" rx="4.351" ry="4.036" transform="translate(0 10.345)" fill="#e0aea2"/>
                <ellipse id="Ellipse_11638" data-name="Ellipse 11638" cx="4.351" cy="4.036" rx="4.351" ry="4.036" transform="translate(26.731 10.345)" fill="#e0aea2"/>
                <path id="Path_990290" data-name="Path 990290" d="M158.433,78.8c-4.056,3.814-6.234,17.077-2.734,21.406,3.724,4.607,17.326,4.606,21.045,0,3.5-4.332,1.322-17.593-2.734-21.406C170.924,75.9,161.518,75.9,158.433,78.8Z" transform="translate(-148.505 -76.624)" fill="#e0aea2"/>
              </g>
              <path id="Path_990291" data-name="Path 990291" d="M254.763,78.8c-1.747-1.643-5.518-2.355-9.022-2.138,2.686.166,5.216.879,6.555,2.138,4.056,3.814,6.231,17.075,2.734,21.406-1.683,2.084-5.388,3.225-9.287,3.424,4.719.24,9.718-.9,11.754-3.424C260.994,95.878,258.819,82.617,254.763,78.8Z" transform="translate(-218.813 -68.313)" fill="#d79b8c"/>
              <path id="Path_990292" data-name="Path 990292" d="M147.711,10.459c4.721-3.946,16.516-3.946,21.237,0,1.454,1.216,2.735,7.257,2.735,7.257h-26.7S146.257,11.675,147.711,10.459Z" transform="translate(-130.169 -7.5)" fill="#9ec8fc"/>
              <path id="Path_990293" data-name="Path 990293" d="M304.361,14.638c.9,1.115,1.728,5.421,2.118,7.737h3.59s-1.281-6.041-2.735-7.257a12.576,12.576,0,0,0-5.051-2.323A8.791,8.791,0,0,1,304.361,14.638Z" transform="translate(-268.555 -12.158)" fill="#62a4fb"/>
              <path id="Path_990294" data-name="Path 990294" d="M150.957,64.967c-5.783-2.954-23.132-2.953-28.914,0-1.114.569-2.67,4.688-1.411,4.688h31.735C153.627,69.654,152.071,65.536,150.957,64.967Z" transform="translate(-108.338 -56.107)" fill="#5392f9"/>
              <path id="Path_990295" data-name="Path 990295" d="M348.76,72.166a16.024,16.024,0,0,0-3.752-1.231c.216.119.421.242.612.37.891.594,2.064,4.147,1.855,5.549h2.7C351.431,76.854,349.875,72.735,348.76,72.166Z" transform="translate(-306.142 -63.306)" fill="#4981f8"/>
              <path id="Path_990296" data-name="Path 990296" d="M232,227.564a3.8,3.8,0,1,1-7.6,0c0-1.949,1.7-1.037,3.8-1.037S232,225.615,232,227.564Z" transform="translate(-200.037 -199.998)" fill="#e175a5"/>
              <g id="Group_1160603" data-name="Group 1160603" transform="translate(3.99 26.805)">
                <path id="Path_990297" data-name="Path 990297" d="M256,238.266v25.08l23.634-7.912a.789.789,0,0,0,.538-.748V230.9a.526.526,0,0,0-.693-.5Z" transform="translate(-231.828 -230.378)" fill="#514898"/>
                <path id="Path_990298" data-name="Path 990298" d="M317.688,297.507v4.74a.394.394,0,0,0,.52.374l8.545-2.861a.4.4,0,0,0,.269-.374v-4.74a.394.394,0,0,0-.52-.374l-8.545,2.861A.394.394,0,0,0,317.688,297.507Z" transform="translate(-286.097 -286.57)" fill="#bfc5eb"/>
                <path id="Path_990299" data-name="Path 990299" d="M79.185,238.266v25.08l-23.634-7.912a.789.789,0,0,1-.538-.748V230.9a.526.526,0,0,1,.693-.5Z" transform="translate(-55.013 -230.378)" fill="#6a61b2"/>
              </g>
              <g id="Group_1160604" data-name="Group 1160604" transform="translate(0 36.021)">
                <path id="Path_990300" data-name="Path 990300" d="M442.5,316.236c-.463.463-1.78.458-2.971.341a2.464,2.464,0,0,1-2.216-2.454v-4.59a2.464,2.464,0,0,1,2.216-2.454c1.191-.118,2.508-.122,2.971.341C444.057,308.977,444.057,314.677,442.5,316.236Z" transform="translate(-387.344 -307.011)" fill="#e0aea2"/>
                <path id="Path_990301" data-name="Path 990301" d="M23.009,316.236c.463.463,1.78.458,2.971.341a2.464,2.464,0,0,0,2.216-2.454v-4.59a2.464,2.464,0,0,0-2.216-2.454c-1.191-.118-2.508-.122-2.971.341C21.451,308.977,21.451,314.677,23.009,316.236Z" transform="translate(-21.84 -307.011)" fill="#e0aea2"/>
              </g>
            </g>
          </g>
          <g id="Group_1160607" data-name="Group 1160607" transform="translate(14.326 0)">
            <path id="Path_990302" data-name="Path 990302" d="M208.884,181.025v-.8a.9.9,0,1,0-1.8,0v.8a.9.9,0,0,0,1.8,0Z" transform="translate(-183.898 -157.758)"/>
            <path id="Path_990303" data-name="Path 990303" d="M196.006,152.68a.9.9,0,1,0,.7-1.664,5.481,5.481,0,0,0-4.379,0,.9.9,0,0,0,.7,1.664A3.69,3.69,0,0,1,196.006,152.68Z" transform="translate(-170.429 -132.452)"/>
            <path id="Path_990304" data-name="Path 990304" d="M290.822,179.324a.9.9,0,0,0-.9.9v.8a.9.9,0,1,0,1.8,0v-.8A.9.9,0,0,0,290.822,179.324Z" transform="translate(-256.775 -157.757)"/>
            <path id="Path_990305" data-name="Path 990305" d="M275.861,152.679a3.689,3.689,0,0,1,2.985,0,.9.9,0,0,0,.7-1.664,5.48,5.48,0,0,0-4.379,0,.9.9,0,1,0,.7,1.664Z" transform="translate(-243.306 -132.451)"/>
            <path id="Path_990306" data-name="Path 990306" d="M226.3,220.953a2.117,2.117,0,0,0-.63-1.685,3.189,3.189,0,0,0-2.617-.37,9.215,9.215,0,0,1-2.91,0,3.19,3.19,0,0,0-2.617.37,2.117,2.117,0,0,0-.63,1.685,4.7,4.7,0,1,0,9.4,0Zm-7.6,0a1.185,1.185,0,0,1,.035-.33,5.159,5.159,0,0,1,1.191.066,10.93,10.93,0,0,0,3.345,0,5.2,5.2,0,0,1,1.191-.066,1.185,1.185,0,0,1,.035.33,2.9,2.9,0,1,1-5.8,0Z" transform="translate(-192.534 -192.487)"/>
            <path id="Path_990307" data-name="Path 990307" d="M319.622,286.8l-8.546,2.861a1.3,1.3,0,0,0-.885,1.229v4.74a1.3,1.3,0,0,0,1.708,1.23L320.445,294a1.3,1.3,0,0,0,.885-1.229v-4.74A1.3,1.3,0,0,0,319.622,286.8Zm-.1,5.6L312,294.924v-3.669l7.531-2.521Z" transform="translate(-274.608 -252.246)"/>
            <path id="Path_990308" data-name="Path 990308" d="M71.024,36.691a3.423,3.423,0,0,0-2.556-.671V28.23a1.428,1.428,0,0,0-1.881-1.353L56.022,30.414a14.492,14.492,0,0,0,.37-1.894c.121.008.243.012.365.012a5.109,5.109,0,0,0,5.254-4.938,4.671,4.671,0,0,0-.586-2.263l4.036,1.874a1.35,1.35,0,0,0,1.889-1.511l-.384-1.763,1.593-.843a1.35,1.35,0,0,0-.061-2.418l-7.945-3.689a8.311,8.311,0,0,0-.518-1.647A5.031,5.031,0,0,0,58.26,8.955,11.416,11.416,0,0,0,57,8.414c-1.182-4.22-2.1-4.989-2.411-5.248-4.007-3.35-12-3.849-17.418-2.4a.9.9,0,0,0,.468,1.743c5.575-1.5,12.66-.582,15.793,2.037a8.506,8.506,0,0,1,1.5,3.245A50.611,50.611,0,0,0,43.391,6.641,50.61,50.61,0,0,0,31.849,7.8a8.506,8.506,0,0,1,1.5-3.247,7.414,7.414,0,0,1,.688-.509.9.9,0,0,0-.991-1.507,9.2,9.2,0,0,0-.855.633c-.309.258-1.227,1.027-2.41,5.248a11.423,11.423,0,0,0-1.26.541,5.032,5.032,0,0,0-1.774,2.378,5.562,5.562,0,0,0-.538,2.932,1.323,1.323,0,0,0,1.312,1.083h.187a39.829,39.829,0,0,0-1.082,4.483,4.815,4.815,0,0,0-1.856,3.762,5.109,5.109,0,0,0,5.254,4.938c.122,0,.243,0,.365-.012a14.509,14.509,0,0,0,.37,1.893L20.2,26.877a1.428,1.428,0,0,0-1.882,1.353v7.79a3.423,3.423,0,0,0-2.556.671c-.336.336-1.433,1.694-1.433,5.047s1.1,4.711,1.433,5.047a3.25,3.25,0,0,0,2.377.673l.179,0v4.558a1.692,1.692,0,0,0,1.155,1.6L43.105,61.53c.019.006.134.034.146.036s.124.011.14.011a.922.922,0,0,0,.286-.047l14.791-4.952a.9.9,0,0,0-.573-1.711l-13.6,4.554V36.243l22.37-7.489v7.471A3.354,3.354,0,0,0,64.3,39.443v4.59a3.354,3.354,0,0,0,2.367,3.219v4.68l-4.775,1.6a.9.9,0,1,0,.573,1.711l4.854-1.626a1.691,1.691,0,0,0,1.153-1.6V47.455l.179,0a3.25,3.25,0,0,0,2.377-.673c.336-.336,1.433-1.694,1.433-5.047s-1.1-4.711-1.433-5.047ZM57.182,15.349c.358,1.108.669,2.271.931,3.474a5.587,5.587,0,0,0-2.425-.065,26.807,26.807,0,0,0-1.063-3.409Zm-.425,11.379c-.072,0-.143,0-.214-.007a28.772,28.772,0,0,0-.48-6.2,3.778,3.778,0,0,1,.694-.064,3.307,3.307,0,0,1,3.45,3.134A3.307,3.307,0,0,1,56.758,26.728Zm9.058-8.23a1.354,1.354,0,0,0-.686,1.48l.262,1.205L59.92,18.643q-.361-1.7-.848-3.295h.188a1.28,1.28,0,0,0,1.037-.5l6.61,3.069ZM28.387,12.091a3.936,3.936,0,0,1,.957-1.529,9.22,9.22,0,0,1,1.462-.6l.025-.009c6.054-2.007,19.058-2.008,25.116,0l.034.012a10.661,10.661,0,0,1,1.457.6,3.984,3.984,0,0,1,.958,1.53,5.515,5.515,0,0,1,.42,1.454H27.966a5.517,5.517,0,0,1,.421-1.454ZM29.6,15.349h2.558a26.8,26.8,0,0,0-1.063,3.409,5.6,5.6,0,0,0-2.427.066c.261-1.2.572-2.364.932-3.475Zm.426,11.379a3.307,3.307,0,0,1-3.45-3.134,3.307,3.307,0,0,1,3.45-3.134,3.794,3.794,0,0,1,.694.064,28.755,28.755,0,0,0-.48,6.2C30.168,26.725,30.1,26.728,30.025,26.728Zm4.08-11.379H52.677c2.392,5.422,2.614,12.545,1.185,15.788L43.391,34.642,32.921,31.137C31.485,27.882,31.721,20.755,34.106,15.349ZM17.024,45.5c-1.184-1.214-1.184-6.306,0-7.521a4.18,4.18,0,0,1,2.1-.106l.156.015a1.556,1.556,0,0,1,1.4,1.557v4.59a1.556,1.556,0,0,1-1.4,1.557,4.45,4.45,0,0,1-2.255-.092Zm3.1,1.753a3.354,3.354,0,0,0,2.367-3.219v-4.59a3.354,3.354,0,0,0-2.367-3.219V28.754l22.37,7.489V59.421l-22.37-7.489ZM69.759,45.5a4.443,4.443,0,0,1-2.255.092,1.556,1.556,0,0,1-1.4-1.557v-4.59a1.556,1.556,0,0,1,1.4-1.557,5.889,5.889,0,0,1,2.255.092c1.184,1.214,1.184,6.306,0,7.521Z" transform="translate(-14.326 0)"/>
          </g>
        </g>
      </g>
    </g>
  </g>
</svg>
