<svg xmlns="http://www.w3.org/2000/svg" xmlns:xlink="http://www.w3.org/1999/xlink" width="108" height="108" viewBox="0 0 108 108">
  <defs>
    <filter id="Path_904820" x="0" y="0" width="108" height="108" filterUnits="userSpaceOnUse">
      <feOffset dy="3" input="SourceAlpha"/>
      <feGaussianBlur stdDeviation="3" result="blur"/>
      <feFlood flood-opacity="0.161"/>
      <feComposite operator="in" in2="blur"/>
      <feComposite in="SourceGraphic"/>
    </filter>
  </defs>
  <g id="Group_1163058" data-name="Group 1163058" transform="translate(-160 -3940)">
    <g id="Group_1160713" data-name="Group 1160713">
      <g id="Icono" transform="translate(169 3946)">
        <g transform="matrix(1, 0, 0, 1, -9, -6)" filter="url(#Path_904820)">
          <g id="Path_904820-2" data-name="Path 904820" transform="translate(9 6)" fill="#f4fdfe">
            <path d="M 45 88.5 C 39.12687683105469 88.5 33.43022537231445 87.35007476806641 28.06830024719238 85.08217620849609 C 22.88852500915527 82.89131164550781 18.23629951477051 79.75458526611328 14.2408504486084 75.75914764404297 C 10.24541282653809 71.76370239257812 7.108687400817871 67.11147308349609 4.917825222015381 61.93170166015625 C 2.649924993515015 56.56977462768555 1.5 50.87312316894531 1.5 45 C 1.5 39.12687683105469 2.649924993515015 33.43022537231445 4.917825222015381 28.06830024719238 C 7.108687400817871 22.88852500915527 10.24541282653809 18.23629951477051 14.2408504486084 14.2408504486084 C 18.23629951477051 10.24541282653809 22.88852500915527 7.108687400817871 28.06830024719238 4.917825222015381 C 33.43022537231445 2.649924993515015 39.12687683105469 1.5 45 1.5 C 50.87312316894531 1.5 56.56977462768555 2.649924993515015 61.93170166015625 4.917825222015381 C 67.11147308349609 7.108687400817871 71.76370239257812 10.24541282653809 75.75914764404297 14.2408504486084 C 79.75458526611328 18.23629951477051 82.89131164550781 22.88852500915527 85.08217620849609 28.06830024719238 C 87.35007476806641 33.43022537231445 88.5 39.12687683105469 88.5 45 C 88.5 50.87312316894531 87.35007476806641 56.56977462768555 85.08217620849609 61.93170166015625 C 82.89131164550781 67.11147308349609 79.75458526611328 71.76370239257812 75.75914764404297 75.75914764404297 C 71.76370239257812 79.75458526611328 67.11147308349609 82.89131164550781 61.93170166015625 85.08217620849609 C 56.56977462768555 87.35007476806641 50.87312316894531 88.5 45 88.5 Z" stroke="none"/>
            <path d="M 45 3 C 39.32871246337891 3 33.82865524291992 4.110054016113281 28.65262985229492 6.299339294433594 C 23.65165710449219 8.414573669433594 19.15968322753906 11.44334411621094 15.301513671875 15.301513671875 C 11.44334411621094 19.15968322753906 8.414573669433594 23.65165710449219 6.299339294433594 28.65262985229492 C 4.110054016113281 33.82865524291992 3 39.32871246337891 3 45 C 3 50.67128753662109 4.110054016113281 56.17134475708008 6.299339294433594 61.34737396240234 C 8.414573669433594 66.34834289550781 11.44334411621094 70.84031677246094 15.301513671875 74.698486328125 C 19.15968322753906 78.55665588378906 23.65165710449219 81.58542633056641 28.65262985229492 83.70066070556641 C 33.82865524291992 85.88994598388672 39.32871246337891 87 45 87 C 50.67128753662109 87 56.17134475708008 85.88994598388672 61.34737396240234 83.70066070556641 C 66.34834289550781 81.58542633056641 70.84031677246094 78.55665588378906 74.698486328125 74.698486328125 C 78.55665588378906 70.84031677246094 81.58542633056641 66.34834289550781 83.70066070556641 61.34737396240234 C 85.88994598388672 56.17134475708008 87 50.67128753662109 87 45 C 87 39.32871246337891 85.88994598388672 33.82865524291992 83.70066070556641 28.65262985229492 C 81.58542633056641 23.65165710449219 78.55665588378906 19.15968322753906 74.698486328125 15.301513671875 C 70.84031677246094 11.44334411621094 66.34834289550781 8.414573669433594 61.34737396240234 6.299339294433594 C 56.17134475708008 4.110054016113281 50.67128753662109 3 45 3 M 45 0 C 69.85281372070312 0 90 20.14718627929688 90 45 C 90 69.85281372070312 69.85281372070312 90 45 90 C 20.14718627929688 90 0 69.85281372070312 0 45 C 0 20.14718627929688 20.14718627929688 0 45 0 Z" stroke="none" fill="#56838a"/>
          </g>
        </g>
      </g>
      <g id="discusion" transform="translate(188 3965)">
        <g id="Group_1160711" data-name="Group 1160711" transform="translate(0.77 0.769)">
          <g id="Group_1160710" data-name="Group 1160710">
            <path id="Path_990942" data-name="Path 990942" d="M20.866,431.82H8.12a.621.621,0,0,1-.612-.728l1.008-5.777a2.175,2.175,0,0,1,2.142-1.8h7.668a2.175,2.175,0,0,1,2.142,1.8l1.008,5.777A.621.621,0,0,1,20.866,431.82Z" transform="translate(-7.499 -380.849)" fill="#ffe177"/>
            <path id="Path_990943" data-name="Path 990943" d="M108.279,431.092l-1.008-5.777a2.175,2.175,0,0,0-2.142-1.8h-2.051a2.175,2.175,0,0,1,2.142,1.8l1.008,5.777a.621.621,0,0,1-.612.728h2.051A.621.621,0,0,0,108.279,431.092Z" transform="translate(-93.275 -380.849)" fill="#ffc344"/>
            <path id="Path_990944" data-name="Path 990944" d="M61.593,382.506a2.183,2.183,0,0,1-2.183-2.183V374.3h4.366v6.025A2.183,2.183,0,0,1,61.593,382.506Z" transform="translate(-54.086 -336.68)" fill="#f6a96c"/>
            <path id="Path_990945" data-name="Path 990945" d="M41.891,322.054a4.489,4.489,0,0,1-1.026-.017,4.436,4.436,0,0,1-3.408-4.315v-1.76c0-2.1,1.454-2.827,3.408-3.29.329-.078.673-1.042,1.026-1.042a4.261,4.261,0,0,1,4.332,4.332v1.76A4.261,4.261,0,0,1,41.891,322.054Z" transform="translate(-34.385 -280.439)" fill="#fed2a4"/>
            <path id="Path_990946" data-name="Path 990946" d="M71.721,320.63a4.447,4.447,0,0,0-1.026.121c1.725.409,3.06.8,3.35,2.566a4.46,4.46,0,0,1,.059.722v1.76a4.435,4.435,0,0,1-3.409,4.314,4.433,4.433,0,0,0,5.46-4.314v-1.76a4.418,4.418,0,0,0-.4-1.845C75.054,320.666,73.511,320.63,71.721,320.63Z" transform="translate(-64.214 -288.516)" fill="#ffbd86"/>
            <path id="Path_990947" data-name="Path 990947" d="M45.19,313.915c-.7-1.528-1.508-2.486-3.3-2.486a4.489,4.489,0,0,0-1.026.017,4.436,4.436,0,0,0-3.408,4.315s2.605,1.592,6.759-.722C44.759,314.735,44.6,314.364,45.19,313.915Z" transform="translate(-34.385 -280.238)" fill="#a79ba7"/>
            <path id="Path_990948" data-name="Path 990948" d="M71.721,310.63a4.442,4.442,0,0,0-1.026.121,4.438,4.438,0,0,1,3.349,3.591,14.711,14.711,0,0,0,1.709-1.121A4.434,4.434,0,0,0,71.721,310.63Z" transform="translate(-64.214 -279.542)" fill="#918291"/>
            <path id="Path_990949" data-name="Path 990949" d="M371.476,431.82H358.73a.621.621,0,0,1-.612-.728l1.008-5.777a2.175,2.175,0,0,1,2.142-1.8h7.668a2.175,2.175,0,0,1,2.142,1.8l1.008,5.777A.621.621,0,0,1,371.476,431.82Z" transform="translate(-322.152 -380.849)" fill="#cb97e7"/>
            <path id="Path_990950" data-name="Path 990950" d="M458.889,431.092l-1.008-5.777a2.175,2.175,0,0,0-2.142-1.8h-2.051a2.175,2.175,0,0,1,2.142,1.8l1.008,5.777a.621.621,0,0,1-.612.728h2.051A.621.621,0,0,0,458.889,431.092Z" transform="translate(-407.927 -380.849)" fill="#af66da"/>
            <path id="Path_990951" data-name="Path 990951" d="M412.2,382.506a2.183,2.183,0,0,1-2.183-2.183V374.3h4.366v6.025A2.183,2.183,0,0,1,412.2,382.506Z" transform="translate(-368.739 -336.68)" fill="#f6a96c"/>
            <path id="Path_990952" data-name="Path 990952" d="M392.5,322.054a4.489,4.489,0,0,1-1.026-.017,4.436,4.436,0,0,1-3.408-4.315v-1.76c0-2.1,1.454-2.827,3.408-3.29.329-.078.673-1.042,1.026-1.042a4.261,4.261,0,0,1,4.332,4.332v1.76A4.261,4.261,0,0,1,392.5,322.054Z" transform="translate(-349.037 -280.439)" fill="#fed2a4"/>
            <path id="Path_990953" data-name="Path 990953" d="M422.331,320.63a4.446,4.446,0,0,0-1.026.121c1.725.409,3.06.8,3.35,2.566a4.459,4.459,0,0,1,.059.722v1.76a4.435,4.435,0,0,1-3.409,4.314,4.433,4.433,0,0,0,5.46-4.314v-1.76a4.418,4.418,0,0,0-.4-1.845C425.664,320.666,424.121,320.63,422.331,320.63Z" transform="translate(-378.866 -288.516)" fill="#ffbd86"/>
            <path id="Path_990954" data-name="Path 990954" d="M395.8,313.915c-.7-1.528-1.508-2.486-3.3-2.486a4.489,4.489,0,0,0-1.026.017,4.436,4.436,0,0,0-3.408,4.315s2.605,1.592,6.759-.722C395.369,314.735,395.205,314.364,395.8,313.915Z" transform="translate(-349.037 -280.238)" fill="#a79ba7"/>
            <path id="Path_990955" data-name="Path 990955" d="M422.331,310.63a4.441,4.441,0,0,0-1.026.121,4.438,4.438,0,0,1,3.349,3.591,14.713,14.713,0,0,0,1.709-1.121A4.434,4.434,0,0,0,422.331,310.63Z" transform="translate(-378.866 -279.542)" fill="#918291"/>
            <path id="Path_990956" data-name="Path 990956" d="M20.866,128.69H8.12a.621.621,0,0,1-.612-.728l1.008-5.777a2.175,2.175,0,0,1,2.142-1.8h7.668a2.175,2.175,0,0,1,2.142,1.8l1.008,5.777A.621.621,0,0,1,20.866,128.69Z" transform="translate(-7.499 -108.807)" fill="#fe73c5"/>
            <path id="Path_990957" data-name="Path 990957" d="M108.279,127.963l-1.008-5.777a2.175,2.175,0,0,0-2.142-1.8h-2.051a2.174,2.174,0,0,1,2.142,1.8l1.008,5.777a.621.621,0,0,1-.612.728h2.051A.621.621,0,0,0,108.279,127.963Z" transform="translate(-93.275 -108.808)" fill="#fe2aa8"/>
            <path id="Path_990958" data-name="Path 990958" d="M61.593,79.377a2.183,2.183,0,0,1-2.183-2.183V71.169h4.366v6.025A2.183,2.183,0,0,1,61.593,79.377Z" transform="translate(-54.086 -64.639)" fill="#f6a96c"/>
            <path id="Path_990959" data-name="Path 990959" d="M41.891,18.924a4.488,4.488,0,0,1-1.026-.017,4.436,4.436,0,0,1-3.408-4.315v-1.76c0-2.1,1.454-2.827,3.408-3.29.329-.078.673-1.042,1.026-1.042a4.261,4.261,0,0,1,4.332,4.332v1.76A4.261,4.261,0,0,1,41.891,18.924Z" transform="translate(-34.385 -8.397)" fill="#fed2a4"/>
            <path id="Path_990960" data-name="Path 990960" d="M71.721,17.5a4.446,4.446,0,0,0-1.026.121c1.725.409,3.06.8,3.35,2.566a4.46,4.46,0,0,1,.059.722v1.76a4.435,4.435,0,0,1-3.409,4.314,4.433,4.433,0,0,0,5.46-4.314v-1.76a4.418,4.418,0,0,0-.4-1.845C75.054,17.536,73.511,17.5,71.721,17.5Z" transform="translate(-64.214 -16.474)" fill="#ffbd86"/>
            <path id="Path_990961" data-name="Path 990961" d="M45.19,10.786c-.7-1.528-1.508-2.486-3.3-2.486a4.488,4.488,0,0,0-1.026.017,4.436,4.436,0,0,0-3.408,4.315s2.605,1.592,6.759-.722C44.759,11.606,44.6,11.235,45.19,10.786Z" transform="translate(-34.385 -8.197)" fill="#a79ba7"/>
            <path id="Path_990962" data-name="Path 990962" d="M71.721,7.5a4.447,4.447,0,0,0-1.026.121,4.438,4.438,0,0,1,3.349,3.591,14.724,14.724,0,0,0,1.709-1.121A4.434,4.434,0,0,0,71.721,7.5Z" transform="translate(-64.214 -7.5)" fill="#918291"/>
            <path id="Path_990963" data-name="Path 990963" d="M371.476,128.69H358.73a.621.621,0,0,1-.612-.728l1.008-5.777a2.175,2.175,0,0,1,2.142-1.8h7.668a2.175,2.175,0,0,1,2.142,1.8l1.008,5.777A.621.621,0,0,1,371.476,128.69Z" transform="translate(-322.152 -108.807)" fill="#62dbfb"/>
            <path id="Path_990964" data-name="Path 990964" d="M458.889,127.963l-1.008-5.777a2.175,2.175,0,0,0-2.142-1.8h-2.051a2.174,2.174,0,0,1,2.142,1.8l1.008,5.777a.621.621,0,0,1-.612.728h2.051A.621.621,0,0,0,458.889,127.963Z" transform="translate(-407.927 -108.808)" fill="#01c0fa"/>
            <path id="Path_990965" data-name="Path 990965" d="M412.2,79.377a2.183,2.183,0,0,1-2.183-2.183V71.169h4.366v6.025A2.183,2.183,0,0,1,412.2,79.377Z" transform="translate(-368.739 -64.639)" fill="#f6a96c"/>
            <path id="Path_990966" data-name="Path 990966" d="M392.5,18.924a4.488,4.488,0,0,1-1.026-.017,4.436,4.436,0,0,1-3.408-4.315v-1.76c0-2.1,1.454-2.827,3.408-3.29.329-.078.673-1.042,1.026-1.042a4.261,4.261,0,0,1,4.332,4.332v1.76A4.261,4.261,0,0,1,392.5,18.924Z" transform="translate(-349.037 -8.397)" fill="#fed2a4"/>
            <path id="Path_990967" data-name="Path 990967" d="M422.331,17.5a4.446,4.446,0,0,0-1.026.121c1.725.409,3.06.8,3.35,2.566a4.459,4.459,0,0,1,.059.722v1.76a4.435,4.435,0,0,1-3.409,4.314,4.433,4.433,0,0,0,5.46-4.314v-1.76a4.418,4.418,0,0,0-.4-1.845C425.664,17.536,424.121,17.5,422.331,17.5Z" transform="translate(-378.866 -16.474)" fill="#ffbd86"/>
            <path id="Path_990968" data-name="Path 990968" d="M395.8,10.786c-.7-1.528-1.508-2.486-3.3-2.486a4.488,4.488,0,0,0-1.026.017,4.436,4.436,0,0,0-3.408,4.315s2.605,1.592,6.759-.722C395.369,11.606,395.205,11.235,395.8,10.786Z" transform="translate(-349.037 -8.197)" fill="#a79ba7"/>
            <path id="Path_990969" data-name="Path 990969" d="M422.331,7.5a4.446,4.446,0,0,0-1.026.121,4.438,4.438,0,0,1,3.349,3.591,14.727,14.727,0,0,0,1.709-1.121A4.434,4.434,0,0,0,422.331,7.5Z" transform="translate(-378.866 -7.5)" fill="#918291"/>
            <path id="Path_990970" data-name="Path 990970" d="M196.3,174.756c0-4.171-2.348-7.452-6.515-7.468a7.509,7.509,0,0,0-2.752,14.531,1.027,1.027,0,0,1,.521.444l.663,1.149,1.094,1.146a.513.513,0,0,0,.888,0l.732-2.3a1.024,1.024,0,0,1,.519-.443,7.571,7.571,0,0,0,4.849-7.064Z" transform="translate(-164.269 -150.889)" fill="#bbec6c"/>
            <path id="Path_990971" data-name="Path 990971" d="M242.568,166.4a7.509,7.509,0,0,0-1.559.158,7.571,7.571,0,0,1,1.174,14.476,1.025,1.025,0,0,0-.519.443L241,182.627l1.094,1.9a.513.513,0,0,0,.888,0l1.758-3.044a1.025,1.025,0,0,1,.519-.443,7.57,7.57,0,0,0-2.692-14.634Z" transform="translate(-217.053 -150.104)" fill="#97d729"/>
          </g>
        </g>
        <g id="Group_1160712" data-name="Group 1160712" transform="translate(0.001)">
          <path id="Path_990972" data-name="Path 990972" d="M51.481,45.1a2.939,2.939,0,0,0-2.9-2.438H47.186v-.332a5.2,5.2,0,0,0,2.251-4.282v-1.76a5.21,5.21,0,0,0-4.578-5.165,19.341,19.341,0,0,0,.01-9.706h6.25a1.39,1.39,0,0,0,1.369-1.629l-.4-2.306a.769.769,0,0,0-1.515.264l.372,2.132H37.525l.978-5.6a1.4,1.4,0,0,1,1.385-1.164h1.394v.208a2.952,2.952,0,1,0,5.9,0v-.208h1.394a1.4,1.4,0,0,1,1.385,1.164.769.769,0,1,0,1.515-.264,2.939,2.939,0,0,0-2.9-2.438H47.186v-.331a5.2,5.2,0,0,0,2.251-4.282V5.2a5.2,5.2,0,0,0-10.407,0v1.76a5.2,5.2,0,0,0,2.251,4.282v.331H39.887a2.946,2.946,0,0,0-1.006.176,19.228,19.228,0,0,0-25.253,0,2.948,2.948,0,0,0-1.006-.176H11.229v-.331A5.2,5.2,0,0,0,13.48,6.964V5.2a5.2,5.2,0,1,0-10.407,0v1.76a5.2,5.2,0,0,0,2.251,4.282v.331H3.93a2.939,2.939,0,0,0-2.9,2.438L.022,19.792a1.39,1.39,0,0,0,1.369,1.629h6.25a19.34,19.34,0,0,0,.01,9.706,5.21,5.21,0,0,0-4.578,5.165v1.76a5.2,5.2,0,0,0,2.251,4.282v.332H3.93A2.939,2.939,0,0,0,1.03,45.1L.022,50.88a1.39,1.39,0,0,0,1.369,1.629H15.162a1.39,1.39,0,0,0,1.369-1.629L15.523,45.1a2.938,2.938,0,0,0-2.9-2.438H11.229v-.331A5.236,5.236,0,0,0,13.015,40.2a19.164,19.164,0,0,0,11.457,5.2c.024,0,.048,0,.071,0a.769.769,0,0,0,.07-1.535,17.638,17.638,0,0,1-11.151-5.4c.011-.138.018-.278.018-.418v-1.76a5.212,5.212,0,0,0-4.219-5.109,17.8,17.8,0,0,1-.027-9.761h5.928a1.39,1.39,0,0,0,1.369-1.629l-1.008-5.777a2.939,2.939,0,0,0-.605-1.339,17.688,17.688,0,0,1,22.675,0,2.939,2.939,0,0,0-.605,1.339l-1.008,5.777a1.39,1.39,0,0,0,1.369,1.629h5.928a17.8,17.8,0,0,1-.027,9.761,5.211,5.211,0,0,0-4.219,5.109v1.76c0,.141.007.28.018.418a17.649,17.649,0,0,1-11.1,5.395.769.769,0,0,0,.072,1.535c.024,0,.049,0,.073,0A19.177,19.177,0,0,0,39.5,40.2a5.236,5.236,0,0,0,1.787,2.137v.331H39.888a2.939,2.939,0,0,0-2.9,2.438L35.979,50.88a1.39,1.39,0,0,0,1.369,1.629H51.12a1.39,1.39,0,0,0,1.369-1.629ZM45.648,13.324a1.414,1.414,0,1,1-2.828,0V11.971a5.176,5.176,0,0,0,2.828,0ZM44.234,1.538a3.664,3.664,0,0,1,3.026,1.6c-3.378,2.333-5.749,1.9-6.658,1.584a3.67,3.67,0,0,1,3.632-3.183ZM40.569,6.31a6.75,6.75,0,0,0,1.653.2A10.223,10.223,0,0,0,47.848,4.6,3.672,3.672,0,0,1,47.9,5.2v1.76a3.665,3.665,0,0,1-7.33,0V6.31ZM9.69,44.412a1.414,1.414,0,1,1-2.828,0V43.059a5.176,5.176,0,0,0,2.828,0Zm2.933-.208a1.4,1.4,0,0,1,1.385,1.164l.978,5.6H1.567l.978-5.6A1.4,1.4,0,0,1,3.93,44.2H5.324v.208a2.952,2.952,0,0,0,5.9,0V44.2h1.394Zm-.681-6.152a3.665,3.665,0,1,1-7.33,0V37.4a6.751,6.751,0,0,0,1.653.2,10.223,10.223,0,0,0,5.626-1.913,3.671,3.671,0,0,1,.051.607Zm-.64-3.826c-3.378,2.332-5.749,1.9-6.658,1.583A3.663,3.663,0,0,1,11.3,34.226ZM6.863,11.971a5.176,5.176,0,0,0,2.828,0v1.353a1.414,1.414,0,1,1-2.828,0ZM8.276,1.538a3.664,3.664,0,0,1,3.026,1.6C7.924,5.47,5.553,5.041,4.644,4.721A3.67,3.67,0,0,1,8.276,1.538ZM4.611,6.31a6.75,6.75,0,0,0,1.653.2A10.223,10.223,0,0,0,11.89,4.6a3.672,3.672,0,0,1,.051.607v1.76a3.665,3.665,0,0,1-7.33,0V6.31ZM1.567,19.883l.978-5.6A1.4,1.4,0,0,1,3.93,13.115H5.324v.208a2.952,2.952,0,1,0,5.9,0v-.208h1.394a1.4,1.4,0,0,1,1.385,1.164l.978,5.6ZM42.82,43.059a5.176,5.176,0,0,0,2.828,0v1.353a1.414,1.414,0,1,1-2.828,0Zm1.414-10.432a3.664,3.664,0,0,1,3.026,1.6c-3.378,2.332-5.749,1.9-6.658,1.583A3.67,3.67,0,0,1,44.234,32.626ZM40.569,37.4a6.751,6.751,0,0,0,1.653.2,10.223,10.223,0,0,0,5.626-1.913,3.672,3.672,0,0,1,.051.607v1.76a3.665,3.665,0,1,1-7.33,0ZM37.525,50.971l.978-5.6A1.4,1.4,0,0,1,39.887,44.2h1.394v.208a2.952,2.952,0,0,0,5.9,0V44.2h1.394a1.4,1.4,0,0,1,1.385,1.164l.978,5.6Z" transform="translate(-0.001)"/>
          <path id="Path_990973" data-name="Path 990973" d="M220.814,233.485a.769.769,0,1,0-.769.769A.769.769,0,0,0,220.814,233.485Z" transform="translate(-196.788 -208.849)"/>
          <path id="Path_990974" data-name="Path 990974" d="M250.038,233.485a.769.769,0,1,0-.769.769A.769.769,0,0,0,250.038,233.485Z" transform="translate(-223.015 -208.849)"/>
          <path id="Path_990975" data-name="Path 990975" d="M278.493,234.254a.769.769,0,1,0-.769-.769A.769.769,0,0,0,278.493,234.254Z" transform="translate(-249.241 -208.849)"/>
          <path id="Path_990976" data-name="Path 990976" d="M187.383,175.133a.256.256,0,0,1,.13-.11,8.339,8.339,0,0,0-2.965-16.121h-.031a8.406,8.406,0,0,0-8.13,6.478.769.769,0,0,0,1.5.345,6.856,6.856,0,0,1,6.631-5.284h.025a6.8,6.8,0,0,1,2.418,13.148,1.8,1.8,0,0,0-.909.776l-1.535,2.659-1.535-2.659a1.8,1.8,0,0,0-.911-.777,6.778,6.778,0,0,1-4.2-4.9.769.769,0,0,0-1.5.325,8.312,8.312,0,0,0,5.152,6.014.26.26,0,0,1,.132.111l1.757,3.044a1.269,1.269,0,0,0,1.11.641h0a1.269,1.269,0,0,0,1.11-.641Z" transform="translate(-158.261 -142.605)"/>
        </g>
      </g>
    </g>
  </g>
</svg>
