<svg xmlns="http://www.w3.org/2000/svg" xmlns:xlink="http://www.w3.org/1999/xlink" width="110" height="110" viewBox="0 0 110 110">
  <defs>
    <filter id="Path_982547" x="0" y="0" width="110" height="110" filterUnits="userSpaceOnUse">
      <feOffset dy="3" input="SourceAlpha"/>
      <feGaussianBlur stdDeviation="3" result="blur"/>
      <feFlood flood-opacity="0.161"/>
      <feComposite operator="in" in2="blur"/>
      <feComposite in="SourceGraphic"/>
    </filter>
  </defs>
  <g id="Group_1164087" data-name="Group 1164087" transform="translate(-1116.195 -4644.685)">
    <g id="Group_1163803" data-name="Group 1163803">
      <g id="Group_1163015" data-name="Group 1163015" transform="translate(1.195 305.685)">
        <g id="Group_1157017" data-name="Group 1157017" transform="translate(0 3549)">
          <g id="Group_1155793" data-name="Group 1155793" transform="translate(-0.999 -3894)">
            <g id="Group_1154704" data-name="Group 1154704" transform="translate(0 1466)">
              <g id="Group_1150790" data-name="Group 1150790" transform="translate(3 2320)">
                <g id="Group_1154214" data-name="Group 1154214" transform="translate(79 -5809)">
                  <g id="Group_1152583" data-name="Group 1152583" transform="translate(1043 6713)">
                    <g id="Group_1146973" data-name="Group 1146973" transform="translate(0 0)">
                      <g id="Group_1146954" data-name="Group 1146954">
                        <g transform="matrix(1, 0, 0, 1, -9, -6)" filter="url(#Path_982547)">
                          <g id="Path_982547-2" data-name="Path 982547" transform="translate(9 6)" fill="#ebe9f0">
                            <path d="M 46 90.49987030029297 C 39.99187850952148 90.49987030029297 34.16426849365234 89.32350921630859 28.67905426025391 87.00345611572266 C 23.38019943237305 84.76224517822266 18.62104034423828 81.55341339111328 14.53374671936035 77.46613311767578 C 10.44646644592285 73.37885284423828 7.237639904022217 68.61969757080078 4.996413230895996 63.32085418701172 C 2.676359891891479 57.83565521240234 1.5 52.008056640625 1.5 45.99993515014648 C 1.5 39.99181365966797 2.676359891891479 34.16421508789062 4.996413230895996 28.67901420593262 C 7.237639904022217 23.38017463684082 10.44646644592285 18.62101554870605 14.53374671936035 14.53373527526855 C 18.62104034423828 10.44645500183105 23.38019943237305 7.23762845993042 28.67905426025391 4.996415138244629 C 34.16426849365234 2.676361799240112 39.99187850952148 1.500001788139343 46 1.500001788139343 C 52.00812149047852 1.500001788139343 57.83573150634766 2.676361799240112 63.32094573974609 4.996415138244629 C 68.61979675292969 7.23762845993042 73.37895965576172 10.44645500183105 77.46625518798828 14.53373527526855 C 81.55353546142578 18.62101554870605 84.76235961914062 23.38017463684082 87.00358581542969 28.67901420593262 C 89.32363891601562 34.16421508789062 90.5 39.99181365966797 90.5 45.99993515014648 C 90.5 52.008056640625 89.32363891601562 57.83565521240234 87.00358581542969 63.32085418701172 C 84.76235961914062 68.61969757080078 81.55353546142578 73.37885284423828 77.46625518798828 77.46613311767578 C 73.37895965576172 81.55341339111328 68.61979675292969 84.76224517822266 63.32094573974609 87.00345611572266 C 57.83573150634766 89.32350921630859 52.00812149047852 90.49987030029297 46 90.49987030029297 Z" stroke="none"/>
                            <path d="M 46 2.999992370605469 C 40.1937141418457 2.999992370605469 34.56269836425781 4.136489868164062 29.26337051391602 6.377906799316406 C 24.14332580566406 8.543502807617188 19.54441070556641 11.64437866210938 15.59439849853516 15.59437561035156 C 11.64440155029297 19.54439544677734 8.54351806640625 24.14329528808594 6.377914428710938 29.26333618164062 C 4.136497497558594 34.56264877319336 3 40.19366455078125 3 45.99993515014648 C 3 51.80620574951172 4.136497497558594 57.43720626831055 6.377914428710938 62.73651885986328 C 8.54351806640625 67.8565673828125 11.64440155029297 72.45545959472656 15.59439849853516 76.40547943115234 C 19.54441070556641 80.35547637939453 24.14332580566406 83.45635223388672 29.26337051391602 85.6219482421875 C 34.56269836425781 87.86336517333984 40.1937141418457 88.99986267089844 46 88.99986267089844 C 51.8062858581543 88.99986267089844 57.43730163574219 87.86336517333984 62.73661422729492 85.6219482421875 C 67.85667419433594 83.45635223388672 72.45557403564453 80.35547637939453 76.40558624267578 76.40547943115234 C 80.35559844970703 72.45545959472656 83.45647430419922 67.8565673828125 85.6220703125 62.73651885986328 C 87.86350250244141 57.43720626831055 89 51.80620574951172 89 45.99993515014648 C 89 40.19366455078125 87.86350250244141 34.56264877319336 85.6220703125 29.26333618164062 C 83.45647430419922 24.14329528808594 80.35559844970703 19.54439544677734 76.40558624267578 15.59437561035156 C 72.45557403564453 11.64437866210938 67.85667419433594 8.543502807617188 62.73661422729492 6.377906799316406 C 57.43730163574219 4.136489868164062 51.8062858581543 2.999992370605469 46 2.999992370605469 M 46 -7.62939453125e-06 C 71.40509033203125 -7.62939453125e-06 92 20.59486389160156 92 45.99993515014648 C 92 71.40499114990234 71.40509033203125 91.99986267089844 46 91.99986267089844 C 20.59490203857422 91.99986267089844 0 71.40499114990234 0 45.99993515014648 C 0 20.59486389160156 20.59490203857422 -7.62939453125e-06 46 -7.62939453125e-06 Z" stroke="none" fill="#453179"/>
                          </g>
                        </g>
                      </g>
                    </g>
                  </g>
                </g>
              </g>
            </g>
          </g>
        </g>
      </g>
      <g id="identificar" transform="translate(1145.342 4667.355)">
        <path id="Path_998136" data-name="Path 998136" d="M137.732,7.5a21.732,21.732,0,0,0-17.94,33.6,1.412,1.412,0,0,1-.18,1.773l-7.386,7.386,4.727,4.727,7.386-7.386a1.412,1.412,0,0,1,1.773-.18A21.729,21.729,0,1,0,137.732,7.5Z" transform="translate(-98.638 -6.593)" fill="#c5d3dd"/>
        <circle id="Ellipse_12456" data-name="Ellipse 12456" cx="16.714" cy="16.714" r="16.714" transform="translate(22.637 5.922)" fill="#f9f7f8"/>
        <path id="Path_998137" data-name="Path 998137" d="M258.9,55.065a16.719,16.719,0,0,1-14.737,29.518A16.716,16.716,0,1,0,258.9,55.065Z" transform="translate(-214.604 -48.398)" fill="#dff6fd"/>
        <path id="Path_998138" data-name="Path 998138" d="M258.567,104.139,249.412,120h18.309Z" transform="translate(-219.215 -91.531)" fill="#fdb441"/>
        <path id="Path_998139" data-name="Path 998139" d="M28.125,340.785l-6.912-6.912a.127.127,0,0,0-.179,0l-13.5,13.5a.127.127,0,0,0-.037.09V354.5h7.039a.127.127,0,0,0,.09-.037l13.5-13.5A.127.127,0,0,0,28.125,340.785Z" transform="translate(-6.591 -293.419)" fill="#7a6d79"/>
        <g id="Group_1163802" data-name="Group 1163802" transform="translate(4.314 2.983)">
          <path id="Path_998140" data-name="Path 998140" d="M50.033,108.488l-4.854-1.257a1.671,1.671,0,0,1,.838-3.236l4.854,1.257a1.671,1.671,0,0,1-.838,3.236Z" transform="translate(-42.921 -94.34)" fill="#fe646f"/>
          <path id="Path_998141" data-name="Path 998141" d="M42.406,190.85l-5,.306a1.671,1.671,0,0,1-.2-3.337l5-.306a1.671,1.671,0,0,1,.2,3.337Z" transform="translate(-35.628 -167.792)" fill="#fe646f"/>
          <path id="Path_998142" data-name="Path 998142" d="M85.259,27.6l-4.227-2.7a1.671,1.671,0,1,0-1.8,2.818l4.227,2.7a1.671,1.671,0,0,0,1.8-2.818Z" transform="translate(-73.276 -24.639)" fill="#fe646f"/>
        </g>
        <path id="Path_998143" data-name="Path 998143" d="M80.347,359.311,72.2,351.165a.149.149,0,0,1,0-.211l2.643-2.643a.149.149,0,0,1,.211,0l8.146,8.146a.149.149,0,0,1,0,.211l-2.643,2.643A.149.149,0,0,1,80.347,359.311Z" transform="translate(-63.42 -306.104)" fill="#c5d3dd"/>
        <path id="Path_998144" data-name="Path 998144" d="M197.1,76.661a17.622,17.622,0,1,0-17.622-17.622A17.642,17.642,0,0,0,197.1,76.661Zm0-33.428a15.806,15.806,0,1,1-15.806,15.806A15.824,15.824,0,0,1,197.1,43.233Z" transform="translate(-157.744 -36.403)"/>
        <path id="Path_998145" data-name="Path 998145" d="M242.821,114.311H261.13a.908.908,0,0,0,.786-1.362l-1.642-2.844a.908.908,0,1,0-1.573.908l.855,1.482H244.394l7.582-13.132,4.566,7.909a.908.908,0,1,0,1.573-.908l-5.353-9.271a.908.908,0,0,0-1.573,0l-9.155,15.856a.908.908,0,0,0,.786,1.362Z" transform="translate(-212.624 -84.939)"/>
        <path id="Path_998146" data-name="Path 998146" d="M319.345,152.77a.908.908,0,0,0-1.816,0v2.5a.908.908,0,0,0,1.816,0Z" transform="translate(-279.086 -133.476)"/>
        <circle id="Ellipse_12457" data-name="Ellipse 12457" cx="0.908" cy="0.908" r="0.908" transform="translate(38.442 24.15)"/>
        <path id="Path_998147" data-name="Path 998147" d="M38.361,101.515l4.854,1.257a2.579,2.579,0,1,0,1.293-4.994l-4.854-1.257a2.579,2.579,0,1,0-1.293,4.994Zm-.092-2.688a.763.763,0,0,1,.931-.548l4.854,1.257a.763.763,0,0,1-.383,1.478l-4.854-1.257A.764.764,0,0,1,38.268,98.826Z" transform="translate(-32.017 -84.762)"/>
        <path id="Path_998148" data-name="Path 998148" d="M30.865,185.47l5-.306h0a2.579,2.579,0,0,0-.315-5.149l-5,.306a2.579,2.579,0,0,0,.315,5.149Zm-.729-3.08a.759.759,0,0,1,.525-.256l5.005-.306a.763.763,0,0,1,.093,1.524l-5.005.306A.764.764,0,0,1,30.135,182.389Z" transform="translate(-24.721 -158.216)"/>
        <path id="Path_998149" data-name="Path 998149" d="M72.149,21.9l4.227,2.7a2.579,2.579,0,1,0,2.775-4.349l-4.227-2.7A2.579,2.579,0,0,0,72.149,21.9Zm.744-2.585a.765.765,0,0,1,1.054-.233l4.227,2.7a.763.763,0,1,1-.821,1.287l-4.227-2.7A.763.763,0,0,1,72.893,19.314Z" transform="translate(-62.365 -15.07)"/>
        <path id="Path_998150" data-name="Path 998150" d="M55.358,6.63a22.682,22.682,0,0,0-30.149-1.7.908.908,0,1,0,1.133,1.419A20.837,20.837,0,0,1,60.17,22.884a20.824,20.824,0,0,1-32.2,17.19,2.331,2.331,0,0,0-2.912.3L20.441,44.99,17,41.546l4.617-4.618a2.331,2.331,0,0,0,.3-2.912,20.878,20.878,0,0,1,1.494-24.8.908.908,0,1,0-1.389-1.169,22.7,22.7,0,0,0-1.624,26.966.5.5,0,0,1-.062.634l-4.618,4.618-.451-.451a1.037,1.037,0,0,0-1.463,0L12.152,41.46a1.057,1.057,0,0,0-1.372.106L8.138,44.208a1.057,1.057,0,0,0-.106,1.372L.3,53.309a1.028,1.028,0,0,0-.3.731v7.039a.908.908,0,0,0,.908.908H7.948a1.028,1.028,0,0,0,.732-.3l7.728-7.728a1.057,1.057,0,0,0,1.372-.106l2.643-2.643a1.057,1.057,0,0,0,.106-1.372l1.648-1.648a1.034,1.034,0,0,0,0-1.463l-.45-.45,4.618-4.618a.5.5,0,0,1,.634-.062A22.638,22.638,0,0,0,55.358,6.63ZM14.532,41.648l5.807,5.807-1.087,1.087-5.807-5.807Zm2.5,10.38L15.954,50.95a.908.908,0,0,0-1.284,1.284l.446.446L7.624,60.171H1.817V54.364l7.491-7.491,2.362,2.362a.908.908,0,0,0,1.284-1.284l-3-3,1.569-1.569L18.6,50.459Z" transform="translate(0 0)"/>
      </g>
    </g>
  </g>
</svg>
