<svg xmlns="http://www.w3.org/2000/svg" xmlns:xlink="http://www.w3.org/1999/xlink" width="108" height="108" viewBox="0 0 108 108">
  <defs>
    <filter id="Path_904820" x="0" y="0" width="108" height="108" filterUnits="userSpaceOnUse">
      <feOffset dy="3" input="SourceAlpha"/>
      <feGaussianBlur stdDeviation="3" result="blur"/>
      <feFlood flood-opacity="0.161"/>
      <feComposite operator="in" in2="blur"/>
      <feComposite in="SourceGraphic"/>
    </filter>
  </defs>
  <g id="Group_1163010" data-name="Group 1163010" transform="translate(-187 -445)">
    <g id="Icono" transform="translate(-428.101 -4554.639)">
      <g transform="matrix(1, 0, 0, 1, 615.1, 4999.64)" filter="url(#Path_904820)">
        <g id="Path_904820-2" data-name="Path 904820" transform="translate(9 6)" fill="#edf3fc">
          <path d="M 45 88.5 C 39.12687683105469 88.5 33.43022537231445 87.35007476806641 28.06830024719238 85.08217620849609 C 22.88852500915527 82.89131164550781 18.23629951477051 79.75458526611328 14.2408504486084 75.75914764404297 C 10.24541282653809 71.76370239257812 7.108687400817871 67.11147308349609 4.917825222015381 61.93170166015625 C 2.649924993515015 56.56977462768555 1.5 50.87312316894531 1.5 45 C 1.5 39.12687683105469 2.649924993515015 33.43022537231445 4.917825222015381 28.06830024719238 C 7.108687400817871 22.88852500915527 10.24541282653809 18.23629951477051 14.2408504486084 14.2408504486084 C 18.23629951477051 10.24541282653809 22.88852500915527 7.108687400817871 28.06830024719238 4.917825222015381 C 33.43022537231445 2.649924993515015 39.12687683105469 1.5 45 1.5 C 50.87312316894531 1.5 56.56977462768555 2.649924993515015 61.93170166015625 4.917825222015381 C 67.11147308349609 7.108687400817871 71.76370239257812 10.24541282653809 75.75914764404297 14.2408504486084 C 79.75458526611328 18.23629951477051 82.89131164550781 22.88852500915527 85.08217620849609 28.06830024719238 C 87.35007476806641 33.43022537231445 88.5 39.12687683105469 88.5 45 C 88.5 50.87312316894531 87.35007476806641 56.56977462768555 85.08217620849609 61.93170166015625 C 82.89131164550781 67.11147308349609 79.75458526611328 71.76370239257812 75.75914764404297 75.75914764404297 C 71.76370239257812 79.75458526611328 67.11147308349609 82.89131164550781 61.93170166015625 85.08217620849609 C 56.56977462768555 87.35007476806641 50.87312316894531 88.5 45 88.5 Z" stroke="none"/>
          <path d="M 45 3 C 39.32871246337891 3 33.82865524291992 4.110054016113281 28.65262985229492 6.299339294433594 C 23.65165710449219 8.414573669433594 19.15968322753906 11.44334411621094 15.301513671875 15.301513671875 C 11.44334411621094 19.15968322753906 8.414573669433594 23.65165710449219 6.299339294433594 28.65262985229492 C 4.110054016113281 33.82865524291992 3 39.32871246337891 3 45 C 3 50.67128753662109 4.110054016113281 56.17134475708008 6.299339294433594 61.34737396240234 C 8.414573669433594 66.34834289550781 11.44334411621094 70.84031677246094 15.301513671875 74.698486328125 C 19.15968322753906 78.55665588378906 23.65165710449219 81.58542633056641 28.65262985229492 83.70066070556641 C 33.82865524291992 85.88994598388672 39.32871246337891 87 45 87 C 50.67128753662109 87 56.17134475708008 85.88994598388672 61.34737396240234 83.70066070556641 C 66.34834289550781 81.58542633056641 70.84031677246094 78.55665588378906 74.698486328125 74.698486328125 C 78.55665588378906 70.84031677246094 81.58542633056641 66.34834289550781 83.70066070556641 61.34737396240234 C 85.88994598388672 56.17134475708008 87 50.67128753662109 87 45 C 87 39.32871246337891 85.88994598388672 33.82865524291992 83.70066070556641 28.65262985229492 C 81.58542633056641 23.65165710449219 78.55665588378906 19.15968322753906 74.698486328125 15.301513671875 C 70.84031677246094 11.44334411621094 66.34834289550781 8.414573669433594 61.34737396240234 6.299339294433594 C 56.17134475708008 4.110054016113281 50.67128753662109 3 45 3 M 45 0 C 69.85281372070312 0 90 20.14718627929688 90 45 C 90 69.85281372070312 69.85281372070312 90 45 90 C 20.14718627929688 90 0 69.85281372070312 0 45 C 0 20.14718627929688 20.14718627929688 0 45 0 Z" stroke="none" fill="#192b44"/>
        </g>
      </g>
      <g id="profesor_1_" data-name="profesor (1)" transform="translate(637.101 5018.639)">
        <path id="Path_904157" data-name="Path 904157" d="M46.315,12.158V17a3.007,3.007,0,0,0-2.029-.781C31.1,16.215,31.1,11.143,31.1,11.143c0,5.072-5.072,5.072-5.072,5.072A3.007,3.007,0,0,0,24,17V12.158a11.158,11.158,0,1,1,22.315,0Z" transform="translate(0.301 0.014)" fill="#555a66"/>
        <path id="Path_904158" data-name="Path 904158" d="M35.158,1A11.152,11.152,0,0,0,24,12.158v4.057a11.158,11.158,0,0,1,22.315,0V12.158A11.152,11.152,0,0,0,35.158,1Z" transform="translate(0.301 0.014)" fill="#414952"/>
        <path id="Path_904159" data-name="Path 904159" d="M37.043,59.043h1.014V63.1H36.029A2.035,2.035,0,0,1,34,61.072V56a3.043,3.043,0,0,0,3.043,3.043Z" transform="translate(0.444 0.803)" fill="#cfa388"/>
        <path id="Path_904160" data-name="Path 904160" d="M37.043,59.043A3.043,3.043,0,0,1,34,56v2.029a3.043,3.043,0,0,0,3.043,3.043h1.014V59.043Z" transform="translate(0.444 0.803)" fill="#b2876d"/>
        <path id="Path_904161" data-name="Path 904161" d="M38.057,47v6.086H37.043A3.043,3.043,0,0,0,34,56.129v-7.1A2.035,2.035,0,0,1,36.029,47Z" transform="translate(0.444 0.674)" fill="#cfa388"/>
        <path id="Path_904162" data-name="Path 904162" d="M48.143,59v4.057H38V59H48.143Z" transform="translate(0.502 0.846)" fill="#966857"/>
        <path id="Path_904163" data-name="Path 904163" d="M48.143,59v2.029H38V59H48.143Z" transform="translate(0.502 0.846)" fill="#8d5c4d"/>
        <path id="Path_904164" data-name="Path 904164" d="M48.143,47v6.086H38V47Z" transform="translate(0.502 0.674)" fill="#966857"/>
        <path id="Path_904165" data-name="Path 904165" d="M35.1,36.043l-3.043,3.043L28,35.029V34.014L32.057,33Z" transform="translate(0.358 0.473)" fill="#bec3d2"/>
        <path id="Path_904166" data-name="Path 904166" d="M42.1,34.085v.943l-4.057,4.057L35,36.043,38.043,33Z" transform="translate(0.459 0.473)" fill="#bec3d2"/>
        <path id="Path_904167" data-name="Path 904167" d="M38.086,39.043l-2.029,2.029H34.029L32,39.043,35.043,36Z" transform="translate(0.416 0.516)" fill="#4ab8f7"/>
        <path id="Path_904168" data-name="Path 904168" d="M36.072,41l1.4,6.086h-1.4a2.035,2.035,0,0,0-2.029,2.029v7.1L31,54.186,34.043,41Z" transform="translate(0.401 0.588)" fill="#19cffc"/>
        <path id="Path_904169" data-name="Path 904169" d="M12.115,51A38,38,0,0,1,11.1,59.115S4,59.115,4,51a4.057,4.057,0,1,0,8.115,0Z" transform="translate(0.014 0.731)" fill="#bec3d2"/>
        <path id="Path_904170" data-name="Path 904170" d="M53,51h6.5c.061.4.122.8.172,1.217a6.049,6.049,0,0,1-1.664,5.031c-.527-4.22-5.011-4.22-5.011-4.22Z" transform="translate(0.717 0.731)" fill="#bec3d2"/>
        <path id="Path_904171" data-name="Path 904171" d="M48,59h5.072v4.057H48Z" transform="translate(0.645 0.846)" fill="#f2f6fc"/>
        <path id="Path_904172" data-name="Path 904172" d="M36.358,63.416H20.129V48.2L11,59.358a38,38,0,0,0,1.014-8.115l2.029-12.172,2.029-2.029L28.244,34v1.014L32.3,39.072,34.33,41.1,31.287,54.287l3.043,2.029v5.072A2.035,2.035,0,0,0,36.358,63.416Z" transform="translate(0.115 0.487)" fill="#dce1eb"/>
        <path id="Path_904173" data-name="Path 904173" d="M53.244,51.243v2.029H48.172V47.185H37.4L36,41.1l2.029-2.029,4.057-4.057V34.07l11.158,2.972s4.8,3.428,6.5,14.2Z" transform="translate(0.473 0.488)" fill="#dce1eb"/>
        <path id="Path_904174" data-name="Path 904174" d="M15.043,26v7.1H12V26Z" transform="translate(0.129 0.373)" fill="#faa68e"/>
        <path id="Path_904175" data-name="Path 904175" d="M6,30h6.086v3.043H6Z" transform="translate(0.043 0.43)" fill="#ffcdbe"/>
        <path id="Path_904176" data-name="Path 904176" d="M14.115,36.043a2.98,2.98,0,0,0-3.043,3.043H8.029L6,37.057V33h5.072a2.98,2.98,0,0,0,3.043,3.043Z" transform="translate(0.043 0.473)" fill="#faa68e"/>
        <path id="Path_904177" data-name="Path 904177" d="M16.072,33v4.057l-2.029,2.029H11a2.98,2.98,0,0,1,3.043-3.043A2.98,2.98,0,0,1,11,33Z" transform="translate(0.115 0.473)" fill="#ffbeaa"/>
        <path id="Path_904178" data-name="Path 904178" d="M14.143,39,12.115,51.172a4.057,4.057,0,0,1-8.115,0L8.057,39Z" transform="translate(0.014 0.559)" fill="#ffcdbe"/>
        <path id="Path_904179" data-name="Path 904179" d="M10.086,54.215a4.057,4.057,0,0,1-4.057-4.057L9.748,39H8.057L4,51.172a4.045,4.045,0,0,0,6.8,2.971A4.093,4.093,0,0,1,10.086,54.215Z" transform="translate(0.014 0.559)" fill="#ffbeaa"/>
        <path id="Path_904180" data-name="Path 904180" d="M53.272,53s4.483,0,5.011,4.22a6.014,6.014,0,0,1-4.372,1.866H37.043a3.043,3.043,0,1,1,0-6.086Z" transform="translate(0.444 0.76)" fill="#ffcdbe"/>
        <path id="Path_904181" data-name="Path 904181" d="M53.911,57.029H37.043A3.005,3.005,0,0,1,34.187,55a3.034,3.034,0,0,0,2.856,4.057H53.911a6.014,6.014,0,0,0,4.372-1.866,4.954,4.954,0,0,0-.469-1.59,6,6,0,0,1-3.9,1.428Z" transform="translate(0.445 0.789)" fill="#ffbeaa"/>
        <g id="Group_1143324" data-name="Group 1143324" transform="translate(23.287 16.229)">
          <path id="Path_904182" data-name="Path 904182" d="M38.086,30.48v2.556l-3.043,3.043L32,33.036V30.48a9.042,9.042,0,0,0,6.086,0Z" transform="translate(-22.871 -15.792)" fill="#faa68e"/>
          <path id="Path_904183" data-name="Path 904183" d="M24.014,16.781A3.008,3.008,0,0,1,26.043,16v6.086A3.043,3.043,0,0,1,23,19.043,2.982,2.982,0,0,1,24.014,16.781Z" transform="translate(-23 -16)" fill="#faa68e"/>
          <path id="Path_904184" data-name="Path 904184" d="M44,16a3.043,3.043,0,0,1,0,6.086Z" transform="translate(-22.699 -16)" fill="#faa68e"/>
        </g>
        <path id="Path_904185" data-name="Path 904185" d="M44.258,16.072v6.086a9.129,9.129,0,0,1-18.258,0V16.072s5.072,0,5.072-5.072C31.072,11,31.072,16.072,44.258,16.072Z" transform="translate(0.33 0.158)" fill="#ffcdbe"/>
        <path id="Path_904186" data-name="Path 904186" d="M31.072,11c0,5.072-5.072,5.072-5.072,5.072V18.1s5.072,0,5.072-5.072c0,0,0,5.072,13.186,5.072V16.072C31.072,16.072,31.072,11,31.072,11Z" transform="translate(0.33 0.158)" fill="#ffbeaa"/>
        <path id="Path_904187" data-name="Path 904187" d="M35.143,32.315A10.155,10.155,0,0,1,25,22.172V16.086a1.014,1.014,0,0,1,1.014-1.014,3.905,3.905,0,0,0,4.057-4.057,1.014,1.014,0,0,1,2.029,0c0,.008.417,4.057,12.172,4.057a1.014,1.014,0,0,1,1.014,1.014v6.086A10.155,10.155,0,0,1,35.143,32.315Zm-8.115-15.3v5.158a8.115,8.115,0,0,0,16.229,0V17.09c-6.881-.14-10.174-1.708-11.749-3.224A5.9,5.9,0,0,1,27.029,17.014Z" transform="translate(0.315 0.143)"/>
        <path id="Path_904188" data-name="Path 904188" d="M44,23.115V21.086a2.029,2.029,0,0,0,0-4.057V15a4.057,4.057,0,1,1,0,8.115Z" transform="translate(0.588 0.215)"/>
        <path id="Path_904189" data-name="Path 904189" d="M26.057,23.115a4.057,4.057,0,1,1,0-8.115v2.029a2.029,2.029,0,1,0,0,4.057Z" transform="translate(0.272 0.215)"/>
        <path id="Path_904190" data-name="Path 904190" d="M47.344,17.244H45.315V12.172a10.143,10.143,0,1,0-20.287,0v5.072H23V12.172a12.172,12.172,0,1,1,24.344,0Z" transform="translate(0.287)"/>
        <path id="Path_904191" data-name="Path 904191" d="M35.057,27.057A4.057,4.057,0,0,1,31,23h2.029a2.029,2.029,0,0,0,4.057,0h2.029A4.057,4.057,0,0,1,35.057,27.057Z" transform="translate(0.401 0.33)"/>
        <path id="Path_904192" data-name="Path 904192" d="M31,18h2.029v2.029H31Z" transform="translate(0.401 0.258)"/>
        <path id="Path_904193" data-name="Path 904193" d="M37,18h2.029v2.029H37Z" transform="translate(0.487 0.258)"/>
        <path id="Path_904194" data-name="Path 904194" d="M35.057,37.1a1.014,1.014,0,0,1-.717-.3L31.3,33.76a1.014,1.014,0,0,1-.3-.717V30h2.029v2.623l2.029,2.029,2.029-2.029V30h2.029v3.043a1.014,1.014,0,0,1-.3.717L35.774,36.8A1.014,1.014,0,0,1,35.057,37.1Z" transform="translate(0.401 0.43)"/>
        <path id="Path_904195" data-name="Path 904195" d="M53.929,60.4H37.057a4.057,4.057,0,1,1,0-8.115H52.272V46.2H54.3v7.1a1.014,1.014,0,0,1-1.014,1.014H37.057a2.029,2.029,0,1,0,0,4.057H53.929a5.058,5.058,0,0,0,3.8-1.724,5.11,5.11,0,0,0,1.226-4.032c-1.31-10.051-5.367-13.96-6.14-14.62l-15.012-4,.523-1.96,15.215,4.057a1.014,1.014,0,0,1,.328.154c.225.161,5.525,4.073,7.093,16.109A7.115,7.115,0,0,1,53.929,60.4Z" transform="translate(0.43 0.459)"/>
        <path id="Path_904196" data-name="Path 904196" d="M48.215,64.258H36.043A3.043,3.043,0,0,1,33,61.215V49.043A3.043,3.043,0,0,1,36.043,46H48.215a1.014,1.014,0,0,1,1.014,1.014V53.1H47.2V48.029H36.043a1.014,1.014,0,0,0-1.014,1.014V61.215a1.014,1.014,0,0,0,1.014,1.014H47.2V59.186h2.029v4.057A1.014,1.014,0,0,1,48.215,64.258Z" transform="translate(0.43 0.66)"/>
        <path id="Path_904197" data-name="Path 904197" d="M37,47h2.029v6.086H37Z" transform="translate(0.487 0.674)"/>
        <path id="Path_904198" data-name="Path 904198" d="M37,59h2.029v4.057H37Z" transform="translate(0.487 0.846)"/>
        <path id="Path_904199" data-name="Path 904199" d="M53.072,64.072H48V62.043h4.057V59h2.029v4.057A1.014,1.014,0,0,1,53.072,64.072Z" transform="translate(0.645 0.846)"/>
        <path id="Path_904200" data-name="Path 904200" d="M8.072,56.258A5.078,5.078,0,0,1,3,51.186a1.014,1.014,0,0,1,.052-.321L7.109,38.694A1.014,1.014,0,0,1,8.072,38h6.086a1.014,1.014,0,0,1,1,1.182L13.143,51.275A5.077,5.077,0,0,1,8.072,56.258ZM5.029,51.34a3.044,3.044,0,0,0,6.086-.153.932.932,0,0,1,.014-.167l1.831-10.99H8.8Z" transform="translate(0 0.545)"/>
        <path id="Path_904201" data-name="Path 904201" d="M14.775,39.817,13.34,38.383l1.731-1.731v-.594a1.014,1.014,0,0,1-1.014,1.014A1.909,1.909,0,0,0,12.029,39.1H10a3.845,3.845,0,0,1,1.288-3.038A4.287,4.287,0,0,1,10,33.014,1.014,1.014,0,0,1,11.014,32h5.072A1.014,1.014,0,0,1,17.1,33.014v4.057a1.014,1.014,0,0,1-.3.717Zm-2.519-5.789a1.813,1.813,0,0,0,1.8,1.014,1.014,1.014,0,0,1,1.014,1.014V34.029Z" transform="translate(0.1 0.459)"/>
        <path id="Path_904202" data-name="Path 904202" d="M16.072,33.115H14.043V27.029H13.029v6.086H11v-7.1A1.014,1.014,0,0,1,12.014,25h3.043a1.014,1.014,0,0,1,1.014,1.014Z" transform="translate(0.115 0.358)"/>
        <path id="Path_904203" data-name="Path 904203" d="M11.086,34.072H6.014A1.014,1.014,0,0,1,5,33.057V30.014A1.014,1.014,0,0,1,6.014,29H12.1v2.029H7.029v1.014h4.057Z" transform="translate(0.029 0.416)"/>
        <path id="Path_904204" data-name="Path 904204" d="M7.326,39.8,5.3,37.774a1.014,1.014,0,0,1-.3-.717V33H7.029v3.637L8.76,38.369Z" transform="translate(0.029 0.473)"/>
        <path id="Path_904205" data-name="Path 904205" d="M57,57.36c-.4-3.206-3.641-3.331-4-3.331V52a5.9,5.9,0,0,1,6.017,5.108Z" transform="translate(0.717 0.746)"/>
        <path id="Path_904206" data-name="Path 904206" d="M53,50h7.1v2.029H53Z" transform="translate(0.717 0.717)"/>
        <path id="Path_904207" data-name="Path 904207" d="M0,0H16.728V2.029H0Z" transform="translate(15.951 36.538) rotate(-14.064)"/>
        <path id="Path_904208" data-name="Path 904208" d="M36.473,64.244H20.244a1.014,1.014,0,0,1-1.014-1.014V50.854L11.9,59.813a1.014,1.014,0,0,1-.785.373c-.081,0-8.115-.1-8.115-9.129H5.029c0,5.915,4.206,6.9,5.633,7.068l8.8-10.752a1.014,1.014,0,0,1,1.8.641v14.2H36.473Z" transform="translate(0 0.674)"/>
        <path id="Path_904209" data-name="Path 904209" d="M12,59.361l-1.968-.493A37.313,37.313,0,0,0,11.014,51h2.029A38.7,38.7,0,0,1,12,59.361Z" transform="translate(0.101 0.731)"/>
        <path id="Path_904210" data-name="Path 904210" d="M38.158,40.086a1.014,1.014,0,0,1-.717-.3l-2.326-2.326-2.326,2.326a1.014,1.014,0,0,1-1.434,0L27.3,35.731a1.014,1.014,0,0,1-.3-.717V34h2.029v.594l3.043,3.043L34.4,35.312a1.014,1.014,0,0,1,1.434,0l2.326,2.326L41.2,34.594V34h2.029v1.014a1.014,1.014,0,0,1-.3.717l-4.057,4.058A1.014,1.014,0,0,1,38.158,40.086Z" transform="translate(0.344 0.487)"/>
        <path id="Path_904211" data-name="Path 904211" d="M36.067,42.053H34.039a1.014,1.014,0,0,1-.717-.3l-2.029-2.029,1.434-1.434,1.731,1.731h1.189l1.731-1.731,1.434,1.434-2.029,2.029a1.014,1.014,0,0,1-.717.3Z" transform="translate(0.406 0.549)"/>
        <path id="Path_904212" data-name="Path 904212" d="M33.494,57.062l-3.043-2.029a1.014,1.014,0,0,1-.426-1.072l3.043-13.186,1.978.456-2.886,12.5,2.46,1.64Z" transform="translate(0.387 0.585)"/>
        <path id="Path_904213" data-name="Path 904213" d="M0,0H2.029V6.245H0Z" transform="translate(35.496 41.839) rotate(-12.939)"/>
        <path id="Path_904214" data-name="Path 904214" d="M13,17h2.029v6.086H13Z" transform="translate(0.143 0.244)"/>
        <path id="Path_904215" data-name="Path 904215" d="M0,0H5.738V2.029H0Z" transform="translate(15.466 22.612) rotate(-45)"/>
        <path id="Path_904216" data-name="Path 904216" d="M0,0H2.029V5.738H0Z" transform="translate(7.352 19.989) rotate(-45)"/>
      </g>
    </g>
  </g>
</svg>
