<svg xmlns="http://www.w3.org/2000/svg" xmlns:xlink="http://www.w3.org/1999/xlink" width="108" height="108" viewBox="0 0 108 108">
  <defs>
    <filter id="Path_904820" x="0" y="0" width="108" height="108" filterUnits="userSpaceOnUse">
      <feOffset dy="3" input="SourceAlpha"/>
      <feGaussianBlur stdDeviation="3" result="blur"/>
      <feFlood flood-opacity="0.161"/>
      <feComposite operator="in" in2="blur"/>
      <feComposite in="SourceGraphic"/>
    </filter>
  </defs>
  <g id="Group_1164100" data-name="Group 1164100" transform="translate(-604.877 -463)">
    <g id="Group_1163925" data-name="Group 1163925">
      <g id="Group_1163040" data-name="Group 1163040" transform="translate(-0.123 -685)">
        <g id="Group_1160503" data-name="Group 1160503" transform="translate(401 -5301)">
          <g id="Icono" transform="translate(213 6455)">
            <g transform="matrix(1, 0, 0, 1, -9, -6)" filter="url(#Path_904820)">
              <g id="Path_904820-2" data-name="Path 904820" transform="translate(9 6)" fill="#ebe9f0">
                <path d="M 45 88.5 C 39.12687683105469 88.5 33.43022537231445 87.35007476806641 28.06830024719238 85.08217620849609 C 22.88852500915527 82.89131164550781 18.23629951477051 79.75458526611328 14.2408504486084 75.75914764404297 C 10.24541282653809 71.76370239257812 7.108687400817871 67.11147308349609 4.917825222015381 61.93170166015625 C 2.649924993515015 56.56977462768555 1.5 50.87312316894531 1.5 45 C 1.5 39.12687683105469 2.649924993515015 33.43022537231445 4.917825222015381 28.06830024719238 C 7.108687400817871 22.88852500915527 10.24541282653809 18.23629951477051 14.2408504486084 14.2408504486084 C 18.23629951477051 10.24541282653809 22.88852500915527 7.108687400817871 28.06830024719238 4.917825222015381 C 33.43022537231445 2.649924993515015 39.12687683105469 1.5 45 1.5 C 50.87312316894531 1.5 56.56977462768555 2.649924993515015 61.93170166015625 4.917825222015381 C 67.11147308349609 7.108687400817871 71.76370239257812 10.24541282653809 75.75914764404297 14.2408504486084 C 79.75458526611328 18.23629951477051 82.89131164550781 22.88852500915527 85.08217620849609 28.06830024719238 C 87.35007476806641 33.43022537231445 88.5 39.12687683105469 88.5 45 C 88.5 50.87312316894531 87.35007476806641 56.56977462768555 85.08217620849609 61.93170166015625 C 82.89131164550781 67.11147308349609 79.75458526611328 71.76370239257812 75.75914764404297 75.75914764404297 C 71.76370239257812 79.75458526611328 67.11147308349609 82.89131164550781 61.93170166015625 85.08217620849609 C 56.56977462768555 87.35007476806641 50.87312316894531 88.5 45 88.5 Z" stroke="none"/>
                <path d="M 45 3 C 39.32871246337891 3 33.82865524291992 4.110054016113281 28.65262985229492 6.299339294433594 C 23.65165710449219 8.414573669433594 19.15968322753906 11.44334411621094 15.301513671875 15.301513671875 C 11.44334411621094 19.15968322753906 8.414573669433594 23.65165710449219 6.299339294433594 28.65262985229492 C 4.110054016113281 33.82865524291992 3 39.32871246337891 3 45 C 3 50.67128753662109 4.110054016113281 56.17134475708008 6.299339294433594 61.34737396240234 C 8.414573669433594 66.34834289550781 11.44334411621094 70.84031677246094 15.301513671875 74.698486328125 C 19.15968322753906 78.55665588378906 23.65165710449219 81.58542633056641 28.65262985229492 83.70066070556641 C 33.82865524291992 85.88994598388672 39.32871246337891 87 45 87 C 50.67128753662109 87 56.17134475708008 85.88994598388672 61.34737396240234 83.70066070556641 C 66.34834289550781 81.58542633056641 70.84031677246094 78.55665588378906 74.698486328125 74.698486328125 C 78.55665588378906 70.84031677246094 81.58542633056641 66.34834289550781 83.70066070556641 61.34737396240234 C 85.88994598388672 56.17134475708008 87 50.67128753662109 87 45 C 87 39.32871246337891 85.88994598388672 33.82865524291992 83.70066070556641 28.65262985229492 C 81.58542633056641 23.65165710449219 78.55665588378906 19.15968322753906 74.698486328125 15.301513671875 C 70.84031677246094 11.44334411621094 66.34834289550781 8.414573669433594 61.34737396240234 6.299339294433594 C 56.17134475708008 4.110054016113281 50.67128753662109 3 45 3 M 45 0 C 69.85281372070312 0 90 20.14718627929688 90 45 C 90 69.85281372070312 69.85281372070312 90 45 90 C 20.14718627929688 90 0 69.85281372070312 0 45 C 0 20.14718627929688 20.14718627929688 0 45 0 Z" stroke="none" fill="#453179"/>
              </g>
            </g>
          </g>
        </g>
      </g>
      <g id="inteligencia-emocional_7_" data-name="inteligencia-emocional (7)" transform="translate(619.886 486.315)">
        <g id="Group_1163924" data-name="Group 1163924" transform="translate(9.83 -3.315)">
          <g id="Group_1163920" data-name="Group 1163920" transform="translate(0 2.312)">
            <path id="Path_998357" data-name="Path 998357" d="M32.666,65.079v8.369h20.1V64.494C52.678,56.345,64.5,53.139,63.637,34.361c-.483-10.51-7-19.1-21.82-18.309-11.522.616-19.051,9.088-19.051,20.159L16.211,48.246a1.685,1.685,0,0,0,1.453,2.507h5.1v2.868c0,5.442,2.877,10.575,9.329,10.861a.6.6,0,0,1,.572.6Z" transform="translate(-16 -16.001)" fill="#efc7a4" fill-rule="evenodd"/>
            <path id="Path_998358" data-name="Path 998358" d="M140.354,119.824c-1.255-1.005-1.5,0-3.106,0a4.048,4.048,0,0,1-.178-8.091,4.049,4.049,0,0,1,5.977-3.44,4.555,4.555,0,0,1,7.72-.883,5.5,5.5,0,0,1,6.269,8.889c1.1,2.106.207,4.1-1.886,5.078-3.237,1.507-.867,4.806-.867,4.806H149.81a5.051,5.051,0,0,0-2.9-4.864A6.349,6.349,0,0,1,140.354,119.824Z" transform="translate(-119.174 -94.928)" fill="#f76c82" fill-rule="evenodd"/>
          </g>
          <g id="Group_1163921" data-name="Group 1163921" transform="translate(41.205 43.528)">
            <circle id="Ellipse_12516" data-name="Ellipse 12516" cx="7.48" cy="7.48" r="7.48" transform="translate(0 2.827) rotate(-10.894)" fill="#fdcd56"/>
          </g>
          <g id="Group_1163922" data-name="Group 1163922" transform="translate(40.2 0)">
            <circle id="Ellipse_12517" data-name="Ellipse 12517" cx="7.48" cy="7.48" r="7.48" transform="translate(0 5.73) rotate(-22.514)" fill="#fdcd56"/>
          </g>
          <g id="Group_1163923" data-name="Group 1163923" transform="translate(40.207 21.246)">
            <circle id="Ellipse_12518" data-name="Ellipse 12518" cx="7.48" cy="7.48" r="7.48" transform="translate(0 5.73) rotate(-22.514)" fill="#fdcd56"/>
          </g>
        </g>
        <path id="Path_998359" data-name="Path 998359" d="M63.02,41.734a.836.836,0,0,1-.839.838h-4.77a.838.838,0,1,1,0-1.675h4.77A.835.835,0,0,1,63.02,41.734Zm1.436-5.507a.839.839,0,0,1,.839.837,2.148,2.148,0,1,1-4.3,0,.839.839,0,0,1,1.678,0,.47.47,0,1,0,.941,0A.839.839,0,0,1,64.456,36.227Zm-8.008,2.986A2.15,2.15,0,0,1,54.3,37.064a.836.836,0,1,1,1.673,0,.473.473,0,1,0,.946,0,.839.839,0,0,1,1.678,0,2.155,2.155,0,0,1-2.151,2.149ZM59.8,45.2a6.642,6.642,0,1,0-6.645-6.642A6.648,6.648,0,0,0,59.8,45.2Zm-9.979,4.1a45.334,45.334,0,0,0,3.587-5.421,8.314,8.314,0,0,1,3.261-13.025c.011-.851.006-1.73-.039-2.621a24.43,24.43,0,0,0-.389-3.4,8.328,8.328,0,0,1-4.759-7.516,8.608,8.608,0,0,1,.158-1.628c-3.655-3.665-9.016-5.337-15.949-4.964-10.751.574-18.258,8.52-18.258,19.322a.835.835,0,0,1-.1.4L10.775,42.484a.883.883,0,0,0,.017.868.805.805,0,0,0,.7.4h5.1a.835.835,0,0,1,.839.837v2.868c0,4.631,2.377,10.037,9.061,10.037a.835.835,0,0,1,.839.837v8.116H45.759V58.332C45.719,54.868,47.623,52.289,49.819,49.3ZM59.8,10.675a6.643,6.643,0,1,1-6.645,6.643A6.649,6.649,0,0,1,59.8,10.675Zm0,19.568a8.421,8.421,0,0,0-1.453.129c.006-.725-.006-1.465-.045-2.213a26.445,26.445,0,0,0-.259-2.712A8.318,8.318,0,1,0,52.207,13.92,17.9,17.9,0,0,0,46,10.307,27.361,27.361,0,0,0,35.6,9.053a20.666,20.666,0,0,0-14.411,6.425,21.181,21.181,0,0,0-5.429,14.356L9.3,41.683a2.54,2.54,0,0,0,.045,2.524A2.475,2.475,0,0,0,11.5,45.428h4.263v2.03a12.863,12.863,0,0,0,2.562,8.062,9.862,9.862,0,0,0,7.338,3.624v8.142a.834.834,0,0,0,.833.837h20.1a.839.839,0,0,0,.839-.837V58.323c-.028-2.911,1.633-5.168,3.739-8.026a50,50,0,0,0,3.486-5.2A8.316,8.316,0,1,0,59.8,30.244Zm0-9.734a1.908,1.908,0,0,0,1.656-.971.836.836,0,1,1,1.459.818,3.571,3.571,0,0,1-6.234,0,.839.839,0,1,1,1.464-.818A1.9,1.9,0,0,0,59.8,20.51ZM61,15.821a2.148,2.148,0,0,0,4.3,0,.839.839,0,0,0-1.678,0,.47.47,0,1,1-.941,0,.839.839,0,0,0-1.678,0Zm-6.7,0a.836.836,0,1,1,1.673,0,.473.473,0,0,0,.946,0,.839.839,0,0,1,1.678,0,2.148,2.148,0,0,1-4.3,0Zm8.611,47.6a.837.837,0,0,1-.321,1.14.824.824,0,0,1-.405.106.837.837,0,0,1-.732-.428,1.9,1.9,0,0,0-3.311,0,.839.839,0,0,1-1.464-.819,3.571,3.571,0,0,1,6.234,0Zm-6.465-2.969A2.15,2.15,0,0,1,54.3,58.308a.836.836,0,1,1,1.673,0,.473.473,0,0,0,.946,0,.839.839,0,0,1,1.678,0,2.155,2.155,0,0,1-2.151,2.149Zm8.008-2.987a.839.839,0,0,1,.839.838,2.148,2.148,0,1,1-4.3,0,.839.839,0,0,1,1.678,0,.47.47,0,1,0,.941,0,.839.839,0,0,1,.839-.838ZM59.8,66.448a6.642,6.642,0,1,1,6.64-6.642A6.649,6.649,0,0,1,59.8,66.448Zm0-14.961a8.318,8.318,0,1,1-8.318,8.318A8.329,8.329,0,0,1,59.8,51.487ZM47.116,30.6a.836.836,0,0,0-.163,1,2.751,2.751,0,0,1,.253,2.167,3.187,3.187,0,0,1-1.751,1.764,3.508,3.508,0,0,0-2.084,2.284,4.1,4.1,0,0,0,.2,2.444H41.276A5.628,5.628,0,0,0,37.9,35.461a.841.841,0,0,0-.552-.041,5.438,5.438,0,0,1-5.6-1.165c-.073-.061-.146-.119-.214-.175a2.235,2.235,0,0,0-2.523-.411,2.933,2.933,0,0,1-1.1.228,3.21,3.21,0,0,1-.146-6.417.844.844,0,0,0,.805-.813A3.208,3.208,0,0,1,33.3,23.94a.842.842,0,0,0,.665.059.83.83,0,0,0,.5-.442,3.718,3.718,0,0,1,6.3-.721.836.836,0,0,0,1.036.231A4.66,4.66,0,0,1,47.116,30.6Zm-3.21-9.711a6.343,6.343,0,0,1,6.336,6.333,6.258,6.258,0,0,1-1.554,4.156,4.224,4.224,0,0,1,.1,2.922,4.814,4.814,0,0,1-2.63,2.744,1.912,1.912,0,0,0-1.166,1.185,3.38,3.38,0,0,0,.631,2.376.838.838,0,0,1-.681,1.323H40.465a.838.838,0,0,1-.614-.268.848.848,0,0,1-.22-.634,4.227,4.227,0,0,0-2.151-3.914,7.011,7.011,0,0,1-6.8-1.564l-.2-.162c-.405-.323-.434-.314-.907-.143a4.567,4.567,0,0,1-1.673.327,4.886,4.886,0,0,1-.946-9.681,4.863,4.863,0,0,1,4.809-4.015,4.915,4.915,0,0,1,1.577.26,5.417,5.417,0,0,1,4.488-2.406,5.345,5.345,0,0,1,3.807,1.575,6.286,6.286,0,0,1,2.264-.415Z" transform="translate(0 -10.841)" fill-rule="evenodd"/>
      </g>
    </g>
  </g>
</svg>
