<svg xmlns="http://www.w3.org/2000/svg" xmlns:xlink="http://www.w3.org/1999/xlink" width="110" height="110" viewBox="0 0 110 110">
  <defs>
    <filter id="Path_982547" x="0" y="0" width="110" height="110" filterUnits="userSpaceOnUse">
      <feOffset dy="3" input="SourceAlpha"/>
      <feGaussianBlur stdDeviation="3" result="blur"/>
      <feFlood flood-opacity="0.161"/>
      <feComposite operator="in" in2="blur"/>
      <feComposite in="SourceGraphic"/>
    </filter>
  </defs>
  <g id="Group_1164090" data-name="Group 1164090" transform="translate(-1168 -5303)">
    <g id="Group_1163839" data-name="Group 1163839">
      <g id="Group_1163018" data-name="Group 1163018" transform="translate(53 964)">
        <g id="Group_1157017" data-name="Group 1157017" transform="translate(0 3549)">
          <g id="Group_1155793" data-name="Group 1155793" transform="translate(-0.999 -3894)">
            <g id="Group_1154704" data-name="Group 1154704" transform="translate(0 1466)">
              <g id="Group_1150790" data-name="Group 1150790" transform="translate(3 2320)">
                <g id="Group_1154214" data-name="Group 1154214" transform="translate(79 -5809)">
                  <g id="Group_1152583" data-name="Group 1152583" transform="translate(1043 6713)">
                    <g id="Group_1146973" data-name="Group 1146973" transform="translate(0 0)">
                      <g id="Group_1146954" data-name="Group 1146954">
                        <g transform="matrix(1, 0, 0, 1, -9, -6)" filter="url(#Path_982547)">
                          <g id="Path_982547-2" data-name="Path 982547" transform="translate(9 6)" fill="#ebe9f0">
                            <path d="M 46 90.49987030029297 C 39.99187850952148 90.49987030029297 34.16426849365234 89.32350921630859 28.67905426025391 87.00345611572266 C 23.38019943237305 84.76224517822266 18.62104034423828 81.55341339111328 14.53374671936035 77.46613311767578 C 10.44646644592285 73.37885284423828 7.237639904022217 68.61969757080078 4.996413230895996 63.32085418701172 C 2.676359891891479 57.83565521240234 1.5 52.008056640625 1.5 45.99993515014648 C 1.5 39.99181365966797 2.676359891891479 34.16421508789062 4.996413230895996 28.67901420593262 C 7.237639904022217 23.38017463684082 10.44646644592285 18.62101554870605 14.53374671936035 14.53373527526855 C 18.62104034423828 10.44645500183105 23.38019943237305 7.23762845993042 28.67905426025391 4.996415138244629 C 34.16426849365234 2.676361799240112 39.99187850952148 1.500001788139343 46 1.500001788139343 C 52.00812149047852 1.500001788139343 57.83573150634766 2.676361799240112 63.32094573974609 4.996415138244629 C 68.61979675292969 7.23762845993042 73.37895965576172 10.44645500183105 77.46625518798828 14.53373527526855 C 81.55353546142578 18.62101554870605 84.76235961914062 23.38017463684082 87.00358581542969 28.67901420593262 C 89.32363891601562 34.16421508789062 90.5 39.99181365966797 90.5 45.99993515014648 C 90.5 52.008056640625 89.32363891601562 57.83565521240234 87.00358581542969 63.32085418701172 C 84.76235961914062 68.61969757080078 81.55353546142578 73.37885284423828 77.46625518798828 77.46613311767578 C 73.37895965576172 81.55341339111328 68.61979675292969 84.76224517822266 63.32094573974609 87.00345611572266 C 57.83573150634766 89.32350921630859 52.00812149047852 90.49987030029297 46 90.49987030029297 Z" stroke="none"/>
                            <path d="M 46 2.999992370605469 C 40.1937141418457 2.999992370605469 34.56269836425781 4.136489868164062 29.26337051391602 6.377906799316406 C 24.14332580566406 8.543502807617188 19.54441070556641 11.64437866210938 15.59439849853516 15.59437561035156 C 11.64440155029297 19.54439544677734 8.54351806640625 24.14329528808594 6.377914428710938 29.26333618164062 C 4.136497497558594 34.56264877319336 3 40.19366455078125 3 45.99993515014648 C 3 51.80620574951172 4.136497497558594 57.43720626831055 6.377914428710938 62.73651885986328 C 8.54351806640625 67.8565673828125 11.64440155029297 72.45545959472656 15.59439849853516 76.40547943115234 C 19.54441070556641 80.35547637939453 24.14332580566406 83.45635223388672 29.26337051391602 85.6219482421875 C 34.56269836425781 87.86336517333984 40.1937141418457 88.99986267089844 46 88.99986267089844 C 51.8062858581543 88.99986267089844 57.43730163574219 87.86336517333984 62.73661422729492 85.6219482421875 C 67.85667419433594 83.45635223388672 72.45557403564453 80.35547637939453 76.40558624267578 76.40547943115234 C 80.35559844970703 72.45545959472656 83.45647430419922 67.8565673828125 85.6220703125 62.73651885986328 C 87.86350250244141 57.43720626831055 89 51.80620574951172 89 45.99993515014648 C 89 40.19366455078125 87.86350250244141 34.56264877319336 85.6220703125 29.26333618164062 C 83.45647430419922 24.14329528808594 80.35559844970703 19.54439544677734 76.40558624267578 15.59437561035156 C 72.45557403564453 11.64437866210938 67.85667419433594 8.543502807617188 62.73661422729492 6.377906799316406 C 57.43730163574219 4.136489868164062 51.8062858581543 2.999992370605469 46 2.999992370605469 M 46 -7.62939453125e-06 C 71.40509033203125 -7.62939453125e-06 92 20.59486389160156 92 45.99993515014648 C 92 71.40499114990234 71.40509033203125 91.99986267089844 46 91.99986267089844 C 20.59490203857422 91.99986267089844 0 71.40499114990234 0 45.99993515014648 C 0 20.59486389160156 20.59490203857422 -7.62939453125e-06 46 -7.62939453125e-06 Z" stroke="none" fill="#453179"/>
                          </g>
                        </g>
                      </g>
                    </g>
                  </g>
                </g>
              </g>
            </g>
          </g>
        </g>
      </g>
      <g id="plan-estrategico" transform="translate(1178 5310)">
        <path id="Path_998205" data-name="Path 998205" d="M45.824,209.682a9.6,9.6,0,0,0-.733-1.727l2.146-2.146-3.873-3.873-2.146,2.146a9.6,9.6,0,0,0-1.727-.733V200H33.682v3.349a9.6,9.6,0,0,0-1.727.733l-2.146-2.146-3.873,3.873,2.146,2.146a9.6,9.6,0,0,0-.733,1.727H24v5.809h3.349a9.6,9.6,0,0,0,.733,1.727l-2.146,2.146,3.873,3.873,2.146-2.146a9.6,9.6,0,0,0,1.727.733v3.349h5.809v-3.349a9.6,9.6,0,0,0,1.727-.733l2.146,2.146,3.873-3.873-2.146-2.146a9.6,9.6,0,0,0,.733-1.727h3.349v-5.809Z" transform="translate(-7.032 -161.732)" fill="#3397e8"/>
        <circle id="Ellipse_12458" data-name="Ellipse 12458" cx="7" cy="7" r="7" transform="translate(22.456 43.456)" fill="#e9eef2"/>
        <ellipse id="Ellipse_12459" data-name="Ellipse 12459" cx="3" cy="3.5" rx="3" ry="3.5" transform="translate(26.456 47.456)" fill="#2978b8"/>
        <path id="Path_998206" data-name="Path 998206" d="M174.726,80.153a3.873,3.873,0,0,0,3.873-3.873V24H136V80.153Z" transform="translate(-105.478 -7.032)" fill="#e9eef2"/>
        <path id="Path_998207" data-name="Path 998207" d="M48.745,42.443a7.746,7.746,0,0,0-2-3.439L32.772,25.027A3.506,3.506,0,0,0,30.293,24h0a3.506,3.506,0,0,0-2.479,1.027l-2.787,2.787a3.506,3.506,0,0,0,0,4.958L39,46.75a7.745,7.745,0,0,0,3.439,2l8.665,2.363Z" transform="translate(-7.032 -7.032)" fill="#fbe9d8"/>
        <path id="Path_998208" data-name="Path 998208" d="M27.814,25.027l-2.787,2.787A3.506,3.506,0,0,0,24,30.293h0a3.506,3.506,0,0,0,1.027,2.479l2.846,2.846,7.745-7.745-2.846-2.846A3.506,3.506,0,0,0,30.293,24h0a3.506,3.506,0,0,0-2.479,1.027Z" transform="translate(-7.032 -7.032)" fill="#eb423f"/>
        <path id="Path_998209" data-name="Path 998209" d="M104,408h38.726v5.809a3.873,3.873,0,0,0,3.873,3.873H107.873A3.873,3.873,0,0,1,104,413.809Z" transform="translate(-77.35 -344.56)" fill="#dadcde"/>
        <rect id="Rectangle_409867" data-name="Rectangle 409867" width="9" height="18" transform="translate(58.456 22.456)" fill="#dadcde"/>
        <path id="Path_998210" data-name="Path 998210" d="M197.72,202.145l6.085,1.66-1.66-6.085Z" transform="translate(-159.728 -159.728)" fill="#414649"/>
        <path id="Path_998211" data-name="Path 998211" d="M56,63.745,67.131,74.877l0,0,7.745-7.745,0,0L63.745,56Z" transform="translate(-35.159 -35.159)" fill="#3397e8"/>
        <rect id="Rectangle_409868" data-name="Rectangle 409868" width="4.108" height="16.43" transform="translate(22.777 25.682) rotate(-45)" fill="#2978b8"/>
        <circle id="Ellipse_12460" data-name="Ellipse 12460" cx="2" cy="2" r="2" transform="translate(50.456 50.456)" fill="#3397e8"/>
        <rect id="Rectangle_409869" data-name="Rectangle 409869" width="9" height="8" transform="translate(36.456 47.456)" fill="#eb423f"/>
        <rect id="Rectangle_409870" data-name="Rectangle 409870" width="10" height="8" transform="translate(57.456 47.456)" fill="#3dc285"/>
        <rect id="Rectangle_409871" data-name="Rectangle 409871" width="10" height="4" transform="translate(46.456 59.456)" fill="#ffd33a"/>
        <rect id="Rectangle_409872" data-name="Rectangle 409872" width="10.954" height="2.738" transform="translate(18.904 26.65) rotate(-45)" fill="#ffd33a"/>
        <path id="Path_998212" data-name="Path 998212" d="M73.122,16h-42.6a.968.968,0,0,0-.968.968V20.44L26.425,17.31a4.474,4.474,0,0,0-6.328,0L17.311,20.1a4.474,4.474,0,0,0,0,6.328L28.185,37.3H26.65a.968.968,0,0,0-.968.968v2.663q-.287.112-.568.241l-1.652-1.652a.968.968,0,0,0-1.369,0L18.22,43.392a.968.968,0,0,0,0,1.369l1.653,1.652q-.129.28-.241.568H16.968a.968.968,0,0,0-.968.968v5.809a.968.968,0,0,0,.968.968h2.663q.112.287.241.568L18.22,56.946a.968.968,0,0,0,0,1.369l3.873,3.873a.968.968,0,0,0,1.369,0l1.652-1.652q.28.129.568.241v8.472a4.846,4.846,0,0,0,4.841,4.841H69.249a4.846,4.846,0,0,0,4.841-4.841V16.968A.968.968,0,0,0,73.122,16ZM38.351,31.975,37.3,33.026l-9.765-9.765,1.051-1.051ZM42.7,42.7l-2.842-.775,2.067-2.067ZM37.7,41.335l-2.038-.556a6.789,6.789,0,0,1-2.272-1.11l6.276-6.276a6.789,6.789,0,0,1,1.11,2.272l.556,2.038ZM20.274,26.65l6.376-6.376.567.567-6.376,6.376Zm5.892-2.019,9.765,9.765L34.4,35.93,24.63,26.166ZM18.68,21.467l2.787-2.787a2.538,2.538,0,0,1,3.589,0l.225.225L18.9,25.28l-.225-.225a2.538,2.538,0,0,1,0-3.589Zm4.581,6.068L33.026,37.3l-1.051,1.051L22.21,28.586ZM29.554,52.79a1.936,1.936,0,1,1,0-3.873Zm0-5.809a3.873,3.873,0,0,0,0,7.745v1.936a5.809,5.809,0,0,1,0-11.618ZM25.386,58.508a.968.968,0,0,0-1.148.165l-1.461,1.461-2.5-2.5,1.461-1.461a.968.968,0,0,0,.165-1.148,8.639,8.639,0,0,1-.659-1.553.968.968,0,0,0-.924-.679h-2.38V48.917h2.38a.968.968,0,0,0,.924-.679,8.639,8.639,0,0,1,.659-1.553.968.968,0,0,0-.165-1.148l-1.461-1.461,2.5-2.5,1.461,1.461a.968.968,0,0,0,1.148.165,8.647,8.647,0,0,1,1.553-.659.968.968,0,0,0,.679-.924v-2.38h1.936v3.873a7.745,7.745,0,1,0,0,15.491v3.873H27.618v-2.38a.968.968,0,0,0-.679-.924,8.648,8.648,0,0,1-1.553-.659Zm5.136,13.645a2.908,2.908,0,0,1-2.9-2.9V64.408h36.79v4.841a4.816,4.816,0,0,0,.97,2.9ZM50.854,51.822a.968.968,0,1,1,.968.968.968.968,0,0,1-.968-.968Zm4.841,8.713v1.936H47.949V60.535Zm16.459,8.713a2.9,2.9,0,0,1-5.809,0V63.44a.968.968,0,0,0-.968-.968H57.631v-2.9a.968.968,0,0,0-.968-.968H52.79V54.56a2.919,2.919,0,0,0,1.77-1.77h2.1v2.9a.968.968,0,0,0,.968.968h9.682a.968.968,0,0,0,.968-.968V47.949a.968.968,0,0,0-.968-.968H57.631a.968.968,0,0,0-.968.968v2.9h-2.1a2.9,2.9,0,0,0-5.476,0h-2.1v-2.9a.968.968,0,0,0-.968-.968H36.331a.968.968,0,0,0-.968.968v7.745a.968.968,0,0,0,.968.968h9.682a.968.968,0,0,0,.968-.968v-2.9h2.1a2.919,2.919,0,0,0,1.77,1.77V58.6H46.981a.968.968,0,0,0-.968.968v2.9H31.491V40.6a8.73,8.73,0,0,0,3.666,2.049l8.665,2.363a.964.964,0,0,0,.255.034H59.567a.968.968,0,0,0,.968-.968v-2.9h6.777a.968.968,0,0,0,.968-.968V22.777a.968.968,0,0,0-.968-.968H59.567a.968.968,0,0,0-.968.968V43.108H44.816L43.76,39.236h10a.968.968,0,0,0,0-1.936H43.232L42.7,35.363H53.758a.968.968,0,1,0,0-1.936H41.969A8.727,8.727,0,0,0,40.6,31.49h3.478a.968.968,0,1,0,0-1.936H40.2a.968.968,0,0,0-.906.629l-7.808-7.807v-4.44H72.153ZM58.6,54.726V48.917h7.745v5.809ZM45.045,48.917v5.809H37.3V48.917Zm15.491-9.682V23.745h5.809V39.236Z"/>
        <path id="Path_998213" data-name="Path 998213" d="M224.968,65.936h3.873a.968.968,0,1,0,0-1.936h-3.873a.968.968,0,0,0,0,1.936Z" transform="translate(-182.828 -42.191)"/>
        <path id="Path_998214" data-name="Path 998214" d="M208.968,97.936h13.554a.968.968,0,1,0,0-1.936H208.968a.968.968,0,1,0,0,1.936Z" transform="translate(-168.764 -70.318)"/>
        <path id="Path_998215" data-name="Path 998215" d="M288.968,65.936h3.873a.968.968,0,1,0,0-1.936h-3.873a.968.968,0,1,0,0,1.936Z" transform="translate(-239.083 -42.191)"/>
        <path id="Path_998216" data-name="Path 998216" d="M278.777,128h-5.809a.968.968,0,1,0,0,1.936h5.809a.968.968,0,1,0,0-1.936Z" transform="translate(-225.019 -98.446)"/>
      </g>
    </g>
  </g>
</svg>
