<svg xmlns="http://www.w3.org/2000/svg" xmlns:xlink="http://www.w3.org/1999/xlink" width="108" height="108" viewBox="0 0 108 108">
  <defs>
    <filter id="Path_904820" x="0" y="0" width="108" height="108" filterUnits="userSpaceOnUse">
      <feOffset dy="3" input="SourceAlpha"/>
      <feGaussianBlur stdDeviation="3" result="blur"/>
      <feFlood flood-opacity="0.161"/>
      <feComposite operator="in" in2="blur"/>
      <feComposite in="SourceGraphic"/>
    </filter>
  </defs>
  <g id="Group_1164077" data-name="Group 1164077" transform="translate(-166 -1465)">
    <g id="Group_1163243" data-name="Group 1163243">
      <g id="Group_1163010" data-name="Group 1163010" transform="translate(6 -481)">
        <g id="Group_1160531" data-name="Group 1160531" transform="translate(169 1952)">
          <g id="Icono">
            <g transform="matrix(1, 0, 0, 1, -9, -6)" filter="url(#Path_904820)">
              <g id="Path_904820-2" data-name="Path 904820" transform="translate(9 6)" fill="#ecf4fa">
                <path d="M 45 88.5 C 39.12687683105469 88.5 33.43022537231445 87.35007476806641 28.06830024719238 85.08217620849609 C 22.88852500915527 82.89131164550781 18.23629951477051 79.75458526611328 14.2408504486084 75.75914764404297 C 10.24541282653809 71.76370239257812 7.108687400817871 67.11147308349609 4.917825222015381 61.93170166015625 C 2.649924993515015 56.56977462768555 1.5 50.87312316894531 1.5 45 C 1.5 39.12687683105469 2.649924993515015 33.43022537231445 4.917825222015381 28.06830024719238 C 7.108687400817871 22.88852500915527 10.24541282653809 18.23629951477051 14.2408504486084 14.2408504486084 C 18.23629951477051 10.24541282653809 22.88852500915527 7.108687400817871 28.06830024719238 4.917825222015381 C 33.43022537231445 2.649924993515015 39.12687683105469 1.5 45 1.5 C 50.87312316894531 1.5 56.56977462768555 2.649924993515015 61.93170166015625 4.917825222015381 C 67.11147308349609 7.108687400817871 71.76370239257812 10.24541282653809 75.75914764404297 14.2408504486084 C 79.75458526611328 18.23629951477051 82.89131164550781 22.88852500915527 85.08217620849609 28.06830024719238 C 87.35007476806641 33.43022537231445 88.5 39.12687683105469 88.5 45 C 88.5 50.87312316894531 87.35007476806641 56.56977462768555 85.08217620849609 61.93170166015625 C 82.89131164550781 67.11147308349609 79.75458526611328 71.76370239257812 75.75914764404297 75.75914764404297 C 71.76370239257812 79.75458526611328 67.11147308349609 82.89131164550781 61.93170166015625 85.08217620849609 C 56.56977462768555 87.35007476806641 50.87312316894531 88.5 45 88.5 Z" stroke="none"/>
                <path d="M 45 3 C 39.32871246337891 3 33.82865524291992 4.110054016113281 28.65262985229492 6.299339294433594 C 23.65165710449219 8.414573669433594 19.15968322753906 11.44334411621094 15.301513671875 15.301513671875 C 11.44334411621094 19.15968322753906 8.414573669433594 23.65165710449219 6.299339294433594 28.65262985229492 C 4.110054016113281 33.82865524291992 3 39.32871246337891 3 45 C 3 50.67128753662109 4.110054016113281 56.17134475708008 6.299339294433594 61.34737396240234 C 8.414573669433594 66.34834289550781 11.44334411621094 70.84031677246094 15.301513671875 74.698486328125 C 19.15968322753906 78.55665588378906 23.65165710449219 81.58542633056641 28.65262985229492 83.70066070556641 C 33.82865524291992 85.88994598388672 39.32871246337891 87 45 87 C 50.67128753662109 87 56.17134475708008 85.88994598388672 61.34737396240234 83.70066070556641 C 66.34834289550781 81.58542633056641 70.84031677246094 78.55665588378906 74.698486328125 74.698486328125 C 78.55665588378906 70.84031677246094 81.58542633056641 66.34834289550781 83.70066070556641 61.34737396240234 C 85.88994598388672 56.17134475708008 87 50.67128753662109 87 45 C 87 39.32871246337891 85.88994598388672 33.82865524291992 83.70066070556641 28.65262985229492 C 81.58542633056641 23.65165710449219 78.55665588378906 19.15968322753906 74.698486328125 15.301513671875 C 70.84031677246094 11.44334411621094 66.34834289550781 8.414573669433594 61.34737396240234 6.299339294433594 C 56.17134475708008 4.110054016113281 50.67128753662109 3 45 3 M 45 0 C 69.85281372070312 0 90 20.14718627929688 90 45 C 90 69.85281372070312 69.85281372070312 90 45 90 C 20.14718627929688 90 0 69.85281372070312 0 45 C 0 20.14718627929688 20.14718627929688 0 45 0 Z" stroke="none" fill="#2a5673"/>
              </g>
            </g>
          </g>
        </g>
      </g>
      <g id="inteligencia-emocional_6_" data-name="inteligencia-emocional (6)" transform="translate(136.923 1481)">
        <g id="Group_1163241" data-name="Group 1163241" transform="translate(56.114 1.037)">
          <path id="Path_997904" data-name="Path 997904" d="M160.237,108.657a18.323,18.323,0,1,0-30.255,13.906,4.6,4.6,0,0,1,1.624,3.485V127.4h20.614v-1.335a4.594,4.594,0,0,1,1.611-3.486A18.281,18.281,0,0,0,160.237,108.657Z" transform="translate(-115.155 -78.881)" fill="#ffe751"/>
          <path id="Path_997905" data-name="Path 997905" d="M229.861,272.539H225.28v-7.9a7.82,7.82,0,0,0-2.29-5.53v-.83h9.162v.83a7.82,7.82,0,0,0-2.29,5.53Z" transform="translate(-200.812 -223.611)" fill="#63d6fb"/>
          <path id="Path_997906" data-name="Path 997906" d="M246.074,90.334q-.737.005-1.459.069a18.323,18.323,0,0,1,10.329,32.171,4.594,4.594,0,0,0-1.611,3.486V127.4h3.18v-1.335a4.594,4.594,0,0,1,1.611-3.486,18.323,18.323,0,0,0-12.05-32.24Z" transform="translate(-219.447 -78.881)" fill="#ffc738"/>
          <g id="Group_1163239" data-name="Group 1163239" transform="translate(13.016 18.323)">
            <path id="Path_997907" data-name="Path 997907" d="M181.263,149.272a.3.3,0,0,1-.042-.244,3.964,3.964,0,0,0,.124-.979,4.008,4.008,0,0,0-4.008-4.008c-.078,0-.156,0-.233.008a.331.331,0,0,1-.251-.093.337.337,0,0,1-.1-.219,4.007,4.007,0,0,0-6-3.168.569.569,0,0,1-.573,0,4.007,4.007,0,0,0-6,3.23.267.267,0,0,1-.291.254c-.1-.008-.192-.013-.29-.013a4.008,4.008,0,0,0-3.806,5.266,4.009,4.009,0,0,0-3.064,4,4.057,4.057,0,0,0,4.082,3.9h19.309a4.063,4.063,0,0,0,4.087-3.8,4.009,4.009,0,0,0-2.786-4.027A.3.3,0,0,1,181.263,149.272Z" transform="translate(-156.723 -140.033)" fill="#fea9d7"/>
            <g id="Group_1163238" data-name="Group 1163238" transform="translate(14.446)">
              <path id="Path_997908" data-name="Path 997908" d="M271.457,149.384a.292.292,0,0,1-.2-.356,3.963,3.963,0,0,0,.124-.979,4.008,4.008,0,0,0-4.008-4.008c-.078,0-.156,0-.233.008a.331.331,0,0,1-.251-.093.337.337,0,0,1-.1-.219,4,4,0,0,0-5.584-3.375,4.01,4.01,0,0,1,2.4,3.375.338.338,0,0,0,.1.219.33.33,0,0,0,.251.093c.077-.005.155-.008.233-.008a4.008,4.008,0,0,1,4.008,4.008,3.964,3.964,0,0,1-.124.979.292.292,0,0,0,.2.356,4.009,4.009,0,0,1,2.788,3.988,4.063,4.063,0,0,1-4.089,3.839h3.18a4.063,4.063,0,0,0,4.089-3.839A4.008,4.008,0,0,0,271.457,149.384Z" transform="translate(-261.209 -140.033)" fill="#fe93cd"/>
            </g>
          </g>
          <path id="Path_997909" data-name="Path 997909" d="M206.424,464.157l.319,1.45a3.289,3.289,0,0,0,2.222,2.525,15.779,15.779,0,0,0,8.66,0,3.289,3.289,0,0,0,2.222-2.525l.319-1.45V463H206.424Z" transform="translate(-186.536 -400.025)" fill="#58546a"/>
          <g id="Group_1163240" data-name="Group 1163240" transform="translate(0)">
            <path id="Path_997910" data-name="Path 997910" d="M240.258,14.371h-2.672a.573.573,0,0,1-.565-.479l-.843-5.059a1.145,1.145,0,0,1,1.13-1.333h3.229a1.145,1.145,0,0,1,1.13,1.333l-.843,5.059A.573.573,0,0,1,240.258,14.371Z" transform="translate(-212.163 -7.5)" fill="#ffe751"/>
            <path id="Path_997911" data-name="Path 997911" d="M70.287,105l-1.336,2.314a.573.573,0,0,1-.7.25l-4.8-1.8a1.145,1.145,0,0,1-.59-1.645l1.614-2.8a1.145,1.145,0,0,1,1.72-.311l3.96,3.26A.572.572,0,0,1,70.287,105Z" transform="translate(-62.689 -87.858)" fill="#ffe751"/>
            <path id="Path_997912" data-name="Path 997912" d="M68.82,295.236l1.336,2.314a.573.573,0,0,1-.132.728l-3.96,3.26a1.145,1.145,0,0,1-1.72-.312l-1.614-2.8a1.145,1.145,0,0,1,.59-1.645l4.8-1.8A.572.572,0,0,1,68.82,295.236Z" transform="translate(-62.576 -255.208)" fill="#ffe751"/>
            <path id="Path_997913" data-name="Path 997913" d="M393.974,297.777l1.336-2.314a.573.573,0,0,1,.7-.25l4.8,1.8a1.145,1.145,0,0,1,.59,1.645l-1.614,2.8a1.145,1.145,0,0,1-1.72.312l-3.96-3.26A.573.573,0,0,1,393.974,297.777Z" transform="translate(-348.09 -255.404)" fill="#ffe751"/>
            <path id="Path_997914" data-name="Path 997914" d="M395.442,107.54l-1.336-2.314a.573.573,0,0,1,.132-.728l3.96-3.26a1.145,1.145,0,0,1,1.72.311l1.614,2.8a1.145,1.145,0,0,1-.59,1.645l-4.8,1.8A.572.572,0,0,1,395.442,107.54Z" transform="translate(-348.204 -88.053)" fill="#ffe751"/>
          </g>
          <path id="Path_997915" data-name="Path 997915" d="M270.526,463v1.095l-.319,1.762a4.177,4.177,0,0,1-1.654,2.786,15.921,15.921,0,0,0,2.612-.51,3.288,3.288,0,0,0,2.222-2.525l.319-1.45V463Z" transform="translate(-240.076 -400.025)" fill="#474457"/>
          <path id="Path_997916" data-name="Path 997916" d="M187.99,355.4h-20.77a2.212,2.212,0,0,0-2.212,2.212v2.447a2.212,2.212,0,0,0,2.212,2.212h2.29a2.212,2.212,0,0,0-2.212,2.212v.157a2.208,2.208,0,0,0,.932,1.8.475.475,0,0,1,.2.386v.046a.475.475,0,0,1-.2.386,2.208,2.208,0,0,0-.932,1.8v.157a2.212,2.212,0,0,0,2.212,2.212H185.7a2.212,2.212,0,0,0,2.212-2.212v-.157a2.208,2.208,0,0,0-.935-1.805.471.471,0,0,1-.2-.383v-.048a.47.47,0,0,1,.2-.383,2.208,2.208,0,0,0,.935-1.805v-.157a2.212,2.212,0,0,0-2.212-2.212h2.29a2.212,2.212,0,0,0,2.212-2.212v-2.447a2.212,2.212,0,0,0-2.212-2.212Z" transform="translate(-150.845 -307.301)" fill="#eaebeb"/>
          <path id="Path_997917" data-name="Path 997917" d="M296.18,409.274a2.208,2.208,0,0,0,.935-1.805v-.157A2.212,2.212,0,0,0,294.9,405.1h-3.172a2.212,2.212,0,0,1,2.212,2.212v.157a2.208,2.208,0,0,1-.935,1.805.471.471,0,0,0-.2.383v.048a.47.47,0,0,0,.2.383,2.208,2.208,0,0,1,.935,1.805v.157a2.212,2.212,0,0,1-2.212,2.212H294.9a2.212,2.212,0,0,0,2.212-2.212v-.157a2.208,2.208,0,0,0-.935-1.805.471.471,0,0,1-.2-.383v-.048A.471.471,0,0,1,296.18,409.274Z" transform="translate(-260.049 -350.13)" fill="#d8dcdc"/>
          <path id="Path_997918" data-name="Path 997918" d="M311.42,355.4h-3.18a2.212,2.212,0,0,1,2.212,2.212v2.447a2.212,2.212,0,0,1-2.212,2.212h3.18a2.212,2.212,0,0,0,2.212-2.212v-2.447A2.212,2.212,0,0,0,311.42,355.4Z" transform="translate(-274.276 -307.301)" fill="#d8dcdc"/>
        </g>
        <g id="Group_1163242" data-name="Group 1163242" transform="translate(55.077 0)">
          <path id="Path_997919" data-name="Path 997919" d="M229.536,7.6a1.6,1.6,0,0,0,1.588,1.345H233.8A1.6,1.6,0,0,0,235.383,7.6l.843-5.059A2.182,2.182,0,0,0,234.074,0h-3.229a2.182,2.182,0,0,0-2.152,2.541Zm1.227-5.488a.1.1,0,0,1,.083-.038h3.229a.108.108,0,0,1,.107.126L233.4,6.871h-1.885L230.739,2.2a.1.1,0,0,1,.024-.088Z" transform="translate(-204.664 0)"/>
          <path id="Path_997920" data-name="Path 997920" d="M56.624,100.271l4.8,1.8a1.6,1.6,0,0,0,1.959-.7l1.336-2.314h0a1.6,1.6,0,0,0-.371-2.047l-3.96-3.26a2.182,2.182,0,0,0-3.277.594l-1.614,2.8a2.182,2.182,0,0,0,1.124,3.134Zm.672-2.1,1.614-2.8a.1.1,0,0,1,.075-.052l.021,0a.1.1,0,0,1,.067.025l3.656,3.01-.943,1.633-4.435-1.662a.108.108,0,0,1-.056-.156Z" transform="translate(-55.189 -80.357)"/>
          <path id="Path_997921" data-name="Path 997921" d="M63.255,288.247a1.6,1.6,0,0,0-1.959-.7l-4.8,1.8a2.182,2.182,0,0,0-1.124,3.135l1.614,2.8a2.182,2.182,0,0,0,3.277.594l3.96-3.26a1.6,1.6,0,0,0,.371-2.047Zm-4.313,6.02a.108.108,0,0,1-.163-.029l-1.614-2.8a.108.108,0,0,1,.056-.156l4.435-1.661.943,1.633Z" transform="translate(-55.077 -247.701)"/>
          <path id="Path_997922" data-name="Path 997922" d="M394.7,289.572l-4.8-1.8a1.6,1.6,0,0,0-1.958.7l-1.336,2.314h0a1.6,1.6,0,0,0,.371,2.047l3.96,3.26a2.182,2.182,0,0,0,3.277-.594l1.614-2.8a2.182,2.182,0,0,0-1.124-3.135Zm-.672,2.1-1.614,2.8a.1.1,0,0,1-.074.052.1.1,0,0,1-.088-.023l-3.656-3.01.943-1.633,4.435,1.661a.109.109,0,0,1,.056.156Z" transform="translate(-340.582 -247.898)"/>
          <path id="Path_997923" data-name="Path 997923" d="M388.072,101.6h0a1.6,1.6,0,0,0,1.959.7l4.8-1.8a2.182,2.182,0,0,0,1.124-3.135l-1.614-2.8a2.182,2.182,0,0,0-3.277-.594l-3.96,3.26a1.6,1.6,0,0,0-.371,2.048Zm4.313-6.02a.108.108,0,0,1,.163.029l1.614,2.8a.108.108,0,0,1-.056.155l-4.435,1.661-.943-1.633Z" transform="translate(-340.695 -80.553)"/>
          <path id="Path_997924" data-name="Path 997924" d="M148.045,116.9a19.35,19.35,0,0,0-23.577-30.625,1.037,1.037,0,0,0,1.182,1.7A17.277,17.277,0,0,1,146.7,115.324a5.628,5.628,0,0,0-1.972,4.157h-5.944V113.45a6.733,6.733,0,0,1,1.7-4.493h4.7a5.046,5.046,0,0,0,2.148-9.612,5.046,5.046,0,0,0-4.651-5.619,5.046,5.046,0,0,0-7.231-3.471,5.046,5.046,0,0,0-7.231,3.471,5.052,5.052,0,0,0-4.685,5.032,5.646,5.646,0,0,0,.034.586,5.046,5.046,0,0,0,2.148,9.612h4.7a6.732,6.732,0,0,1,1.7,4.493v6.031h-5.944a5.64,5.64,0,0,0-1.985-4.167,17.244,17.244,0,0,1-1.932-24.26,1.037,1.037,0,0,0-1.583-1.34,19.318,19.318,0,0,0,2.164,27.174,3.565,3.565,0,0,1,1.263,2.7v.04a3.255,3.255,0,0,0-2.29,3.1v2.447a3.254,3.254,0,0,0,2.542,3.171,3.231,3.231,0,0,0-.252,1.254v.157a3.236,3.236,0,0,0,.872,2.212,3.236,3.236,0,0,0-.872,2.212v.157a3.253,3.253,0,0,0,3.249,3.249h.39l.14.636a4.315,4.315,0,0,0,2.951,3.3,16.871,16.871,0,0,0,9.227,0,4.315,4.315,0,0,0,2.951-3.3l.14-.636h.39a3.253,3.253,0,0,0,3.249-3.249v-.157a3.236,3.236,0,0,0-.872-2.212,3.236,3.236,0,0,0,.872-2.212V129.6a3.231,3.231,0,0,0-.252-1.254,3.254,3.254,0,0,0,2.542-3.171V122.73a3.255,3.255,0,0,0-2.29-3.1V119.6A3.554,3.554,0,0,1,148.045,116.9Zm-25.3-12.987a2.96,2.96,0,0,1,1.5-2.58,5.044,5.044,0,0,0,9.382-2.574,1.037,1.037,0,1,0-2.074,0,2.971,2.971,0,0,1-5.8.908,3.111,3.111,0,0,1-.143-.908,2.975,2.975,0,0,1,2.971-2.971,3.016,3.016,0,0,1,.427.031,1.037,1.037,0,0,0,1.184-1.036v-.039a2.971,2.971,0,0,1,5.943.007,1.037,1.037,0,1,0,2.074,0,5.016,5.016,0,0,0-.943-2.932,2.968,2.968,0,0,1,3.45,2.923v.041a1.037,1.037,0,0,0,1.184,1.036,2.971,2.971,0,0,1,3.248,3.873,1.037,1.037,0,0,0,.741,1.333,2.971,2.971,0,1,1-3.671,2.888,1.037,1.037,0,0,0-2.074,0,5.017,5.017,0,0,0,.971,2.971H125.717A2.974,2.974,0,0,1,122.746,103.912Zm10.232,5.045h4.946a8.8,8.8,0,0,0-1.22,4.493v6.031H134.2V113.45A8.8,8.8,0,0,0,132.978,108.957ZM144.722,129.6v.157a1.176,1.176,0,0,1-1.175,1.175h-16.19a1.176,1.176,0,0,1-1.175-1.175V129.6a1.176,1.176,0,0,1,1.175-1.175h16.19A1.176,1.176,0,0,1,144.722,129.6Zm0,4.738a1.176,1.176,0,0,1-1.175,1.175H135.71a1.037,1.037,0,1,0,0,2.074h5.323l-.042.191a2.252,2.252,0,0,1-1.493,1.75,14.8,14.8,0,0,1-8.094,0,2.252,2.252,0,0,1-1.493-1.75l-.042-.191h1a1.037,1.037,0,1,0,0-2.074h-3.514a1.176,1.176,0,0,1-1.175-1.175v-.157a1.176,1.176,0,0,1,1.175-1.175h16.19a1.176,1.176,0,0,1,1.175,1.175v.156Zm2.29-9.162a1.176,1.176,0,0,1-1.175,1.175h-20.77a1.176,1.176,0,0,1-1.175-1.175V122.73a1.176,1.176,0,0,1,1.175-1.175h20.77a1.176,1.176,0,0,1,1.175,1.175Z" transform="translate(-107.656 -71.382)"/>
        </g>
      </g>
    </g>
  </g>
</svg>
