<svg xmlns="http://www.w3.org/2000/svg" xmlns:xlink="http://www.w3.org/1999/xlink" width="110" height="110" viewBox="0 0 110 110">
  <defs>
    <filter id="Path_982547" x="0" y="0" width="110" height="110" filterUnits="userSpaceOnUse">
      <feOffset dy="3" input="SourceAlpha"/>
      <feGaussianBlur stdDeviation="3" result="blur"/>
      <feFlood flood-opacity="0.161"/>
      <feComposite operator="in" in2="blur"/>
      <feComposite in="SourceGraphic"/>
    </filter>
  </defs>
  <g id="Group_1164088" data-name="Group 1164088" transform="translate(-1168 -4887)">
    <g id="Group_1163821" data-name="Group 1163821">
      <g id="Group_1163016" data-name="Group 1163016" transform="translate(368 549)">
        <g id="Group_1157015" data-name="Group 1157015" transform="translate(0 3549)">
          <g id="Group_1155792" data-name="Group 1155792" transform="translate(-1 -3894.666)">
            <g id="Group_1154703" data-name="Group 1154703" transform="translate(0 1465.666)">
              <g id="Group_1150789" data-name="Group 1150789" transform="translate(3 2320)">
                <g id="Group_1154212" data-name="Group 1154212" transform="translate(-236 -5809)">
                  <g id="Group_1152583" data-name="Group 1152583" transform="translate(1043 6713)">
                    <g id="Group_1146973" data-name="Group 1146973" transform="translate(0 0)">
                      <g id="Group_1146954" data-name="Group 1146954">
                        <g transform="matrix(1, 0, 0, 1, -9, -6)" filter="url(#Path_982547)">
                          <g id="Path_982547-2" data-name="Path 982547" transform="translate(9 6)" fill="#ebe9f0">
                            <path d="M 46 90.49987030029297 C 39.99187850952148 90.49987030029297 34.16426849365234 89.32350921630859 28.67905426025391 87.00345611572266 C 23.38019943237305 84.76224517822266 18.62104034423828 81.55341339111328 14.53374671936035 77.46613311767578 C 10.44646644592285 73.37885284423828 7.237639904022217 68.61969757080078 4.996413230895996 63.32085418701172 C 2.676359891891479 57.83565521240234 1.5 52.008056640625 1.5 45.99993515014648 C 1.5 39.99181365966797 2.676359891891479 34.16421508789062 4.996413230895996 28.67901420593262 C 7.237639904022217 23.38017463684082 10.44646644592285 18.62101554870605 14.53374671936035 14.53373527526855 C 18.62104034423828 10.44645500183105 23.38019943237305 7.23762845993042 28.67905426025391 4.996415138244629 C 34.16426849365234 2.676361799240112 39.99187850952148 1.500001788139343 46 1.500001788139343 C 52.00812149047852 1.500001788139343 57.83573150634766 2.676361799240112 63.32094573974609 4.996415138244629 C 68.61979675292969 7.23762845993042 73.37895965576172 10.44645500183105 77.46625518798828 14.53373527526855 C 81.55353546142578 18.62101554870605 84.76235961914062 23.38017463684082 87.00358581542969 28.67901420593262 C 89.32363891601562 34.16421508789062 90.5 39.99181365966797 90.5 45.99993515014648 C 90.5 52.008056640625 89.32363891601562 57.83565521240234 87.00358581542969 63.32085418701172 C 84.76235961914062 68.61969757080078 81.55353546142578 73.37885284423828 77.46625518798828 77.46613311767578 C 73.37895965576172 81.55341339111328 68.61979675292969 84.76224517822266 63.32094573974609 87.00345611572266 C 57.83573150634766 89.32350921630859 52.00812149047852 90.49987030029297 46 90.49987030029297 Z" stroke="none"/>
                            <path d="M 46 2.999992370605469 C 40.1937141418457 2.999992370605469 34.56269836425781 4.136489868164062 29.26337051391602 6.377906799316406 C 24.14332580566406 8.543502807617188 19.54441070556641 11.64437866210938 15.59439849853516 15.59437561035156 C 11.64440155029297 19.54439544677734 8.54351806640625 24.14329528808594 6.377914428710938 29.26333618164062 C 4.136497497558594 34.56264877319336 3 40.19366455078125 3 45.99993515014648 C 3 51.80620574951172 4.136497497558594 57.43720626831055 6.377914428710938 62.73651885986328 C 8.54351806640625 67.8565673828125 11.64440155029297 72.45545959472656 15.59439849853516 76.40547943115234 C 19.54441070556641 80.35547637939453 24.14332580566406 83.45635223388672 29.26337051391602 85.6219482421875 C 34.56269836425781 87.86336517333984 40.1937141418457 88.99986267089844 46 88.99986267089844 C 51.8062858581543 88.99986267089844 57.43730163574219 87.86336517333984 62.73661422729492 85.6219482421875 C 67.85667419433594 83.45635223388672 72.45557403564453 80.35547637939453 76.40558624267578 76.40547943115234 C 80.35559844970703 72.45545959472656 83.45647430419922 67.8565673828125 85.6220703125 62.73651885986328 C 87.86350250244141 57.43720626831055 89 51.80620574951172 89 45.99993515014648 C 89 40.19366455078125 87.86350250244141 34.56264877319336 85.6220703125 29.26333618164062 C 83.45647430419922 24.14329528808594 80.35559844970703 19.54439544677734 76.40558624267578 15.59437561035156 C 72.45557403564453 11.64437866210938 67.85667419433594 8.543502807617188 62.73661422729492 6.377906799316406 C 57.43730163574219 4.136489868164062 51.8062858581543 2.999992370605469 46 2.999992370605469 M 46 -7.62939453125e-06 C 71.40509033203125 -7.62939453125e-06 92 20.59486389160156 92 45.99993515014648 C 92 71.40499114990234 71.40509033203125 91.99986267089844 46 91.99986267089844 C 20.59490203857422 91.99986267089844 0 71.40499114990234 0 45.99993515014648 C 0 20.59486389160156 20.59490203857422 -7.62939453125e-06 46 -7.62939453125e-06 Z" stroke="none" fill="#453179"/>
                          </g>
                        </g>
                      </g>
                    </g>
                  </g>
                </g>
              </g>
            </g>
          </g>
        </g>
      </g>
      <g id="solucion_1_" data-name="solucion (1)" transform="translate(1196 4911)">
        <g id="Group_1163804" data-name="Group 1163804" transform="translate(39.269 0.811)">
          <path id="Path_998151" data-name="Path 998151" d="M367.136,17.858a2.727,2.727,0,0,1-2.267-.77,1.007,1.007,0,0,0-.707-.3h-.1a.981.981,0,0,0-.981.981V22.8h5.028a.981.981,0,0,1,.981.981v.1a1.007,1.007,0,0,1-.3.707,2.731,2.731,0,1,0,3.877,0,1,1,0,0,1-.3-.7v-.1a.981.981,0,0,1,.981-.981h5.028V8.593A1.093,1.093,0,0,0,377.28,7.5h-14.2v5.028a.981.981,0,0,0,.981.981h.1a1,1,0,0,0,.7-.3,2.732,2.732,0,1,1,2.27,4.647Z" transform="translate(-363.077 -7.5)" fill="#d3effb"/>
        </g>
        <g id="Group_1163805" data-name="Group 1163805" transform="translate(32.823 39.269)">
          <path id="Path_998152" data-name="Path 998152" d="M314.862,367.136a2.727,2.727,0,0,1,.77-2.267,1.007,1.007,0,0,0,.3-.707v-.1a.981.981,0,0,0-.98-.981h-5.029v5.028a.981.981,0,0,1-.981.981h-.1a1.007,1.007,0,0,1-.707-.3,2.731,2.731,0,1,0,0,3.877,1,1,0,0,1,.7-.3h1.086v6.009h14.2a1.093,1.093,0,0,0,1.093-1.093v-14.2h-5.028a.981.981,0,0,0-.981.981v.1a1,1,0,0,0,.3.7,2.732,2.732,0,1,1-4.648,2.27Z" transform="translate(-303.479 -363.077)" fill="#80cb8e"/>
        </g>
        <g id="Group_1163806" data-name="Group 1163806" transform="translate(50.74 0.811)">
          <path id="Path_998153" data-name="Path 998153" d="M471.875,7.5h-2.731a1.093,1.093,0,0,1,1.093,1.093V22.8h2.731V8.593A1.093,1.093,0,0,0,471.875,7.5Z" transform="translate(-469.144 -7.5)" fill="#b1e4f9"/>
        </g>
        <g id="Group_1163807" data-name="Group 1163807" transform="translate(50.74 39.269)">
          <path id="Path_998154" data-name="Path 998154" d="M470.237,363.077v14.2a1.093,1.093,0,0,1-1.093,1.093h2.731a1.093,1.093,0,0,0,1.093-1.093v-14.2Z" transform="translate(-469.144 -363.077)" fill="#66b49d"/>
        </g>
        <g id="Group_1163808" data-name="Group 1163808" transform="translate(0.811 32.823)">
          <path id="Path_998155" data-name="Path 998155" d="M18.736,314.861a2.728,2.728,0,0,1,2.267.77,1.007,1.007,0,0,0,.707.3h.1a.981.981,0,0,0,.981-.981v-5.028H17.767a.98.98,0,0,1-.981-.98v-.1a1.007,1.007,0,0,1,.3-.707,2.731,2.731,0,1,0-3.877,0,1,1,0,0,1,.3.7v.1a.981.981,0,0,1-.981.981H7.5v14.2a1.093,1.093,0,0,0,1.093,1.093H22.8v-5.028a.981.981,0,0,0-.981-.981h-.1a1,1,0,0,0-.7.3,2.732,2.732,0,1,1-2.27-4.647Z" transform="translate(-7.5 -303.477)" fill="#f6e266"/>
        </g>
        <g id="Group_1163809" data-name="Group 1163809" transform="translate(13.478 39.269)">
          <path id="Path_998156" data-name="Path 998156" d="M124.621,363.077v5.028a.977.977,0,0,1-.007.113,2.734,2.734,0,0,1,.841.57,1,1,0,0,0,.7.3h.1a.981.981,0,0,0,.981-.981v-5.028Z" transform="translate(-124.614 -363.077)" fill="#ecbe6b"/>
        </g>
        <g id="Group_1163810" data-name="Group 1163810" transform="translate(13.485 48.555)">
          <path id="Path_998157" data-name="Path 998157" d="M125.513,449.238a2.738,2.738,0,0,1-.834.567v5.144H127.3v-5.028a.981.981,0,0,0-.981-.981h-.1A1,1,0,0,0,125.513,449.238Z" transform="translate(-124.679 -448.941)" fill="#ecbe6b"/>
        </g>
        <g id="Group_1163811" data-name="Group 1163811" transform="translate(0.811 0.811)">
          <path id="Path_998158" data-name="Path 998158" d="M17.858,18.736A2.727,2.727,0,0,1,17.088,21a1.007,1.007,0,0,0-.3.707v.1a.981.981,0,0,0,.981.981H22.8V17.767a.981.981,0,0,1,.981-.981h.1a1.007,1.007,0,0,1,.707.3,2.731,2.731,0,1,0,0-3.877,1,1,0,0,1-.7.3h-.1a.981.981,0,0,1-.981-.981V7.5H8.593A1.093,1.093,0,0,0,7.5,8.593V22.8h5.028a.981.981,0,0,0,.981-.981v-.1a1,1,0,0,0-.3-.7,2.732,2.732,0,1,1,4.647-2.27Z" transform="translate(-7.5 -7.5)" fill="#e28086"/>
        </g>
        <g id="Group_1163812" data-name="Group 1163812" transform="translate(13.485 0.811)">
          <path id="Path_998159" data-name="Path 998159" d="M125.659,13.509h.1a1,1,0,0,0,.7-.3,2.736,2.736,0,0,1,.84-.569,1,1,0,0,1-.007-.113V7.5h-2.622v5.028A.981.981,0,0,0,125.659,13.509Z" transform="translate(-124.678 -7.5)" fill="#dd636e"/>
        </g>
        <g id="Group_1163813" data-name="Group 1163813" transform="translate(13.485 10.098)">
          <path id="Path_998160" data-name="Path 998160" d="M126.471,93.665a1.007,1.007,0,0,0-.707-.3h-.1a.981.981,0,0,0-.981.981v5.028H127.3V94.345a.978.978,0,0,1,.007-.113A2.737,2.737,0,0,1,126.471,93.665Z" transform="translate(-124.679 -93.364)" fill="#dd636e"/>
        </g>
        <g id="Group_1163814" data-name="Group 1163814" transform="translate(18.509 5.728)">
          <path id="Path_998161" data-name="Path 998161" d="M172.446,52.957a2.718,2.718,0,0,0-1.312.335,2.729,2.729,0,0,1,0,4.792,2.732,2.732,0,1,0,1.312-5.127Z" transform="translate(-171.134 -52.957)" fill="#dd636e"/>
        </g>
        <g id="Group_1163820" data-name="Group 1163820" transform="translate(0 0)">
          <g id="Group_1163818" data-name="Group 1163818" transform="translate(16.114 15.437)">
            <g id="Group_1163815" data-name="Group 1163815">
              <path id="Path_998162" data-name="Path 998162" d="M169.349,154.981a8.878,8.878,0,0,0-.059-1.022,1.152,1.152,0,0,1,.561-1.137l1.709-.987a1.156,1.156,0,0,0,.423-1.579l-1.618-2.8a1.156,1.156,0,0,0-1.579-.423l-1.71.987a1.154,1.154,0,0,1-1.268-.083,8.764,8.764,0,0,0-1.758-1.017,1.166,1.166,0,0,1-.712-1.067v-1.966a1.156,1.156,0,0,0-1.156-1.156h-3.236a1.156,1.156,0,0,0-1.156,1.156v1.966a1.166,1.166,0,0,1-.712,1.067,8.771,8.771,0,0,0-1.758,1.017,1.154,1.154,0,0,1-1.268.083l-1.71-.987a1.156,1.156,0,0,0-1.579.423l-1.618,2.8a1.156,1.156,0,0,0,.423,1.579l1.709.987a1.152,1.152,0,0,1,.561,1.137,8.9,8.9,0,0,0,0,2.043,1.152,1.152,0,0,1-.561,1.137l-1.709.987a1.156,1.156,0,0,0-.423,1.579l1.618,2.8a1.156,1.156,0,0,0,1.579.423l1.71-.987a1.154,1.154,0,0,1,1.268.083,8.761,8.761,0,0,0,1.758,1.017,1.166,1.166,0,0,1,.712,1.067v1.966a1.156,1.156,0,0,0,1.156,1.156h3.236a1.156,1.156,0,0,0,1.156-1.156V164.11a1.166,1.166,0,0,1,.712-1.067,8.774,8.774,0,0,0,1.758-1.017,1.154,1.154,0,0,1,1.268-.083l1.71.987a1.156,1.156,0,0,0,1.579-.423l1.618-2.8a1.156,1.156,0,0,0-.423-1.579l-1.709-.987a1.152,1.152,0,0,1-.561-1.137A8.854,8.854,0,0,0,169.349,154.981Zm-8.783,2.233a2.233,2.233,0,1,1,2.233-2.233A2.233,2.233,0,0,1,160.566,157.214Z" transform="translate(-148.992 -142.73)" fill="#a0aab7"/>
            </g>
            <g id="Group_1163816" data-name="Group 1163816" transform="translate(6.111 6.788)">
              <path id="Path_998163" data-name="Path 998163" d="M210.955,205.492a5.463,5.463,0,1,0,5.463,5.463A5.463,5.463,0,0,0,210.955,205.492Zm0,7.574a2.111,2.111,0,1,1,2.111-2.111A2.111,2.111,0,0,1,210.955,213.066Z" transform="translate(-205.492 -205.492)" fill="#dfeaef"/>
            </g>
            <g id="Group_1163817" data-name="Group 1163817" transform="translate(8.639 4.147)">
              <path id="Path_998164" data-name="Path 998164" d="M242.8,192.323l-1.709-.987a1.152,1.152,0,0,1-.561-1.137,8.9,8.9,0,0,0,0-2.043,1.152,1.152,0,0,1,.561-1.137l1.709-.987a1.156,1.156,0,0,0,.423-1.579l-1.618-2.8a1.155,1.155,0,0,0-1.511-.457,13.487,13.487,0,0,1-11.223,16.53,1.142,1.142,0,0,1,.16.583v1.966a1.156,1.156,0,0,0,1.156,1.156h3.236a1.156,1.156,0,0,0,1.156-1.156v-1.966a1.166,1.166,0,0,1,.712-1.067,8.775,8.775,0,0,0,1.758-1.017,1.154,1.154,0,0,1,1.268-.083l1.71.987a1.156,1.156,0,0,0,1.579-.423l1.618-2.8A1.156,1.156,0,0,0,242.8,192.323Z" transform="translate(-228.872 -181.074)" fill="#808b95"/>
            </g>
          </g>
          <g id="Group_1163819" data-name="Group 1163819" transform="translate(0)">
            <path id="Path_998165" data-name="Path 998165" d="M370.591,0h-3.757a.811.811,0,0,0,0,1.622h3.757a.282.282,0,0,1,.281.281V15.3h-4.217a1.794,1.794,0,0,0-1.792,1.792v.1a1.8,1.8,0,0,0,.534,1.276,1.921,1.921,0,1,1-2.725,0,1.81,1.81,0,0,0,.536-1.278v-.1a1.794,1.794,0,0,0-1.792-1.792H357.2V11.078a.17.17,0,0,1,.169-.169h.1a.2.2,0,0,1,.136.066,3.542,3.542,0,1,0,0-5.028.2.2,0,0,1-.132.062h-.1a.17.17,0,0,1-.169-.169V1.622h5.846a.811.811,0,0,0,0-1.622h-6.657a.811.811,0,0,0-.811.811V5.84a1.794,1.794,0,0,0,1.792,1.792h.1a1.8,1.8,0,0,0,1.276-.534,1.921,1.921,0,1,1,0,2.726,1.81,1.81,0,0,0-1.278-.536h-.1a1.794,1.794,0,0,0-1.792,1.792v5.028a.811.811,0,0,0,.811.811h5.028a.17.17,0,0,1,.169.169v.1a.2.2,0,0,1-.066.136,3.542,3.542,0,1,0,5.028,0,.2.2,0,0,1-.062-.132v-.1a.17.17,0,0,1,.169-.169h5.029a.811.811,0,0,0,.811-.811V1.9a1.906,1.906,0,0,0-1.9-1.9Z" transform="translate(-317.12 0)"/>
            <path id="Path_998166" data-name="Path 998166" d="M318.534,355.577h-5.028a1.794,1.794,0,0,0-1.792,1.792v.1a1.8,1.8,0,0,0,.534,1.276,1.921,1.921,0,1,1-2.726,0,1.81,1.81,0,0,0,.536-1.278v-.1a1.794,1.794,0,0,0-1.792-1.792h-5.028a.811.811,0,0,0-.811.811v5.028a.17.17,0,0,1-.169.169h-.1a.2.2,0,0,1-.136-.066,3.542,3.542,0,1,0,0,5.028.2.2,0,0,1,.132-.062h.274v5.2a.811.811,0,0,0,.811.811h14.2a1.906,1.906,0,0,0,1.9-1.9v-14.2A.811.811,0,0,0,318.534,355.577Zm-.811,15.014a.282.282,0,0,1-.281.281H304.05v-5.2a.811.811,0,0,0-.811-.811h-1.086a1.8,1.8,0,0,0-1.276.534,1.921,1.921,0,1,1,0-2.725,1.81,1.81,0,0,0,1.278.536h.1a1.794,1.794,0,0,0,1.792-1.792V357.2h4.217a.17.17,0,0,1,.169.169v.1a.2.2,0,0,1-.066.136,3.542,3.542,0,1,0,5.028,0,.2.2,0,0,1-.062-.132v-.1a.17.17,0,0,1,.169-.169h4.217Z" transform="translate(-263.97 -317.12)"/>
            <path id="Path_998167" data-name="Path 998167" d="M16.107,302.427H11.078a.17.17,0,0,1-.169-.169v-.1a.2.2,0,0,1,.066-.136,3.542,3.542,0,1,0-5.028,0,.2.2,0,0,1,.062.132v.1a.17.17,0,0,1-.169.169H.811a.811.811,0,0,0-.811.811v14.2a1.906,1.906,0,0,0,1.9,1.9h1.8a.811.811,0,1,0,0-1.622H1.9a.282.282,0,0,1-.281-.281V304.049H5.84a1.794,1.794,0,0,0,1.792-1.792v-.1a1.8,1.8,0,0,0-.534-1.276,1.921,1.921,0,1,1,2.725,0,1.81,1.81,0,0,0-.536,1.278v.1a1.794,1.794,0,0,0,1.792,1.792H15.3v4.217a.17.17,0,0,1-.17.17h-.1a.2.2,0,0,1-.136-.066,3.542,3.542,0,1,0,0,5.028.2.2,0,0,1,.132-.062h.1a.17.17,0,0,1,.17.17v4.217h-7.8a.811.811,0,1,0,0,1.622h8.613a.811.811,0,0,0,.811-.811v-5.028a1.794,1.794,0,0,0-1.792-1.792h-.1a1.8,1.8,0,0,0-1.276.534,1.921,1.921,0,1,1,0-2.726,1.81,1.81,0,0,0,1.278.536h.1a1.794,1.794,0,0,0,1.792-1.792v-5.028A.811.811,0,0,0,16.107,302.427Z" transform="translate(0 -263.97)"/>
            <path id="Path_998168" data-name="Path 998168" d="M.811,16.918H5.84a1.794,1.794,0,0,0,1.792-1.792v-.1A1.8,1.8,0,0,0,7.1,13.746a1.921,1.921,0,1,1,2.726,0,1.81,1.81,0,0,0-.536,1.278v.1a1.794,1.794,0,0,0,1.792,1.792h5.028a.811.811,0,0,0,.811-.811V11.078a.17.17,0,0,1,.169-.169h.1a.2.2,0,0,1,.136.066,3.542,3.542,0,1,0,0-5.028.2.2,0,0,1-.132.062h-.1a.17.17,0,0,1-.169-.169V.811A.811.811,0,0,0,16.107,0H1.9A1.906,1.906,0,0,0,0,1.9v14.2a.811.811,0,0,0,.811.811ZM1.622,1.9A.282.282,0,0,1,1.9,1.622H15.3V5.84a1.794,1.794,0,0,0,1.792,1.792h.1A1.8,1.8,0,0,0,18.468,7.1a1.921,1.921,0,1,1,0,2.725,1.81,1.81,0,0,0-1.278-.536h-.1A1.794,1.794,0,0,0,15.3,11.078V15.3H11.078a.17.17,0,0,1-.169-.169v-.1a.2.2,0,0,1,.066-.136,3.542,3.542,0,1,0-5.028,0,.2.2,0,0,1,.062.132v.1a.17.17,0,0,1-.169.169H1.622Z" transform="translate(0 0)"/>
            <path id="Path_998169" data-name="Path 998169" d="M232.1,73.344h.649a.811.811,0,0,0,0-1.622H232.1a.811.811,0,0,0,0,1.622Z" transform="translate(-206.272 -63.965)"/>
            <path id="Path_998170" data-name="Path 998170" d="M271.654,73.344h1.613a.811.811,0,0,0,0-1.622h-1.613a.811.811,0,0,0,0,1.622Z" transform="translate(-241.55 -63.965)"/>
            <path id="Path_998171" data-name="Path 998171" d="M320.124,73.344h.649a.811.811,0,0,0,0-1.622h-.649a.811.811,0,0,0,0,1.622Z" transform="translate(-284.778 -63.965)"/>
            <path id="Path_998172" data-name="Path 998172" d="M426.089,233.558a.811.811,0,0,0,.811-.811V232.1a.811.811,0,0,0-1.622,0v.649A.811.811,0,0,0,426.089,233.558Z" transform="translate(-379.282 -206.272)"/>
            <path id="Path_998173" data-name="Path 998173" d="M425.278,273.267a.811.811,0,0,0,1.622,0v-1.613a.811.811,0,0,0-1.622,0Z" transform="translate(-379.282 -241.55)"/>
            <path id="Path_998174" data-name="Path 998174" d="M425.278,320.773a.811.811,0,0,0,1.622,0v-.649a.811.811,0,0,0-1.622,0Z" transform="translate(-379.282 -284.778)"/>
            <path id="Path_998175" data-name="Path 998175" d="M261.173,425.278h-.649a.811.811,0,1,0,0,1.622h.649a.811.811,0,1,0,0-1.622Z" transform="translate(-231.624 -379.282)"/>
            <path id="Path_998176" data-name="Path 998176" d="M213.667,425.278h-1.613a.811.811,0,1,0,0,1.622h1.613a.811.811,0,1,0,0-1.622Z" transform="translate(-188.396 -379.282)"/>
            <path id="Path_998177" data-name="Path 998177" d="M173.147,425.278H172.5a.811.811,0,1,0,0,1.622h.649a.811.811,0,0,0,0-1.622Z" transform="translate(-153.118 -379.282)"/>
            <path id="Path_998178" data-name="Path 998178" d="M72.533,259.713a.811.811,0,0,0-.811.811v.649a.811.811,0,0,0,1.622,0v-.649A.811.811,0,0,0,72.533,259.713Z" transform="translate(-63.965 -231.624)"/>
            <path id="Path_998179" data-name="Path 998179" d="M73.344,212.054a.811.811,0,0,0-1.622,0v1.613a.811.811,0,0,0,1.622,0Z" transform="translate(-63.965 -188.396)"/>
            <path id="Path_998180" data-name="Path 998180" d="M73.344,172.5a.811.811,0,1,0-1.622,0v.649a.811.811,0,0,0,1.622,0Z" transform="translate(-63.965 -153.118)"/>
            <path id="Path_998181" data-name="Path 998181" d="M159.978,155.955l1.71.987a1.967,1.967,0,0,0,2.687-.72l1.618-2.8a1.967,1.967,0,0,0-.72-2.687l-1.709-.987a.343.343,0,0,1-.161-.341,9.71,9.71,0,0,0,0-2.23.343.343,0,0,1,.161-.341l1.709-.987a1.967,1.967,0,0,0,.72-2.687l-1.618-2.8a1.967,1.967,0,0,0-2.687-.72l-1.71.987a.345.345,0,0,1-.378-.031,9.6,9.6,0,0,0-1.92-1.111.357.357,0,0,1-.222-.322v-1.966a1.969,1.969,0,0,0-1.967-1.967h-3.236a1.969,1.969,0,0,0-1.967,1.967v1.966a.357.357,0,0,1-.222.322,9.594,9.594,0,0,0-1.92,1.111.345.345,0,0,1-.378.031l-1.71-.987a1.967,1.967,0,0,0-2.687.72l-1.618,2.8a1.967,1.967,0,0,0,.72,2.687l1.709.987a.343.343,0,0,1,.161.341,9.712,9.712,0,0,0,0,2.23.344.344,0,0,1-.161.341l-1.709.987a1.967,1.967,0,0,0-.72,2.687l1.618,2.8a1.967,1.967,0,0,0,2.687.72l1.71-.987a.345.345,0,0,1,.378.031,9.594,9.594,0,0,0,1.92,1.111.357.357,0,0,1,.222.322v1.966a1.969,1.969,0,0,0,1.967,1.967h3.236a1.969,1.969,0,0,0,1.967-1.967v-1.966a.357.357,0,0,1,.222-.322,9.589,9.589,0,0,0,1.92-1.111A.346.346,0,0,1,159.978,155.955Zm-2.943-.347a1.978,1.978,0,0,0-1.2,1.811v1.966a.345.345,0,0,1-.345.345h-3.236a.345.345,0,0,1-.345-.345v-1.966a1.978,1.978,0,0,0-1.2-1.811,7.972,7.972,0,0,1-1.6-.923,1.984,1.984,0,0,0-1.186-.4,1.942,1.942,0,0,0-.972.26l-1.71.987a.345.345,0,0,1-.471-.126l-1.618-2.8a.345.345,0,0,1,.126-.471l1.71-.987a1.964,1.964,0,0,0,.962-1.932,8.093,8.093,0,0,1,0-1.857,1.964,1.964,0,0,0-.962-1.933l-1.709-.987a.345.345,0,0,1-.126-.471l1.618-2.8a.345.345,0,0,1,.471-.126l1.71.987a1.965,1.965,0,0,0,2.159-.135,7.975,7.975,0,0,1,1.6-.923,1.978,1.978,0,0,0,1.2-1.811V137.2a.345.345,0,0,1,.345-.345h3.236a.345.345,0,0,1,.345.345v1.966a1.978,1.978,0,0,0,1.2,1.811,7.972,7.972,0,0,1,1.6.923,1.965,1.965,0,0,0,2.159.135l1.71-.987a.345.345,0,0,1,.471.126l1.618,2.8a.345.345,0,0,1-.126.471l-1.71.987a1.964,1.964,0,0,0-.961,1.933,8.091,8.091,0,0,1,0,1.857,1.964,1.964,0,0,0,.961,1.933l1.709.987a.345.345,0,0,1,.126.471l-1.618,2.8a.345.345,0,0,1-.471.126l-1.71-.987a1.966,1.966,0,0,0-2.159.135A7.982,7.982,0,0,1,157.035,155.608Z" transform="translate(-126.184 -120.602)"/>
            <path id="Path_998182" data-name="Path 998182" d="M231.9,228.98a2.922,2.922,0,1,0,2.922,2.922A2.926,2.926,0,0,0,231.9,228.98Zm0,4.222a1.3,1.3,0,1,1,1.3-1.3A1.3,1.3,0,0,1,231.9,233.2Z" transform="translate(-204.215 -204.215)"/>
            <path id="Path_998183" data-name="Path 998183" d="M204.266,197.992a6.274,6.274,0,1,0,6.274,6.274A6.281,6.281,0,0,0,204.266,197.992Zm0,10.925a4.652,4.652,0,1,1,4.652-4.652A4.657,4.657,0,0,1,204.266,208.917Z" transform="translate(-176.578 -176.578)"/>
          </g>
        </g>
      </g>
    </g>
  </g>
</svg>
