<svg xmlns="http://www.w3.org/2000/svg" xmlns:xlink="http://www.w3.org/1999/xlink" width="110" height="110" viewBox="0 0 110 110">
  <defs>
    <filter id="Path_982547" x="0" y="0" width="110" height="110" filterUnits="userSpaceOnUse">
      <feOffset dy="3" input="SourceAlpha"/>
      <feGaussianBlur stdDeviation="3" result="blur"/>
      <feFlood flood-opacity="0.161"/>
      <feComposite operator="in" in2="blur"/>
      <feComposite in="SourceGraphic"/>
    </filter>
  </defs>
  <g id="Group_1164089" data-name="Group 1164089" transform="translate(-1483 -4888)">
    <g id="Group_1163838" data-name="Group 1163838">
      <g id="Group_1163017" data-name="Group 1163017" transform="translate(368 549)">
        <g id="Group_1157017" data-name="Group 1157017" transform="translate(0 3549)">
          <g id="Group_1155793" data-name="Group 1155793" transform="translate(-0.999 -3894)">
            <g id="Group_1154704" data-name="Group 1154704" transform="translate(0 1466)">
              <g id="Group_1150790" data-name="Group 1150790" transform="translate(3 2320)">
                <g id="Group_1154214" data-name="Group 1154214" transform="translate(79 -5809)">
                  <g id="Group_1152583" data-name="Group 1152583" transform="translate(1043 6713)">
                    <g id="Group_1146973" data-name="Group 1146973" transform="translate(0 0)">
                      <g id="Group_1146954" data-name="Group 1146954">
                        <g transform="matrix(1, 0, 0, 1, -9, -6)" filter="url(#Path_982547)">
                          <g id="Path_982547-2" data-name="Path 982547" transform="translate(9 6)" fill="#ebe9f0">
                            <path d="M 46 90.49987030029297 C 39.99187850952148 90.49987030029297 34.16426849365234 89.32350921630859 28.67905426025391 87.00345611572266 C 23.38019943237305 84.76224517822266 18.62104034423828 81.55341339111328 14.53374671936035 77.46613311767578 C 10.44646644592285 73.37885284423828 7.237639904022217 68.61969757080078 4.996413230895996 63.32085418701172 C 2.676359891891479 57.83565521240234 1.5 52.008056640625 1.5 45.99993515014648 C 1.5 39.99181365966797 2.676359891891479 34.16421508789062 4.996413230895996 28.67901420593262 C 7.237639904022217 23.38017463684082 10.44646644592285 18.62101554870605 14.53374671936035 14.53373527526855 C 18.62104034423828 10.44645500183105 23.38019943237305 7.23762845993042 28.67905426025391 4.996415138244629 C 34.16426849365234 2.676361799240112 39.99187850952148 1.500001788139343 46 1.500001788139343 C 52.00812149047852 1.500001788139343 57.83573150634766 2.676361799240112 63.32094573974609 4.996415138244629 C 68.61979675292969 7.23762845993042 73.37895965576172 10.44645500183105 77.46625518798828 14.53373527526855 C 81.55353546142578 18.62101554870605 84.76235961914062 23.38017463684082 87.00358581542969 28.67901420593262 C 89.32363891601562 34.16421508789062 90.5 39.99181365966797 90.5 45.99993515014648 C 90.5 52.008056640625 89.32363891601562 57.83565521240234 87.00358581542969 63.32085418701172 C 84.76235961914062 68.61969757080078 81.55353546142578 73.37885284423828 77.46625518798828 77.46613311767578 C 73.37895965576172 81.55341339111328 68.61979675292969 84.76224517822266 63.32094573974609 87.00345611572266 C 57.83573150634766 89.32350921630859 52.00812149047852 90.49987030029297 46 90.49987030029297 Z" stroke="none"/>
                            <path d="M 46 2.999992370605469 C 40.1937141418457 2.999992370605469 34.56269836425781 4.136489868164062 29.26337051391602 6.377906799316406 C 24.14332580566406 8.543502807617188 19.54441070556641 11.64437866210938 15.59439849853516 15.59437561035156 C 11.64440155029297 19.54439544677734 8.54351806640625 24.14329528808594 6.377914428710938 29.26333618164062 C 4.136497497558594 34.56264877319336 3 40.19366455078125 3 45.99993515014648 C 3 51.80620574951172 4.136497497558594 57.43720626831055 6.377914428710938 62.73651885986328 C 8.54351806640625 67.8565673828125 11.64440155029297 72.45545959472656 15.59439849853516 76.40547943115234 C 19.54441070556641 80.35547637939453 24.14332580566406 83.45635223388672 29.26337051391602 85.6219482421875 C 34.56269836425781 87.86336517333984 40.1937141418457 88.99986267089844 46 88.99986267089844 C 51.8062858581543 88.99986267089844 57.43730163574219 87.86336517333984 62.73661422729492 85.6219482421875 C 67.85667419433594 83.45635223388672 72.45557403564453 80.35547637939453 76.40558624267578 76.40547943115234 C 80.35559844970703 72.45545959472656 83.45647430419922 67.8565673828125 85.6220703125 62.73651885986328 C 87.86350250244141 57.43720626831055 89 51.80620574951172 89 45.99993515014648 C 89 40.19366455078125 87.86350250244141 34.56264877319336 85.6220703125 29.26333618164062 C 83.45647430419922 24.14329528808594 80.35559844970703 19.54439544677734 76.40558624267578 15.59437561035156 C 72.45557403564453 11.64437866210938 67.85667419433594 8.543502807617188 62.73661422729492 6.377906799316406 C 57.43730163574219 4.136489868164062 51.8062858581543 2.999992370605469 46 2.999992370605469 M 46 -7.62939453125e-06 C 71.40509033203125 -7.62939453125e-06 92 20.59486389160156 92 45.99993515014648 C 92 71.40499114990234 71.40509033203125 91.99986267089844 46 91.99986267089844 C 20.59490203857422 91.99986267089844 0 71.40499114990234 0 45.99993515014648 C 0 20.59486389160156 20.59490203857422 -7.62939453125e-06 46 -7.62939453125e-06 Z" stroke="none" fill="#453179"/>
                          </g>
                        </g>
                      </g>
                    </g>
                  </g>
                </g>
              </g>
            </g>
          </g>
        </g>
      </g>
      <g id="evaluacion_1_" data-name="evaluacion (1)" transform="translate(1509 4911)">
        <g id="Group_1163836" data-name="Group 1163836" transform="translate(0.943 0.943)">
          <g id="Group_1163822" data-name="Group 1163822" transform="translate(43.362 34.878)">
            <path id="Path_998184" data-name="Path 998184" d="M60.2,42.713V59.681H57.369L47,44.6,54.541,38Z" transform="translate(-47 -38)" fill="#ff826e"/>
          </g>
          <g id="Group_1163823" data-name="Group 1163823" transform="translate(2.828 49.017)">
            <path id="Path_998185" data-name="Path 998185" d="M15.076,58.656l.236,1.885H4L4.943,53h9.426Z" transform="translate(-4 -53)" fill="#ff826e"/>
          </g>
          <g id="Group_1163824" data-name="Group 1163824" transform="translate(3.771 3.771)">
            <path id="Path_998186" data-name="Path 998186" d="M8.771,18.2V33.741a2.38,2.38,0,0,0,.189.924l1.329,3.1A16.59,16.59,0,0,1,5.7,29.245L5.33,27.407A2.024,2.024,0,0,0,5,26.634V6.885A1.891,1.891,0,0,1,6.885,5h32.05A1.891,1.891,0,0,1,40.82,6.885V22.948a3.374,3.374,0,0,0-1.942.961l-.424.424a2.472,2.472,0,0,0-1.4-.481V13.484a.945.945,0,0,0-.943-.943H9.713a.945.945,0,0,0-.943.943Z" transform="translate(-5 -5)" fill="#969faa"/>
          </g>
          <g id="Group_1163825" data-name="Group 1163825" transform="translate(13.197 39.714)">
            <path id="Path_998187" data-name="Path 998187" d="M15.754,52.434H36.681a.945.945,0,0,0,.943-.943V43.139l.009-.009a10.314,10.314,0,0,0,3.761,1.291V56.2a1.891,1.891,0,0,1-1.885,1.885h-23.8L15,52.434l.1-.264Z" transform="translate(-15 -43.13)" fill="#969faa"/>
          </g>
          <g id="Group_1163826" data-name="Group 1163826" transform="translate(7.541 11.312)">
            <path id="Path_998188" data-name="Path 998188" d="M36.337,50.706H9V13.943A.943.943,0,0,1,9.943,13H36.337a.943.943,0,0,1,.943.943v35.82A.943.943,0,0,1,36.337,50.706Z" transform="translate(-9 -13)" fill="#69d6f4"/>
          </g>
          <g id="Group_1163827" data-name="Group 1163827" transform="translate(24.509 37.706)">
            <path id="Path_998189" data-name="Path 998189" d="M34.541,41.943V47.6a.945.945,0,0,1-.943.943H27.943A.945.945,0,0,1,27,47.6V41.943A.945.945,0,0,1,27.943,41H33.6A.945.945,0,0,1,34.541,41.943Z" transform="translate(-27 -41)" fill="#e6e9ed"/>
          </g>
          <g id="Group_1163828" data-name="Group 1163828" transform="translate(24.509 26.394)">
            <path id="Path_998190" data-name="Path 998190" d="M32.119,29l2.432,2.13a2.626,2.626,0,0,0-1.112-.245,2.671,2.671,0,0,0-2.668,2.668v.085a2.639,2.639,0,0,0,.669,1.772l1.009,1.131H27.943A.945.945,0,0,1,27,35.6V29.943A.945.945,0,0,1,27.943,29h4.166Z" transform="translate(-27 -29)" fill="#e6e9ed"/>
          </g>
          <g id="Group_1163829" data-name="Group 1163829" transform="translate(24.509 15.082)">
            <path id="Path_998191" data-name="Path 998191" d="M29.451,23.221a2.038,2.038,0,0,0-.566,1.32h-.943A.945.945,0,0,1,27,23.6V17.943A.945.945,0,0,1,27.943,17H33.6a.945.945,0,0,1,.943.943V23.6a.949.949,0,0,1-.726.924l-1.546-1.376a1.984,1.984,0,0,0-1.291-.49h-.151a1.962,1.962,0,0,0-1.376.566Z" transform="translate(-27 -17)" fill="#e6e9ed"/>
          </g>
          <g id="Group_1163830" data-name="Group 1163830" transform="translate(26.394 20.738)">
            <path id="Path_998192" data-name="Path 998192" d="M39.831,25.366l.424-.424A3.374,3.374,0,0,1,42.2,23.98a2.649,2.649,0,0,1,.471-.038,3.41,3.41,0,0,1,2.413,1l1.235,1.235a31.943,31.943,0,0,1,6.8,10.039l.4.924-7.541,6.6L42.3,43.276c-.038,0-.066-.009-.1-.009a10.314,10.314,0,0,1-3.761-1.291,9.894,9.894,0,0,1-2.6-2.093L32.563,36.2l-1.009-1.131a2.639,2.639,0,0,1-.669-1.772v-.085a2.671,2.671,0,0,1,2.668-2.668,2.626,2.626,0,0,1,1.112.245l-2.432-2.13h-.009L29.66,26.412A1.986,1.986,0,0,1,29,24.942v-.057a2.038,2.038,0,0,1,.566-1.32A1.962,1.962,0,0,1,30.942,23h.151a1.984,1.984,0,0,1,1.291.49l1.546,1.376,1.895,1.678.99-.99a2.268,2.268,0,0,1,1.612-.669,2.472,2.472,0,0,1,1.4.481Z" transform="translate(-29 -23)" fill="#f0d0b4"/>
          </g>
          <g id="Group_1163831" data-name="Group 1163831" transform="translate(0 24.509)">
            <path id="Path_998193" data-name="Path 998193" d="M10.059,39.028l-1.329-3.1A2.38,2.38,0,0,1,8.541,35v-.019a2.317,2.317,0,0,1,2.328-2.328,2.325,2.325,0,0,1,2.083,1.291l.3.594,1.207,2.4a15.318,15.318,0,0,1,1.518,5.137,15.492,15.492,0,0,1,.1,1.753,15.433,15.433,0,0,1-1.1,5.712l-.679,1.7-.1.264H4.771A62.543,62.543,0,0,1,1,30.111V29.074A2.06,2.06,0,0,1,3.074,27a2.044,2.044,0,0,1,1.7.9,2.024,2.024,0,0,1,.33.773l.368,1.838A16.59,16.59,0,0,0,10.059,39.028Z" transform="translate(-1 -27)" fill="#f0d0b4"/>
          </g>
          <g id="Group_1163832" data-name="Group 1163832" transform="translate(45.247 15.082)">
            <path id="Path_998194" data-name="Path 998194" d="M54.656,17v2.828a2.828,2.828,0,0,1-5.656,0V17h5.656Z" transform="translate(-49 -17)" fill="#ccd1d9"/>
          </g>
          <g id="Group_1163833" data-name="Group 1163833" transform="translate(39.591)">
            <path id="Path_998195" data-name="Path 998195" d="M52.6,1H50.371A7.373,7.373,0,0,0,46.28,14.5l2.375,1.584h5.656L56.687,14.5A7.368,7.368,0,0,0,52.6,1Z" transform="translate(-43 -1)" fill="#ffeaa7"/>
          </g>
          <g id="Group_1163834" data-name="Group 1163834" transform="translate(49.206 5.656)">
            <path id="Path_998196" data-name="Path 998196" d="M54.991,10.771h-1.6l-.179-1.8a1.141,1.141,0,0,1-.009-.179,1.791,1.791,0,0,1,3.582,0V8.98a1.79,1.79,0,0,1-1.791,1.791Z" transform="translate(-53.2 -7)" fill="#fcd770"/>
          </g>
          <g id="Group_1163835" data-name="Group 1163835" transform="translate(43.362 5.656)">
            <path id="Path_998197" data-name="Path 998197" d="M48.791,7a1.794,1.794,0,0,1,1.782,1.97l-.179,1.8h-1.6A1.79,1.79,0,0,1,47,8.98V8.791A1.79,1.79,0,0,1,48.791,7Z" transform="translate(-47 -7)" fill="#fcd770"/>
          </g>
        </g>
        <g id="Group_1163837" data-name="Group 1163837" transform="translate(0)">
          <path id="Path_998198" data-name="Path 998198" d="M20,8h7.541V9.885H20Z" transform="translate(-1.147 -0.459)"/>
          <path id="Path_998199" data-name="Path 998199" d="M12,18h3.771v1.885H12Z" transform="translate(-0.688 -1.032)"/>
          <path id="Path_998200" data-name="Path 998200" d="M18,18h5.656v1.885H18Z" transform="translate(-1.032 -1.032)"/>
          <path id="Path_998201" data-name="Path 998201" d="M12,22h9.426v1.885H12Z" transform="translate(-0.688 -1.262)"/>
          <path id="Path_998202" data-name="Path 998202" d="M12,30h3.771v1.885H12Z" transform="translate(-0.688 -1.721)"/>
          <path id="Path_998203" data-name="Path 998203" d="M18,30h5.656v1.885H18Z" transform="translate(-1.032 -1.721)"/>
          <path id="Path_998204" data-name="Path 998204" d="M52.315,34.524a32.823,32.823,0,0,0-7-10.333l-1.235-1.235a4.31,4.31,0,0,0-2.609-1.23V13.56a8.318,8.318,0,0,0,1.816,1.666l1.956,1.3v2.324a3.771,3.771,0,1,0,7.541,0V16.529l1.955-1.3A8.311,8.311,0,0,0,50.134,0H47.9a8.315,8.315,0,0,0-7.377,4.5,2.806,2.806,0,0,0-1.877-.729H6.6A2.831,2.831,0,0,0,3.771,6.6V24.617a2.964,2.964,0,0,0-.756-.108A3.018,3.018,0,0,0,0,27.523v1.034a63.384,63.384,0,0,0,3.751,21.5L2.7,58.444H16.15l-.236-1.885H38.648a2.831,2.831,0,0,0,2.828-2.828V43.016l2.292.287,10.41,15.142h4.266V40.092l-5.821-4.851Zm-8.328-9a30.95,30.95,0,0,1,6.6,9.743l.126.3L44,41.431l-3.249-.406a9.426,9.426,0,0,1-5.876-3.091L30.6,33.124a1.79,1.79,0,0,1-.435-1.236,1.724,1.724,0,0,1,2.943-1.219l2.989,2.99,1.333-1.333-2.99-2.99a3.6,3.6,0,0,0-.861-.618L28.621,24.38a1,1,0,0,1,.661-1.756h.143a1,1,0,0,1,.666.254l7.931,7.05,1.253-1.408L35.531,25.19l.289-.291a1.364,1.364,0,0,1,1.885,0l2.161,2.161L41.2,25.728l-1.663-1.663a2.533,2.533,0,0,1,3.214.225ZM16.692,45.247h5.931V43.362H16.917c.024-.359.051-.717.051-1.079,0-.269-.01-.537-.024-.806h5.679V39.591H16.739a16.438,16.438,0,0,0-1.5-4.615l-.52-1.041h6.016V32.05H13.78l-.039-.076a3.243,3.243,0,0,0-4.314-1.488V13.2H35.82V22.8a3.066,3.066,0,0,0-1.333.764l-.369.369-.428-.381a1.886,1.886,0,0,0,.244-.93V16.968a1.887,1.887,0,0,0-1.885-1.885H26.394a1.887,1.887,0,0,0-1.885,1.885v5.656a1.887,1.887,0,0,0,1.885,1.885h.155a2.878,2.878,0,0,0,.83,1.29l.681.595H26.394a1.887,1.887,0,0,0-1.885,1.885v5.656a1.887,1.887,0,0,0,1.885,1.885h4.081l1.685,1.9c-.037,0-.073-.011-.11-.011H26.394a1.887,1.887,0,0,0-1.885,1.885v5.656a1.887,1.887,0,0,0,1.885,1.885H32.05a1.887,1.887,0,0,0,1.885-1.885V39.668A11.274,11.274,0,0,0,35.82,41.2v7.822H15.532l.268-.668a16.31,16.31,0,0,0,.893-3.1Zm9.891-22.623h-.189V16.968H32.05V22.1l-.706-.627a2.884,2.884,0,0,0-1.919-.731h-.143a2.886,2.886,0,0,0-2.7,1.885Zm2.282,11.312H26.394V28.279h3.82l.312.272a3.67,3.67,0,0,0-2.246,3.427,3.6,3.6,0,0,0,.586,1.956Zm3.185,11.312H26.394V39.591H32.05ZM46.845,9.426H46.1a.85.85,0,0,1-.848-.848V8.39a.85.85,0,0,1,.848-.848.848.848,0,0,1,.844.932Zm4.25-.953a.848.848,0,0,1,.845-.932.85.85,0,0,1,.848.848v.189a.85.85,0,0,1-.848.848h-.748ZM49.017,20.738a1.887,1.887,0,0,1-1.885-1.885V16.968H50.9v1.885A1.887,1.887,0,0,1,49.017,20.738Zm-.844-5.656.377-3.771h.933l.377,3.771ZM47.9,1.885h2.231A6.425,6.425,0,0,1,53.7,13.657l-1.953,1.3-.365-3.648h.561a2.737,2.737,0,0,0,2.734-2.734V8.39a2.733,2.733,0,1,0-5.453.271l.075.765h-.556l.076-.765a2.734,2.734,0,1,0-5.454-.271v.189A2.736,2.736,0,0,0,46.1,11.312h.561l-.365,3.648-1.953-1.3A6.425,6.425,0,0,1,47.9,1.885ZM6.6,5.656h32.05a.944.944,0,0,1,.943.943V21.933A4.325,4.325,0,0,0,38,22.892c-.1-.039-.2-.059-.3-.089V13.2a1.887,1.887,0,0,0-1.885-1.885H9.426A1.887,1.887,0,0,0,7.541,13.2v19.19a15.619,15.619,0,0,1-1.2-3.613l-.369-1.843a2.993,2.993,0,0,0-.315-.842V6.6A.944.944,0,0,1,6.6,5.656ZM1.885,27.523A1.129,1.129,0,0,1,4.122,27.3l.369,1.843A17.447,17.447,0,0,0,9.2,38.008l.411.959A3.6,3.6,0,0,1,9.526,42l1.686.844a5.477,5.477,0,0,0,.136-4.615L9.54,34.006a1.407,1.407,0,0,1-.113-.568,1.387,1.387,0,0,1,2.628-.621l1.5,3a14.523,14.523,0,0,1,1.526,6.463,14.378,14.378,0,0,1-1.034,5.366L13.5,49.017H5.389a61.488,61.488,0,0,1-3.5-20.46ZM4.839,56.559,5.546,50.9h7.762l.707,5.656Zm33.81-1.885H15.679L15.208,50.9H35.82a1.887,1.887,0,0,0,1.885-1.885V42.163a11.283,11.283,0,0,0,1.885.574V53.731A.944.944,0,0,1,38.648,54.673Zm17.91,1.885H55.169L45.556,42.576l6.3-5.517,4.7,3.917Z" transform="translate(0)"/>
        </g>
      </g>
    </g>
  </g>
</svg>
