<svg xmlns="http://www.w3.org/2000/svg" xmlns:xlink="http://www.w3.org/1999/xlink" width="110" height="110" viewBox="0 0 110 110">
  <defs>
    <filter id="Path_982547" x="0" y="0" width="110" height="110" filterUnits="userSpaceOnUse">
      <feOffset dy="3" input="SourceAlpha"/>
      <feGaussianBlur stdDeviation="3" result="blur"/>
      <feFlood flood-opacity="0.161"/>
      <feComposite operator="in" in2="blur"/>
      <feComposite in="SourceGraphic"/>
    </filter>
  </defs>
  <g id="Group_1164086" data-name="Group 1164086" transform="translate(-801 -4644)">
    <g id="Group_1163801" data-name="Group 1163801">
      <g id="Group_1163014" data-name="Group 1163014" transform="translate(1 306)">
        <g id="Group_1157015" data-name="Group 1157015" transform="translate(0 3549)">
          <g id="Group_1155792" data-name="Group 1155792" transform="translate(-1 -3894.666)">
            <g id="Group_1154703" data-name="Group 1154703" transform="translate(0 1465.666)">
              <g id="Group_1150789" data-name="Group 1150789" transform="translate(3 2320)">
                <g id="Group_1154212" data-name="Group 1154212" transform="translate(-236 -5809)">
                  <g id="Group_1152583" data-name="Group 1152583" transform="translate(1043 6713)">
                    <g id="Group_1146973" data-name="Group 1146973" transform="translate(0 0)">
                      <g id="Group_1146954" data-name="Group 1146954">
                        <g transform="matrix(1, 0, 0, 1, -9, -6)" filter="url(#Path_982547)">
                          <g id="Path_982547-2" data-name="Path 982547" transform="translate(9 6)" fill="#ebe9f0">
                            <path d="M 46 90.49987030029297 C 39.99187850952148 90.49987030029297 34.16426849365234 89.32350921630859 28.67905426025391 87.00345611572266 C 23.38019943237305 84.76224517822266 18.62104034423828 81.55341339111328 14.53374671936035 77.46613311767578 C 10.44646644592285 73.37885284423828 7.237639904022217 68.61969757080078 4.996413230895996 63.32085418701172 C 2.676359891891479 57.83565521240234 1.5 52.008056640625 1.5 45.99993515014648 C 1.5 39.99181365966797 2.676359891891479 34.16421508789062 4.996413230895996 28.67901420593262 C 7.237639904022217 23.38017463684082 10.44646644592285 18.62101554870605 14.53374671936035 14.53373527526855 C 18.62104034423828 10.44645500183105 23.38019943237305 7.23762845993042 28.67905426025391 4.996415138244629 C 34.16426849365234 2.676361799240112 39.99187850952148 1.500001788139343 46 1.500001788139343 C 52.00812149047852 1.500001788139343 57.83573150634766 2.676361799240112 63.32094573974609 4.996415138244629 C 68.61979675292969 7.23762845993042 73.37895965576172 10.44645500183105 77.46625518798828 14.53373527526855 C 81.55353546142578 18.62101554870605 84.76235961914062 23.38017463684082 87.00358581542969 28.67901420593262 C 89.32363891601562 34.16421508789062 90.5 39.99181365966797 90.5 45.99993515014648 C 90.5 52.008056640625 89.32363891601562 57.83565521240234 87.00358581542969 63.32085418701172 C 84.76235961914062 68.61969757080078 81.55353546142578 73.37885284423828 77.46625518798828 77.46613311767578 C 73.37895965576172 81.55341339111328 68.61979675292969 84.76224517822266 63.32094573974609 87.00345611572266 C 57.83573150634766 89.32350921630859 52.00812149047852 90.49987030029297 46 90.49987030029297 Z" stroke="none"/>
                            <path d="M 46 2.999992370605469 C 40.1937141418457 2.999992370605469 34.56269836425781 4.136489868164062 29.26337051391602 6.377906799316406 C 24.14332580566406 8.543502807617188 19.54441070556641 11.64437866210938 15.59439849853516 15.59437561035156 C 11.64440155029297 19.54439544677734 8.54351806640625 24.14329528808594 6.377914428710938 29.26333618164062 C 4.136497497558594 34.56264877319336 3 40.19366455078125 3 45.99993515014648 C 3 51.80620574951172 4.136497497558594 57.43720626831055 6.377914428710938 62.73651885986328 C 8.54351806640625 67.8565673828125 11.64440155029297 72.45545959472656 15.59439849853516 76.40547943115234 C 19.54441070556641 80.35547637939453 24.14332580566406 83.45635223388672 29.26337051391602 85.6219482421875 C 34.56269836425781 87.86336517333984 40.1937141418457 88.99986267089844 46 88.99986267089844 C 51.8062858581543 88.99986267089844 57.43730163574219 87.86336517333984 62.73661422729492 85.6219482421875 C 67.85667419433594 83.45635223388672 72.45557403564453 80.35547637939453 76.40558624267578 76.40547943115234 C 80.35559844970703 72.45545959472656 83.45647430419922 67.8565673828125 85.6220703125 62.73651885986328 C 87.86350250244141 57.43720626831055 89 51.80620574951172 89 45.99993515014648 C 89 40.19366455078125 87.86350250244141 34.56264877319336 85.6220703125 29.26333618164062 C 83.45647430419922 24.14329528808594 80.35559844970703 19.54439544677734 76.40558624267578 15.59437561035156 C 72.45557403564453 11.64437866210938 67.85667419433594 8.543502807617188 62.73661422729492 6.377906799316406 C 57.43730163574219 4.136489868164062 51.8062858581543 2.999992370605469 46 2.999992370605469 M 46 -7.62939453125e-06 C 71.40509033203125 -7.62939453125e-06 92 20.59486389160156 92 45.99993515014648 C 92 71.40499114990234 71.40509033203125 91.99986267089844 46 91.99986267089844 C 20.59490203857422 91.99986267089844 0 71.40499114990234 0 45.99993515014648 C 0 20.59486389160156 20.59490203857422 -7.62939453125e-06 46 -7.62939453125e-06 Z" stroke="none" fill="#453179"/>
                          </g>
                        </g>
                      </g>
                    </g>
                  </g>
                </g>
              </g>
            </g>
          </g>
        </g>
      </g>
      <g id="detener-la-violencia" transform="translate(823 4662)">
        <g id="Group_1163799" data-name="Group 1163799" transform="translate(0.979 0.979)">
          <circle id="Ellipse_12455" data-name="Ellipse 12455" cx="32.446" cy="32.446" r="32.446" fill="#fa5e97"/>
          <path id="Path_998129" data-name="Path 998129" d="M76.167,58.279,86.2,48.243a1.083,1.083,0,0,0-.1-1.618A28.12,28.12,0,0,0,46.625,86.1a1.083,1.083,0,0,0,1.618.1l8.826-8.826Z" transform="translate(-36.307 -36.307)" fill="#efeff9"/>
          <path id="Path_998130" data-name="Path 998130" d="M130.636,147.8l-10.4,10.4a1.083,1.083,0,0,0,.1,1.618,28.12,28.12,0,0,0,39.479-39.479,1.083,1.083,0,0,0-1.618-.1l-9.2,9.2Z" transform="translate(-105.245 -105.245)" fill="#efeff9"/>
          <path id="Path_998131" data-name="Path 998131" d="M246,7.5c-.5,0-1,.013-1.5.036a32.445,32.445,0,0,1,0,64.82c.5.023,1,.036,1.5.036A32.446,32.446,0,1,0,246,7.5Z" transform="translate(-213.556 -7.5)" fill="#d94f88"/>
          <path id="Path_998132" data-name="Path 998132" d="M160.821,98.988a3.245,3.245,0,0,0-2.792,1.83.17.17,0,0,1-.323-.073V95.812a3.31,3.31,0,0,0-3.271-3.316,3.245,3.245,0,0,0-2.942,1.933.144.144,0,0,1-.277-.058v-.721a3.3,3.3,0,0,0-3.307-3.317,3.245,3.245,0,0,0-3.182,3.244V96.6a.132.132,0,0,1-.254.051,3.244,3.244,0,0,0-2.98-1.986,3.292,3.292,0,0,0-3.256,3.317v9.382a.143.143,0,0,1-.274.057,3.245,3.245,0,0,0-2.982-1.94,3.292,3.292,0,0,0-3.234,3.318v11.824a12.978,12.978,0,0,0,12.978,12.978h6.489a12.978,12.978,0,0,0,12.978-12.978V102.3A3.291,3.291,0,0,0,160.821,98.988Z" transform="translate(-115.526 -79.518)" fill="#f1b0a2"/>
          <g id="Group_1163798" data-name="Group 1163798" transform="translate(32.687 19.467)">
            <path id="Path_998133" data-name="Path 998133" d="M270.457,156.6a3.222,3.222,0,0,0-1.383.373,3.342,3.342,0,0,1,1.753,2.942V178.23a12.978,12.978,0,0,1-12.978,12.978h3a12.978,12.978,0,0,0,12.978-12.978V159.918A3.292,3.292,0,0,0,270.457,156.6Z" transform="translate(-257.85 -156.6)" fill="#eb9c8d"/>
          </g>
        </g>
        <g id="Group_1163800" data-name="Group 1163800" transform="translate(0)">
          <path id="Path_998134" data-name="Path 998134" d="M57.06,9.79a33.426,33.426,0,0,0-45.8-1.383.979.979,0,1,0,1.3,1.466,31.465,31.465,0,1,1-2.687,2.687.979.979,0,1,0-1.466-1.3A33.425,33.425,0,1,0,57.06,9.79Z" transform="translate(0)"/>
          <path id="Path_998135" data-name="Path 998135" d="M41.667,43.058a.979.979,0,0,0-1.382.1,29.06,29.06,0,0,0-.952,37.037,2.066,2.066,0,0,0,1.5.786c.041,0,.082,0,.123,0a2.062,2.062,0,0,0,1.457-.6l3.82-3.82a13.953,13.953,0,0,0,1.2,2.15L44.089,82.05a2.063,2.063,0,0,0,.186,3.081,28.8,28.8,0,0,0,17.956,6.2,29.132,29.132,0,0,0,29.1-29.1,28.8,28.8,0,0,0-6.2-17.956,2.063,2.063,0,0,0-3.081-.186L77.3,48.844a4.121,4.121,0,0,0-2.852-.5l5.931-5.931a2.063,2.063,0,0,0-.187-3.081,29.06,29.06,0,0,0-37.037.952.979.979,0,0,0,1.286,1.477,27.1,27.1,0,0,1,34.541-.889.1.1,0,0,1,.041.077.1.1,0,0,1-.03.078l-6.045,6.045V46.011a4.22,4.22,0,0,0-6.684-3.43,4.224,4.224,0,0,0-8.253,1.267v.764a4.22,4.22,0,0,0-6.489,3.562v7.259a4.156,4.156,0,0,0-5.188.541,4.355,4.355,0,0,0-1.3,3.088V70.886a13.927,13.927,0,0,0,.479,3.627L41.03,78.992a.1.1,0,0,1-.078.03.1.1,0,0,1-.077-.041,27.1,27.1,0,0,1,.889-34.541.979.979,0,0,0-.1-1.382Zm41.766,2.418a.1.1,0,0,1,.078-.03.1.1,0,0,1,.077.041,26.864,26.864,0,0,1,5.783,16.747A27.171,27.171,0,0,1,62.232,89.374a26.864,26.864,0,0,1-16.747-5.783.1.1,0,0,1-.041-.077.1.1,0,0,1,.03-.078l3.178-3.178a13.925,13.925,0,0,0,10.335,4.586h6.489A13.973,13.973,0,0,0,79.434,70.886V52.573a4.343,4.343,0,0,0-.719-2.379ZM46.988,59.062a2.384,2.384,0,0,1,.714-1.69,2.21,2.21,0,0,1,1.6-.648,2.276,2.276,0,0,1,2.221,2.265v5.468A2.053,2.053,0,0,0,53.346,66.5a7.657,7.657,0,0,1,6.825,7.627.979.979,0,1,0,1.958,0,9.613,9.613,0,0,0-8.57-9.573.1.1,0,0,1-.082-.1V48.174a2.265,2.265,0,0,1,4.531,0V61.152a.979.979,0,1,0,1.958,0v-17.3a2.265,2.265,0,1,1,4.531,0v17.3a.979.979,0,1,0,1.958,0V46.011a2.265,2.265,0,0,1,4.531,0V49.44h0V62.234a.979.979,0,0,0,1.958,0V52.5a2.276,2.276,0,0,1,2.221-2.265,2.211,2.211,0,0,1,1.6.648,2.385,2.385,0,0,1,.714,1.69V70.886a12.013,12.013,0,0,1-12,12h-6.49a12.013,12.013,0,0,1-12-12Z" transform="translate(-28.807 -28.809)"/>
        </g>
      </g>
    </g>
  </g>
</svg>
