<svg xmlns="http://www.w3.org/2000/svg" xmlns:xlink="http://www.w3.org/1999/xlink" width="108" height="108" viewBox="0 0 108 108">
  <defs>
    <filter id="Path_904820" x="0" y="0" width="108" height="108" filterUnits="userSpaceOnUse">
      <feOffset dy="3" input="SourceAlpha"/>
      <feGaussianBlur stdDeviation="3" result="blur"/>
      <feFlood flood-opacity="0.161"/>
      <feComposite operator="in" in2="blur"/>
      <feComposite in="SourceGraphic"/>
    </filter>
  </defs>
  <g id="Group_1164075" data-name="Group 1164075" transform="translate(-605 -852)">
    <g id="Group_1163237" data-name="Group 1163237">
      <g id="Group_1163009" data-name="Group 1163009" transform="translate(0 -296)">
        <g id="Group_1160503" data-name="Group 1160503" transform="translate(401 -5301)">
          <g id="Icono" transform="translate(213 6455)">
            <g transform="matrix(1, 0, 0, 1, -9, -6)" filter="url(#Path_904820)">
              <g id="Path_904820-2" data-name="Path 904820" transform="translate(9 6)" fill="#ebe9f0">
                <path d="M 45 88.5 C 39.12687683105469 88.5 33.43022537231445 87.35007476806641 28.06830024719238 85.08217620849609 C 22.88852500915527 82.89131164550781 18.23629951477051 79.75458526611328 14.2408504486084 75.75914764404297 C 10.24541282653809 71.76370239257812 7.108687400817871 67.11147308349609 4.917825222015381 61.93170166015625 C 2.649924993515015 56.56977462768555 1.5 50.87312316894531 1.5 45 C 1.5 39.12687683105469 2.649924993515015 33.43022537231445 4.917825222015381 28.06830024719238 C 7.108687400817871 22.88852500915527 10.24541282653809 18.23629951477051 14.2408504486084 14.2408504486084 C 18.23629951477051 10.24541282653809 22.88852500915527 7.108687400817871 28.06830024719238 4.917825222015381 C 33.43022537231445 2.649924993515015 39.12687683105469 1.5 45 1.5 C 50.87312316894531 1.5 56.56977462768555 2.649924993515015 61.93170166015625 4.917825222015381 C 67.11147308349609 7.108687400817871 71.76370239257812 10.24541282653809 75.75914764404297 14.2408504486084 C 79.75458526611328 18.23629951477051 82.89131164550781 22.88852500915527 85.08217620849609 28.06830024719238 C 87.35007476806641 33.43022537231445 88.5 39.12687683105469 88.5 45 C 88.5 50.87312316894531 87.35007476806641 56.56977462768555 85.08217620849609 61.93170166015625 C 82.89131164550781 67.11147308349609 79.75458526611328 71.76370239257812 75.75914764404297 75.75914764404297 C 71.76370239257812 79.75458526611328 67.11147308349609 82.89131164550781 61.93170166015625 85.08217620849609 C 56.56977462768555 87.35007476806641 50.87312316894531 88.5 45 88.5 Z" stroke="none"/>
                <path d="M 45 3 C 39.32871246337891 3 33.82865524291992 4.110054016113281 28.65262985229492 6.299339294433594 C 23.65165710449219 8.414573669433594 19.15968322753906 11.44334411621094 15.301513671875 15.301513671875 C 11.44334411621094 19.15968322753906 8.414573669433594 23.65165710449219 6.299339294433594 28.65262985229492 C 4.110054016113281 33.82865524291992 3 39.32871246337891 3 45 C 3 50.67128753662109 4.110054016113281 56.17134475708008 6.299339294433594 61.34737396240234 C 8.414573669433594 66.34834289550781 11.44334411621094 70.84031677246094 15.301513671875 74.698486328125 C 19.15968322753906 78.55665588378906 23.65165710449219 81.58542633056641 28.65262985229492 83.70066070556641 C 33.82865524291992 85.88994598388672 39.32871246337891 87 45 87 C 50.67128753662109 87 56.17134475708008 85.88994598388672 61.34737396240234 83.70066070556641 C 66.34834289550781 81.58542633056641 70.84031677246094 78.55665588378906 74.698486328125 74.698486328125 C 78.55665588378906 70.84031677246094 81.58542633056641 66.34834289550781 83.70066070556641 61.34737396240234 C 85.88994598388672 56.17134475708008 87 50.67128753662109 87 45 C 87 39.32871246337891 85.88994598388672 33.82865524291992 83.70066070556641 28.65262985229492 C 81.58542633056641 23.65165710449219 78.55665588378906 19.15968322753906 74.698486328125 15.301513671875 C 70.84031677246094 11.44334411621094 66.34834289550781 8.414573669433594 61.34737396240234 6.299339294433594 C 56.17134475708008 4.110054016113281 50.67128753662109 3 45 3 M 45 0 C 69.85281372070312 0 90 20.14718627929688 90 45 C 90 69.85281372070312 69.85281372070312 90 45 90 C 20.14718627929688 90 0 69.85281372070312 0 45 C 0 20.14718627929688 20.14718627929688 0 45 0 Z" stroke="none" fill="#453179"/>
              </g>
            </g>
          </g>
        </g>
      </g>
      <g id="inteligencia-emocional_5_" data-name="inteligencia-emocional (5)" transform="translate(627.5 861.661)">
        <g id="Group_1163236" data-name="Group 1163236" transform="translate(1.187 12.034)">
          <g id="Group_1163224" data-name="Group 1163224" transform="translate(0 6.33)">
            <path id="Path_997891" data-name="Path 997891" d="M22.37,113.6c2.021,2.2,2.687,4.736,3.2,7.312H49.11c-3.232-6.984-5.008-13.918-2.255-20.479,18.064-43-43.918-38.373-35.727-10.194C7.509,95.769,2.7,98.924,9.617,102.3c-2.024,2.084-1.927,3.1.091,4.471-1.026,1.8-1.054,2.963,1.567,3.417-3.661,9.943,8.662,5.036,11.095,3.406Z" transform="translate(-6.102 -68.598)" fill="#ffbfa8" fill-rule="evenodd"/>
          </g>
          <g id="Group_1163225" data-name="Group 1163225" transform="translate(23.949 6.335)">
            <path id="Path_997892" data-name="Path 997892" d="M217.954,120.944h2.426c-3.232-6.984-5.008-13.918-2.255-20.479,9.681-23.045-3.626-32.4-16.8-31.8,12.337.586,23.547,10.184,14.435,31.874C213.008,107.078,214.75,113.988,217.954,120.944Z" transform="translate(-201.32 -68.639)" fill="#fcac8f" fill-rule="evenodd"/>
          </g>
          <g id="Group_1163226" data-name="Group 1163226" transform="translate(49.283 22.378)">
            <path id="Path_997893" data-name="Path 997893" d="M413,199.416v1.155a2.59,2.59,0,0,1-5.165,0v-1.155Z" transform="translate(-407.831 -199.416)" fill="#6eabc9" fill-rule="evenodd"/>
          </g>
          <g id="Group_1163227" data-name="Group 1163227" transform="translate(51.318 22.378)">
            <path id="Path_997894" data-name="Path 997894" d="M427.547,199.416v1.155a2.5,2.5,0,0,1-2.583,2.4,2.839,2.839,0,0,1-.548-.056,2.455,2.455,0,0,0,2.038-2.342v-1.155Z" transform="translate(-424.416 -199.416)" fill="#65a1bf" fill-rule="evenodd"/>
          </g>
          <g id="Group_1163228" data-name="Group 1163228" transform="translate(47.164 18.92)">
            <path id="Path_997895" data-name="Path 997895" d="M399.961,171.224v2.583a1.286,1.286,0,0,1-1.326,1.232h-6.743a1.287,1.287,0,0,1-1.33-1.232v-2.583Z" transform="translate(-390.562 -171.224)" fill="#a9dbf5" fill-rule="evenodd"/>
          </g>
          <g id="Group_1163229" data-name="Group 1163229" transform="translate(54.239 18.92)">
            <path id="Path_997896" data-name="Path 997896" d="M450.552,171.224v2.583a1.286,1.286,0,0,1-1.326,1.232h-1a1.287,1.287,0,0,0,1.33-1.232v-2.583Z" transform="translate(-448.228 -171.224)" fill="#88c3e0" fill-rule="evenodd"/>
          </g>
          <g id="Group_1163230" data-name="Group 1163230" transform="translate(42.415 0)">
            <path id="Path_997897" data-name="Path 997897" d="M370.743,26.249c0,5.511-3.616,5.5-3.616,8.886a1.056,1.056,0,0,1-1.067,1.044h-9.532a1.058,1.058,0,0,1-1.067-1.044c0-3.388-3.616-3.375-3.616-8.886a9.452,9.452,0,0,1,18.9,0Z" transform="translate(-351.844 -17)" fill="#ffd54f" fill-rule="evenodd"/>
          </g>
          <g id="Group_1163231" data-name="Group 1163231" transform="translate(47.098 0)">
            <path id="Path_997898" data-name="Path 997898" d="M394.789,17a9.349,9.349,0,0,1,9.448,9.249c0,5.511-3.616,5.5-3.616,8.886a1.056,1.056,0,0,1-1.068,1.043h-1.092a1.058,1.058,0,0,0,1.068-1.043c0-3.389,3.616-3.375,3.616-8.886a9.333,9.333,0,0,0-8.9-9.231c.182-.011.363-.018.548-.018Z" transform="translate(-390.022 -17.002)" fill="#ffc328" fill-rule="evenodd"/>
          </g>
          <g id="Group_1163232" data-name="Group 1163232" transform="translate(8.303 10.156)">
            <path id="Path_997899" data-name="Path 997899" d="M99.533,120.11a5.908,5.908,0,0,0,4.062-10.2l-.29-.276a7.882,7.882,0,0,0,.154-1.406,7.407,7.407,0,0,0-3.42-5.891,14.767,14.767,0,0,0-8.575-2.548,15.605,15.605,0,0,0-6.816,1.5,9.854,9.854,0,0,0-4.373,3.905,3.913,3.913,0,0,1-.38.332,11.155,11.155,0,0,0-4.52,3.165,6.581,6.581,0,0,0-1.591,4.188c0,6.882,5.315,6.854,10.809,6.826a28.851,28.851,0,0,1,7.347.569c.9.241,2.9,2.2,3.905,2.984a1.015,1.015,0,0,0,1.64-.8v-2.628A10.124,10.124,0,0,0,99.533,120.11Z" transform="translate(-73.784 -99.787)" fill="#df646e"/>
          </g>
          <g id="Group_1163233" data-name="Group 1163233" transform="translate(25.362 10.156)">
            <path id="Path_997900" data-name="Path 997900" d="M221.532,120.11a5.908,5.908,0,0,0,4.062-10.2l-.29-.276a7.882,7.882,0,0,0,.154-1.406,7.407,7.407,0,0,0-3.42-5.891,14.767,14.767,0,0,0-8.575-2.548c-.209,0-.415,0-.621.011a14.575,14.575,0,0,1,7.954,2.537,7.407,7.407,0,0,1,3.42,5.891,8.214,8.214,0,0,1-.154,1.406l.29.276a5.913,5.913,0,0,1-3.431,10.17A5.713,5.713,0,0,0,221.532,120.11Z" transform="translate(-212.842 -99.787)" fill="#d82f3c"/>
          </g>
          <g id="Group_1163234" data-name="Group 1163234" transform="translate(18.305 14.864)">
            <path id="Path_997901" data-name="Path 997901" d="M156.366,139.213a3.6,3.6,0,0,1,5.075,0,3.589,3.589,0,1,1,5.078,5.075l-5.078,5.074-5.075-5.074A3.6,3.6,0,0,1,156.366,139.213Z" transform="translate(-155.319 -138.166)" fill="#55d1f5" fill-rule="evenodd"/>
          </g>
          <g id="Group_1163235" data-name="Group 1163235" transform="translate(23.928 15.018)">
            <path id="Path_997902" data-name="Path 997902" d="M205.231,139.418a3.551,3.551,0,0,1,1.5.893,3.6,3.6,0,0,1,0,5.075l-5.078,5.074-.5-.5,4.876-4.876a3.579,3.579,0,0,0-.8-5.671Z" transform="translate(-201.151 -139.418)" fill="#41c4e8" fill-rule="evenodd"/>
          </g>
        </g>
        <path id="Path_997903" data-name="Path 997903" d="M44.9,70.15a.857.857,0,0,1-.778,1.217H20.714a.857.857,0,0,1-.841-.69,14.132,14.132,0,0,0-2.523-6.336C14.994,65.617,8.94,68.01,6.234,65.879c-1.322-1.041-1.6-2.858-.843-5.409a2.731,2.731,0,0,1-1.759-1.334,2.86,2.86,0,0,1,.208-2.428,3.1,3.1,0,0,1-1.3-2.038,3.443,3.443,0,0,1,.942-2.418C1.806,51.275.878,50.235.592,49.024.1,46.947,1.655,44.91,3.454,42.552c.651-.853,1.322-1.733,1.967-2.692C3.426,32.477,5.973,25.84,12.447,21.6a25.627,25.627,0,0,1,13.913-3.972h.106a21.3,21.3,0,0,1,13.585,4.508,16.455,16.455,0,0,1,5.8,10.848c.667,5-.4,10.886-3.173,17.486A17.407,17.407,0,0,0,42,52.431a.857.857,0,1,1-1.65-.464,19.088,19.088,0,0,1,.749-2.155c4.932-11.74,4.172-21.1-2.139-26.355-6.359-5.3-17.829-5.485-25.568-.42-3.474,2.274-8.9,7.471-6.211,16.731a.857.857,0,0,1-.106.708c-.743,1.137-1.545,2.189-2.253,3.116C3.282,45.6,1.956,47.342,2.26,48.63c.208.88,1.179,1.733,2.969,2.608a.857.857,0,0,1,.238,1.367c-.847.872-1.257,1.509-1.218,1.893.032.321.416.729,1.174,1.248a.857.857,0,0,1,.26,1.133c-.6,1.055-.551,1.419-.5,1.526.042.089.271.395,1.464.6a.857.857,0,0,1,.658,1.141C6.734,61.7,6.268,63.723,7.3,64.532c1.869,1.472,7.843-.721,9.763-2.006a.857.857,0,0,1,1.108.132,14.053,14.053,0,0,1,3.247,6.994H42.8a34.9,34.9,0,0,1-3-10.31.857.857,0,0,1,1.7-.182,35.151,35.151,0,0,0,3.4,10.99ZM20,33.672a4.439,4.439,0,0,1,0-6.262h0a4.433,4.433,0,0,1,5.652-.507A4.427,4.427,0,0,1,31.3,33.672l-5.046,5.046a.857.857,0,0,1-1.212,0Zm1.212-5.05a2.725,2.725,0,0,0,0,3.837l4.44,4.44,4.44-4.44a2.712,2.712,0,1,0-3.834-3.837.857.857,0,0,1-1.212,0,2.714,2.714,0,0,0-3.834,0ZM63.188,21.39a8.393,8.393,0,0,1-2.323,6.153,3.868,3.868,0,0,0-1.273,2.687,1.9,1.9,0,0,1-1.128,1.724v1.625a2.128,2.128,0,0,1-2.1,2.079,3.287,3.287,0,0,1-2.567,3.076V51.568a5.252,5.252,0,0,1-5.248,5.244H23.272a5.25,5.25,0,0,1-5.244-5.244v-8.62c-2.894-.064-5.639-.422-7.4-2.174a7.317,7.317,0,0,1-1.872-5.462A7.433,7.433,0,0,1,10.53,30.6a11.868,11.868,0,0,1,4.734-3.354l.123-.114c.021-.037.045-.073.067-.11L15.469,27a10.733,10.733,0,0,1,4.573-3.981,16.387,16.387,0,0,1,7.156-1.58,15.517,15.517,0,0,1,9.028,2.7,8.165,8.165,0,0,1,3.757,6.558,7.094,7.094,0,0,1-.091,1.087,6.736,6.736,0,0,1-4.674,11.588,7,7,0,0,1-1.177-.105v1.573a1.868,1.868,0,0,1-3.015,1.479c-.318-.246-.72-.6-1.145-.965a13.318,13.318,0,0,0-2.434-1.854,28.217,28.217,0,0,0-7.083-.533l-.622,0v8.608a3.534,3.534,0,0,0,3.53,3.53H48.545a3.535,3.535,0,0,0,3.533-3.53V38.735a3.287,3.287,0,0,1-2.57-3.077,2.13,2.13,0,0,1-2.1-2.079V31.954a1.9,1.9,0,0,1-1.128-1.724A3.868,3.868,0,0,0,45,27.543,8.394,8.394,0,0,1,42.68,21.39a10.256,10.256,0,0,1,20.508,0ZM11.835,39.558c1.477,1.47,4.1,1.669,7.014,1.686l.035,0,.043,0c.469,0,.945,0,1.426,0,.383,0,.768,0,1.153,0a25.262,25.262,0,0,1,6.383.6,10.319,10.319,0,0,1,3.117,2.217c.406.353.789.686,1.07.9a.132.132,0,0,0,.161.016.137.137,0,0,0,.089-.139V42.792a7.477,7.477,0,0,1-3.3-2.725.857.857,0,0,1,1.424-.955,5.766,5.766,0,0,0,3.109,2.305l.108.022a7.612,7.612,0,0,0,1.554.209,5.02,5.02,0,0,0,3.6-8.523,6.833,6.833,0,0,1-2.713.522,9.486,9.486,0,0,1-2.62-.383.857.857,0,1,1,.476-1.647,6.263,6.263,0,0,0,4.235-.089,5.439,5.439,0,0,0,.074-.84,6.508,6.508,0,0,0-3.046-5.167A13.8,13.8,0,0,0,27.2,23.15a14.663,14.663,0,0,0-6.4,1.405,9.04,9.04,0,0,0-3.856,3.321c-.944,1.878-.159,4.892,1.172,6.538a.857.857,0,1,1-1.333,1.078,9.352,9.352,0,0,1-1.952-6.154,9.569,9.569,0,0,0-2.969,2.348,5.74,5.74,0,0,0-1.388,3.625,5.728,5.728,0,0,0,1.367,4.247Zm42.807-3.9H51.225a1.73,1.73,0,0,0,3.418,0Zm2.107-2.082V32.125H49.118v1.454a.431.431,0,0,0,.465.368h6.705A.434.434,0,0,0,56.75,33.579ZM53.2,30.41l.681-6.233a4.443,4.443,0,0,1-.7.055h-.493a4.449,4.449,0,0,1-.7-.055l.678,6.233Zm8.276-9.02a8.542,8.542,0,0,0-17.079,0,6.752,6.752,0,0,0,1.921,5.05A5.463,5.463,0,0,1,47.99,30.23a.2.2,0,0,0,.2.18h2.751l-.756-6.951A4.426,4.426,0,0,1,48.257,19.8a.857.857,0,0,1,1.715,0,2.719,2.719,0,0,0,2.717,2.714h.493A2.717,2.717,0,0,0,55.9,19.8a.857.857,0,1,1,1.715,0,4.427,4.427,0,0,1-1.929,3.654l-.759,6.953h2.751a.2.2,0,0,0,.2-.18,5.463,5.463,0,0,1,1.674-3.789,6.752,6.752,0,0,0,1.921-5.05Z" transform="translate(0)"/>
      </g>
    </g>
  </g>
</svg>
