<svg xmlns="http://www.w3.org/2000/svg" xmlns:xlink="http://www.w3.org/1999/xlink" width="108" height="108" viewBox="0 0 108 108">
  <defs>
    <filter id="Path_904820" x="0" y="0" width="108" height="108" filterUnits="userSpaceOnUse">
      <feOffset dy="3" input="SourceAlpha"/>
      <feGaussianBlur stdDeviation="3" result="blur"/>
      <feFlood flood-opacity="0.161"/>
      <feComposite operator="in" in2="blur"/>
      <feComposite in="SourceGraphic"/>
    </filter>
  </defs>
  <g id="Group_1164083" data-name="Group 1164083" transform="translate(-716 -3867)">
    <g id="Group_1163247" data-name="Group 1163247">
      <g id="Group_1163012" data-name="Group 1163012" transform="translate(556 1921)">
        <g id="Group_1160531" data-name="Group 1160531" transform="translate(169 1952)">
          <g id="Icono">
            <g transform="matrix(1, 0, 0, 1, -9, -6)" filter="url(#Path_904820)">
              <g id="Path_904820-2" data-name="Path 904820" transform="translate(9 6)" fill="#ebe9f0">
                <path d="M 45 88.5 C 39.12687683105469 88.5 33.43022537231445 87.35007476806641 28.06830024719238 85.08217620849609 C 22.88852500915527 82.89131164550781 18.23629951477051 79.75458526611328 14.2408504486084 75.75914764404297 C 10.24541282653809 71.76370239257812 7.108687400817871 67.11147308349609 4.917825222015381 61.93170166015625 C 2.649924993515015 56.56977462768555 1.5 50.87312316894531 1.5 45 C 1.5 39.12687683105469 2.649924993515015 33.43022537231445 4.917825222015381 28.06830024719238 C 7.108687400817871 22.88852500915527 10.24541282653809 18.23629951477051 14.2408504486084 14.2408504486084 C 18.23629951477051 10.24541282653809 22.88852500915527 7.108687400817871 28.06830024719238 4.917825222015381 C 33.43022537231445 2.649924993515015 39.12687683105469 1.5 45 1.5 C 50.87312316894531 1.5 56.56977462768555 2.649924993515015 61.93170166015625 4.917825222015381 C 67.11147308349609 7.108687400817871 71.76370239257812 10.24541282653809 75.75914764404297 14.2408504486084 C 79.75458526611328 18.23629951477051 82.89131164550781 22.88852500915527 85.08217620849609 28.06830024719238 C 87.35007476806641 33.43022537231445 88.5 39.12687683105469 88.5 45 C 88.5 50.87312316894531 87.35007476806641 56.56977462768555 85.08217620849609 61.93170166015625 C 82.89131164550781 67.11147308349609 79.75458526611328 71.76370239257812 75.75914764404297 75.75914764404297 C 71.76370239257812 79.75458526611328 67.11147308349609 82.89131164550781 61.93170166015625 85.08217620849609 C 56.56977462768555 87.35007476806641 50.87312316894531 88.5 45 88.5 Z" stroke="none"/>
                <path d="M 45 3 C 39.32871246337891 3 33.82865524291992 4.110054016113281 28.65262985229492 6.299339294433594 C 23.65165710449219 8.414573669433594 19.15968322753906 11.44334411621094 15.301513671875 15.301513671875 C 11.44334411621094 19.15968322753906 8.414573669433594 23.65165710449219 6.299339294433594 28.65262985229492 C 4.110054016113281 33.82865524291992 3 39.32871246337891 3 45 C 3 50.67128753662109 4.110054016113281 56.17134475708008 6.299339294433594 61.34737396240234 C 8.414573669433594 66.34834289550781 11.44334411621094 70.84031677246094 15.301513671875 74.698486328125 C 19.15968322753906 78.55665588378906 23.65165710449219 81.58542633056641 28.65262985229492 83.70066070556641 C 33.82865524291992 85.88994598388672 39.32871246337891 87 45 87 C 50.67128753662109 87 56.17134475708008 85.88994598388672 61.34737396240234 83.70066070556641 C 66.34834289550781 81.58542633056641 70.84031677246094 78.55665588378906 74.698486328125 74.698486328125 C 78.55665588378906 70.84031677246094 81.58542633056641 66.34834289550781 83.70066070556641 61.34737396240234 C 85.88994598388672 56.17134475708008 87 50.67128753662109 87 45 C 87 39.32871246337891 85.88994598388672 33.82865524291992 83.70066070556641 28.65262985229492 C 81.58542633056641 23.65165710449219 78.55665588378906 19.15968322753906 74.698486328125 15.301513671875 C 70.84031677246094 11.44334411621094 66.34834289550781 8.414573669433594 61.34737396240234 6.299339294433594 C 56.17134475708008 4.110054016113281 50.67128753662109 3 45 3 M 45 0 C 69.85281372070312 0 90 20.14718627929688 90 45 C 90 69.85281372070312 69.85281372070312 90 45 90 C 20.14718627929688 90 0 69.85281372070312 0 45 C 0 20.14718627929688 20.14718627929688 0 45 0 Z" stroke="none" fill="#453179"/>
              </g>
            </g>
          </g>
        </g>
      </g>
      <g id="emocional_2_" data-name="emocional (2)" transform="translate(696.302 3887)">
        <g id="Group_1163245" data-name="Group 1163245" transform="translate(49.494 0.918)">
          <g id="Group_1163244" data-name="Group 1163244" transform="translate(0 9.784)">
            <path id="Path_997925" data-name="Path 997925" d="M364.268,98.036H359.6V87.409h10.625a1.137,1.137,0,0,1,1.137,1.137v2.393A7.1,7.1,0,0,1,364.268,98.036Z" transform="translate(-322.331 -87.409)" fill="#a79ba7"/>
            <path id="Path_997926" data-name="Path 997926" d="M364.268,276.371H359.6V265.744h10.625a1.137,1.137,0,0,1,1.137,1.137v2.393A7.1,7.1,0,0,1,364.268,276.371Z" transform="translate(-322.331 -243.909)" fill="#a79ba7"/>
            <path id="Path_997927" data-name="Path 997927" d="M62.294,98.036H66.96V87.409H56.334A1.137,1.137,0,0,0,55.2,88.546v2.393A7.1,7.1,0,0,0,62.294,98.036Z" transform="translate(-55.197 -87.409)" fill="#a79ba7"/>
            <path id="Path_997928" data-name="Path 997928" d="M62.294,276.371H66.96V265.744H56.334a1.137,1.137,0,0,0-1.137,1.137v2.393A7.1,7.1,0,0,0,62.294,276.371Z" transform="translate(-55.197 -243.909)" fill="#a79ba7"/>
          </g>
          <path id="Path_997929" data-name="Path 997929" d="M236.665,442.053h-4.682a.674.674,0,0,1-.674-.674v-8.02h6.03v8.02A.674.674,0,0,1,236.665,442.053Z" transform="translate(-209.746 -381.216)" fill="#cbc4cc"/>
          <path id="Path_997930" data-name="Path 997930" d="M179.822,407.286v2.579a2.151,2.151,0,0,0,2.151,2.151h14.214a2.151,2.151,0,0,0,2.151-2.151V405.1H179.822Z" transform="translate(-164.563 -356.413)" fill="#a79ba7"/>
          <path id="Path_997931" data-name="Path 997931" d="M106.786,97.992a7.176,7.176,0,0,0,.78.044h4.666V87.409h-5.446Z" transform="translate(-100.469 -77.625)" fill="#918291"/>
          <path id="Path_997932" data-name="Path 997932" d="M106.786,276.327a7.164,7.164,0,0,0,.78.044h4.666V265.744h-5.446Z" transform="translate(-100.469 -234.125)" fill="#918291"/>
          <path id="Path_997933" data-name="Path 997933" d="M365.17,276.313V265.745H359.6v10.627h4.666A7.181,7.181,0,0,0,365.17,276.313Z" transform="translate(-322.331 -234.125)" fill="#918291"/>
          <path id="Path_997934" data-name="Path 997934" d="M365.17,97.977V87.409H359.6V98.036h4.666A7.156,7.156,0,0,0,365.17,97.977Z" transform="translate(-322.331 -77.625)" fill="#918291"/>
          <path id="Path_997935" data-name="Path 997935" d="M155.949,58.373h-26.7a2.463,2.463,0,0,1-2.463-2.463V9.963A2.463,2.463,0,0,1,129.249,7.5h26.7a2.463,2.463,0,0,1,2.463,2.463V55.91A2.463,2.463,0,0,1,155.949,58.373Z" transform="translate(-118.021 -7.5)" fill="#62dbfb"/>
          <path id="Path_997936" data-name="Path 997936" d="M156.786,80.385V38.141a.641.641,0,0,1,.641-.641h23a.641.641,0,0,1,.641.641V80.385a.641.641,0,0,1-.641.641h-23A.641.641,0,0,1,156.786,80.385Z" transform="translate(-144.347 -33.827)" fill="#f3f0f3"/>
          <circle id="Ellipse_12453" data-name="Ellipse 12453" cx="8.555" cy="8.555" r="8.555" transform="translate(16.024 27.129)" fill="#fe646f"/>
          <circle id="Ellipse_12454" data-name="Ellipse 12454" cx="8.555" cy="8.555" r="8.555" transform="translate(16.024 6.523)" fill="#fef056"/>
          <path id="Path_997937" data-name="Path 997937" d="M191.208,237.628a8.558,8.558,0,0,1,5.983-8.161,8.555,8.555,0,1,0,0,16.322A8.558,8.558,0,0,1,191.208,237.628Z" transform="translate(-170.042 -201.944)" fill="#fb2b3a"/>
          <path id="Path_997938" data-name="Path 997938" d="M191.208,69.331a8.558,8.558,0,0,1,5.983-8.161,8.555,8.555,0,1,0,0,16.322A8.558,8.558,0,0,1,191.208,69.331Z" transform="translate(-170.042 -54.253)" fill="#fee903"/>
        </g>
        <g id="Group_1163246" data-name="Group 1163246" transform="translate(48.698)">
          <path id="Path_997939" data-name="Path 997939" d="M149.367,0h-26.7a3.385,3.385,0,0,0-3.381,3.381V49.328a3.385,3.385,0,0,0,3.381,3.381h3.112V54.37a3.073,3.073,0,0,0,3.069,3.069h3.235v4.316a.918.918,0,1,0,1.837,0V57.439h4.193v4.316a.918.918,0,1,0,1.837,0V57.439h3.113a3.073,3.073,0,0,0,3.069-3.069V52.709h3.235a3.385,3.385,0,0,0,3.381-3.381V3.381A3.385,3.385,0,0,0,149.367,0ZM144.3,54.37a1.234,1.234,0,0,1-1.232,1.232H128.849a1.234,1.234,0,0,1-1.232-1.232V52.709H144.3V54.37Zm6.616-5.042a1.547,1.547,0,0,1-1.545,1.545h-26.7a1.547,1.547,0,0,1-1.545-1.545V3.381a1.547,1.547,0,0,1,1.545-1.545h26.7a1.547,1.547,0,0,1,1.545,1.545V49.328Z" transform="translate(-110.643)"/>
          <path id="Path_997940" data-name="Path 997940" d="M174.484,30H150.2a.918.918,0,0,0-.918.918V74.445a.918.918,0,0,0,.918.918h24.279a.918.918,0,0,0,.918-.918v-19.4a.918.918,0,0,0-1.837,0V73.526H151.123V31.837h22.443V51.131a.918.918,0,0,0,1.837,0V30.918A.918.918,0,0,0,174.484,30Z" transform="translate(-136.97 -26.327)"/>
          <path id="Path_997941" data-name="Path 997941" d="M188.039,53.277a9.484,9.484,0,0,0-9.473,9.473,9.382,9.382,0,0,0,.956,4.15.918.918,0,1,0,1.65-.806,7.561,7.561,0,0,1-.77-3.344,7.636,7.636,0,1,1,7.636,7.636,7.567,7.567,0,0,1-4.6-1.544.918.918,0,1,0-1.109,1.464,9.472,9.472,0,0,0,15.185-7.557A9.484,9.484,0,0,0,188.039,53.277Z" transform="translate(-162.665 -46.754)"/>
          <path id="Path_997942" data-name="Path 997942" d="M181.368,236.478a.918.918,0,0,0,.006,1.3,9.441,9.441,0,1,0-2.383-3.918.918.918,0,0,0,1.754-.544,7.647,7.647,0,1,1,1.922,3.158A.918.918,0,0,0,181.368,236.478Z" transform="translate(-162.665 -194.444)"/>
          <path id="Path_997943" data-name="Path 997943" d="M212.458,139.178a.918.918,0,0,0-.472,1.21,5.8,5.8,0,0,0,10.626,0,.918.918,0,0,0-1.682-.738,3.961,3.961,0,0,1-7.262,0A.918.918,0,0,0,212.458,139.178Z" transform="translate(-191.924 -122.069)"/>
          <path id="Path_997944" data-name="Path 997944" d="M223.514,93.466a.918.918,0,0,0,.918-.918v-1.1a.918.918,0,0,0-1.837,0v1.1A.918.918,0,0,0,223.514,93.466Z" transform="translate(-201.304 -79.446)"/>
          <path id="Path_997945" data-name="Path 997945" d="M276.108,92.547v-1.1a.918.918,0,1,0-1.837,0v1.1a.918.918,0,1,0,1.837,0Z" transform="translate(-246.652 -79.446)"/>
          <path id="Path_997946" data-name="Path 997946" d="M220.272,311.234a.918.918,0,1,0,1.311,1.286,3.952,3.952,0,0,1,5.65,0,.918.918,0,1,0,1.311-1.286,5.788,5.788,0,0,0-8.272,0Z" transform="translate(-199.033 -271.6)"/>
          <path id="Path_997947" data-name="Path 997947" d="M217.82,260.235l-2.418-1.807a.918.918,0,0,0-1.1,1.471l.744.556v1.083a11.032,11.032,0,0,1,2.223.351.918.918,0,0,0,.55-1.654Z" transform="translate(-193.702 -226.625)"/>
          <path id="Path_997948" data-name="Path 997948" d="M264.1,261.888a.917.917,0,0,1,1.305.567.918.918,0,0,0,.918-.918v-1.083l.744-.556a.918.918,0,1,0-1.1-1.471l-2.418,1.807a.918.918,0,0,0,.551,1.654Z" transform="translate(-236.921 -226.624)"/>
          <path id="Path_997949" data-name="Path 997949" d="M412.505,79.909H408.5a.918.918,0,1,0,0,1.837h4.007a.044.044,0,0,1,.044.044v2.551a6.679,6.679,0,0,1-4.367,6.251.918.918,0,1,0,.631,1.725,8.522,8.522,0,0,0,5.572-7.976V81.79A1.883,1.883,0,0,0,412.505,79.909Z" transform="translate(-363.637 -70.125)"/>
          <path id="Path_997950" data-name="Path 997950" d="M54.586,79.909H50.578a1.883,1.883,0,0,0-1.88,1.88v2.551a8.522,8.522,0,0,0,5.572,7.976.918.918,0,1,0,.631-1.725,6.679,6.679,0,0,1-4.367-6.251V81.79a.044.044,0,0,1,.044-.044h4.007a.918.918,0,0,0,0-1.837Z" transform="translate(-48.698 -70.125)"/>
          <path id="Path_997951" data-name="Path 997951" d="M412.505,258.245H408.5a.918.918,0,1,0,0,1.837h4.007a.044.044,0,0,1,.044.044v2.551a6.679,6.679,0,0,1-4.367,6.251.918.918,0,1,0,.631,1.725,8.522,8.522,0,0,0,5.572-7.976v-2.551A1.882,1.882,0,0,0,412.505,258.245Z" transform="translate(-363.637 -226.625)"/>
          <path id="Path_997952" data-name="Path 997952" d="M50.578,260.082h4.007a.918.918,0,1,0,0-1.837H50.578a1.883,1.883,0,0,0-1.88,1.88v2.551a8.522,8.522,0,0,0,5.572,7.976.918.918,0,1,0,.631-1.725,6.679,6.679,0,0,1-4.367-6.251v-2.551A.044.044,0,0,1,50.578,260.082Z" transform="translate(-48.698 -226.625)"/>
        </g>
      </g>
    </g>
  </g>
</svg>
