<svg xmlns="http://www.w3.org/2000/svg" xmlns:xlink="http://www.w3.org/1999/xlink" width="108" height="108" viewBox="0 0 108 108">
  <defs>
    <filter id="Path_982547" x="0" y="0" width="108" height="108" filterUnits="userSpaceOnUse">
      <feOffset dy="3" input="SourceAlpha"/>
      <feGaussianBlur stdDeviation="3" result="blur"/>
      <feFlood flood-opacity="0.161"/>
      <feComposite operator="in" in2="blur"/>
      <feComposite in="SourceGraphic"/>
    </filter>
  </defs>
  <g id="Group_1164126" data-name="Group 1164126" transform="translate(-588 -9009.999)">
    <g id="Group_1163936" data-name="Group 1163936" transform="translate(0 222)">
      <g id="Group_1163124" data-name="Group 1163124" transform="translate(0 7937.999)">
        <g id="Group_1159932" data-name="Group 1159932" transform="translate(0 443)">
          <g id="Group_1149836" data-name="Group 1149836" transform="translate(0 -4452)">
            <g id="Group_1149674" data-name="Group 1149674" transform="translate(-158 -2821)">
              <g id="Group_1148534" data-name="Group 1148534" transform="translate(156 4253)">
                <g id="Group_1147066" data-name="Group 1147066" transform="translate(-26 -556)">
                  <g transform="matrix(1, 0, 0, 1, 616, 3983)" filter="url(#Path_982547)">
                    <g id="Path_982547-2" data-name="Path 982547" transform="translate(9 6)" fill="#f4fdfe">
                      <path d="M 45 88.5 C 39.12687683105469 88.5 33.43022537231445 87.35007476806641 28.06830024719238 85.08217620849609 C 22.88852500915527 82.89131164550781 18.23629951477051 79.75458526611328 14.2408504486084 75.75914764404297 C 10.24541282653809 71.76370239257812 7.108687400817871 67.11147308349609 4.917825222015381 61.93170166015625 C 2.649924993515015 56.56977462768555 1.5 50.87312316894531 1.5 45 C 1.5 39.12687683105469 2.649924993515015 33.43022537231445 4.917825222015381 28.06830024719238 C 7.108687400817871 22.88852500915527 10.24541282653809 18.23629951477051 14.2408504486084 14.2408504486084 C 18.23629951477051 10.24541282653809 22.88852500915527 7.108687400817871 28.06830024719238 4.917825222015381 C 33.43022537231445 2.649924993515015 39.12687683105469 1.5 45 1.5 C 50.87312316894531 1.5 56.56977462768555 2.649924993515015 61.93170166015625 4.917825222015381 C 67.11147308349609 7.108687400817871 71.76370239257812 10.24541282653809 75.75914764404297 14.2408504486084 C 79.75458526611328 18.23629951477051 82.89131164550781 22.88852500915527 85.08217620849609 28.06830024719238 C 87.35007476806641 33.43022537231445 88.5 39.12687683105469 88.5 45 C 88.5 50.87312316894531 87.35007476806641 56.56977462768555 85.08217620849609 61.93170166015625 C 82.89131164550781 67.11147308349609 79.75458526611328 71.76370239257812 75.75914764404297 75.75914764404297 C 71.76370239257812 79.75458526611328 67.11147308349609 82.89131164550781 61.93170166015625 85.08217620849609 C 56.56977462768555 87.35007476806641 50.87312316894531 88.5 45 88.5 Z" stroke="none"/>
                      <path d="M 45 3 C 39.32871246337891 3 33.82865524291992 4.110054016113281 28.65262985229492 6.299339294433594 C 23.65165710449219 8.414573669433594 19.15968322753906 11.44334411621094 15.301513671875 15.301513671875 C 11.44334411621094 19.15968322753906 8.414573669433594 23.65165710449219 6.299339294433594 28.65262985229492 C 4.110054016113281 33.82865524291992 3 39.32871246337891 3 45 C 3 50.67128753662109 4.110054016113281 56.17134475708008 6.299339294433594 61.34737396240234 C 8.414573669433594 66.34834289550781 11.44334411621094 70.84031677246094 15.301513671875 74.698486328125 C 19.15968322753906 78.55665588378906 23.65165710449219 81.58542633056641 28.65262985229492 83.70066070556641 C 33.82865524291992 85.88994598388672 39.32871246337891 87 45 87 C 50.67128753662109 87 56.17134475708008 85.88994598388672 61.34737396240234 83.70066070556641 C 66.34834289550781 81.58542633056641 70.84031677246094 78.55665588378906 74.698486328125 74.698486328125 C 78.55665588378906 70.84031677246094 81.58542633056641 66.34834289550781 83.70066070556641 61.34737396240234 C 85.88994598388672 56.17134475708008 87 50.67128753662109 87 45 C 87 39.32871246337891 85.88994598388672 33.82865524291992 83.70066070556641 28.65262985229492 C 81.58542633056641 23.65165710449219 78.55665588378906 19.15968322753906 74.698486328125 15.301513671875 C 70.84031677246094 11.44334411621094 66.34834289550781 8.414573669433594 61.34737396240234 6.299339294433594 C 56.17134475708008 4.110054016113281 50.67128753662109 3 45 3 M 45 0 C 69.85281372070312 0 90 20.14718627929688 90 45 C 90 69.85281372070312 69.85281372070312 90 45 90 C 20.14718627929688 90 0 69.85281372070312 0 45 C 0 20.14718627929688 20.14718627929688 0 45 0 Z" stroke="none" fill="#56838a"/>
                    </g>
                  </g>
                </g>
              </g>
            </g>
          </g>
        </g>
      </g>
      <g id="Layer_32" transform="translate(609.49 8809.527)">
        <path id="Path_998417" data-name="Path 998417" d="M96.855,2.5H81.128A3.833,3.833,0,0,0,77.3,6.328v6.71a3.833,3.833,0,0,0,3.828,3.828h4.058a1.414,1.414,0,0,1,1.176.623l2.283,3.482a.4.4,0,0,0,.553.115.278.278,0,0,0,.115-.115L91.6,17.489a1.384,1.384,0,0,1,1.176-.623h4.058a3.833,3.833,0,0,0,3.828-3.828V6.328A3.8,3.8,0,0,0,96.855,2.5Z" transform="translate(-56.481 -1.962)" fill="#6dcc6d"/>
        <path id="Path_998418" data-name="Path 998418" d="M187.274,32.7H175.79a2.578,2.578,0,0,0-1.476.438v3.136A3.816,3.816,0,0,1,173,39.157V40.4a2.82,2.82,0,0,0,2.79,2.813h2.975a1.039,1.039,0,0,1,.853.461l1.683,2.537a.323.323,0,0,0,.415.092c.023-.023.069-.046.092-.092l1.683-2.537a1.039,1.039,0,0,1,.853-.461h2.975a2.79,2.79,0,0,0,2.79-2.813V35.513A2.891,2.891,0,0,0,187.274,32.7Z" transform="translate(-130.113 -25.198)" fill="#ffcd29"/>
        <path id="Path_998419" data-name="Path 998419" d="M24.75,36.274V33.138a2.764,2.764,0,0,0-1.476-.438H11.79A2.82,2.82,0,0,0,9,35.513v4.912a2.82,2.82,0,0,0,2.79,2.813h2.975a1.039,1.039,0,0,1,.853.461L17.3,46.236a.323.323,0,0,0,.415.092c.023-.023.069-.046.092-.092L19.492,43.7a1.039,1.039,0,0,1,.853-.461H23.32a2.824,2.824,0,0,0,2.813-2.813V39.18A3.738,3.738,0,0,1,24.75,36.274Z" transform="translate(-3.931 -25.198)" fill="#55acd5"/>
        <path id="Path_998420" data-name="Path 998420" d="M107.36,93.007a3.2,3.2,0,0,0-1.637.461A3.236,3.236,0,0,0,103,91.9h-1.637A5.782,5.782,0,0,0,95.6,97.665v2.583a2.322,2.322,0,0,1,1.8-.484v-.277a.305.305,0,0,1,.3-.3h.069a6.03,6.03,0,0,0,6.042-1.983.276.276,0,0,1,.415-.046l.023.023a5.772,5.772,0,0,0,4.012,1.453.286.286,0,0,1,.277.3v.83a2.34,2.34,0,0,1,1.983.623v-4.2A3.169,3.169,0,0,0,107.36,93.007Z" transform="translate(-70.561 -70.747)" fill="#6d6c6b"/>
        <path id="Path_998421" data-name="Path 998421" d="M24.58,104.8a6.2,6.2,0,0,0-6.18,6.18v4.266a6.085,6.085,0,0,0,.553,2.56,1.571,1.571,0,0,0,1.453.922h2.375v-.461a4.309,4.309,0,0,1-2.375-3.92V112.41a.512.512,0,0,1,.507-.507h.161a4.231,4.231,0,0,0,3.321-1.591.51.51,0,0,1,.715-.069l.069.069A4.231,4.231,0,0,0,28.5,111.9h0a.492.492,0,0,1,.507.484h0v2.029a4.34,4.34,0,0,1-2.26,3.782v.53h1.983a1.609,1.609,0,0,0,1.453-.922,5.821,5.821,0,0,0,.553-2.56V110.98A6.175,6.175,0,0,0,24.58,104.8Z" transform="translate(-11.163 -80.672)" fill="#898989"/>
        <path id="Path_998422" data-name="Path 998422" d="M190,101.5a5.821,5.821,0,0,0-6,5.6v1.914a1.975,1.975,0,0,1,1.015-.277,1.315,1.315,0,0,1,.3.023v-.115s1.291-.715,1.291-1.822V106.8a.9.9,0,0,1,.9-.9.639.639,0,0,1,.208.023,10.667,10.667,0,0,0,4.52,0,.921.921,0,0,1,1.107.646.638.638,0,0,1,.023.208v.023c0,1.084,1.291,1.822,1.291,1.822v.115a1.315,1.315,0,0,1,.3-.023,1.975,1.975,0,0,1,1.015.277V107.08A5.8,5.8,0,0,0,190,101.5Z" transform="translate(-138.576 -78.133)" fill="#e9e9ea"/>
        <path id="Path_998423" data-name="Path 998423" d="M39.314,163.53h0a4.257,4.257,0,0,1-1.914-.461v1.591l.669,1.937a.278.278,0,0,0,.277.184h2.075a.3.3,0,0,0,.277-.184l.669-1.937V163A4.251,4.251,0,0,1,39.314,163.53Z" transform="translate(-25.782 -125.451)" fill="#f9d0b4"/>
        <path id="Path_998424" data-name="Path 998424" d="M230.523,132.942a1.522,1.522,0,0,0-.323.023c0,.092.023.184.023.3v3.021a1.315,1.315,0,0,1-.023.3,1.418,1.418,0,0,0,.323.023,1.838,1.838,0,1,0,.254-3.666.474.474,0,0,0-.254,0Z" transform="translate(-174.123 -102.311)" fill="#f9d0b4"/>
        <path id="Path_998425" data-name="Path 998425" d="M182.145,133.208a1.314,1.314,0,0,1,.023-.3,1.417,1.417,0,0,0-.323-.023,1.838,1.838,0,1,0-.254,3.666h.254a1.522,1.522,0,0,0,.323-.023c0-.092-.023-.184-.023-.3Z" transform="translate(-135.407 -102.278)" fill="#f9d0b4"/>
        <path id="Path_998426" data-name="Path 998426" d="M197.848,121.612v-.023a.9.9,0,0,0-.9-.9.639.639,0,0,0-.208.023,10.667,10.667,0,0,1-4.52,0,.921.921,0,0,0-1.107.646.639.639,0,0,0-.023.208v.023c0,1.084-1.291,1.822-1.291,1.822v3.344a4.689,4.689,0,0,0,9.362.092v-3.436A2.4,2.4,0,0,1,197.848,121.612Z" transform="translate(-143.039 -92.896)" fill="#f9d0b4"/>
        <path id="Path_998427" data-name="Path 998427" d="M152.169,125.9a1.983,1.983,0,0,0-.369.023c0,.115.023.254.023.369v3.851a1.983,1.983,0,0,1-.023.369,2.326,2.326,0,1,0,.761-4.589,2.371,2.371,0,0,0-.392-.023Z" transform="translate(-113.801 -96.906)" fill="#f9d0b4"/>
        <path id="Path_998428" data-name="Path 998428" d="M94.548,126.265a1.983,1.983,0,0,1,.023-.369,2.326,2.326,0,0,0-.761,4.589,2.239,2.239,0,0,0,.784,0c0-.115-.023-.254-.023-.369Z" transform="translate(-67.687 -96.88)" fill="#f9d0b4"/>
        <path id="Path_998429" data-name="Path 998429" d="M114.715,116.264a.32.32,0,0,0-.277-.3,5.881,5.881,0,0,1-4.012-1.453.292.292,0,0,0-.415,0l-.023.023a6.04,6.04,0,0,1-6.042,1.983.293.293,0,0,0-.346.231v4.566a5.569,5.569,0,0,0,11.138,0v-4.958A.174.174,0,0,1,114.715,116.264Z" transform="translate(-76.716 -88.077)" fill="#f9d0b4"/>
        <path id="Path_998430" data-name="Path 998430" d="M119.29,166.192h0a5.579,5.579,0,0,1-2.49-.6v2.052l.876,2.514a.375.375,0,0,0,.346.254h2.7a.346.346,0,0,0,.346-.254l.876-2.514V165.5A5.293,5.293,0,0,1,119.29,166.192Z" transform="translate(-86.872 -127.375)" fill="#f9d0b4"/>
        <path id="Path_998431" data-name="Path 998431" d="M35.093,129.775h0a4.31,4.31,0,0,1-3.344-1.591.51.51,0,0,0-.715-.069l-.069.069a4.231,4.231,0,0,1-3.321,1.591h-.138a.492.492,0,0,0-.507.484v1.96a4.375,4.375,0,0,0,3.874,4.381,4.3,4.3,0,0,0,4.7-3.874,2.371,2.371,0,0,0,.023-.392v-2.029a.479.479,0,0,0-.507-.53Z" transform="translate(-17.779 -98.521)" fill="#f9d0b4"/>
        <path id="Path_998432" data-name="Path 998432" d="M202.922,164.992a4.938,4.938,0,0,1-1.522-.392v1.314l.669,1.937a.278.278,0,0,0,.277.184h2.075a.3.3,0,0,0,.277-.184l.669-1.937v-1.291A5.5,5.5,0,0,1,202.922,164.992Z" transform="translate(-151.964 -126.682)" fill="#f9d0b4"/>
        <path id="Path_998433" data-name="Path 998433" d="M100.22,191.426l-.692-12.245a2.161,2.161,0,0,0-1.66-2.006l-4.335-1.084L90.927,174.8l-.876,2.514a.375.375,0,0,1-.346.254h-2.7a.346.346,0,0,1-.346-.254l-.876-2.514-2.606,1.291-4.335,1.084a2.183,2.183,0,0,0-1.66,2.006l-.692,12.245a1.443,1.443,0,0,0,1.361,1.522H98.744a1.437,1.437,0,0,0,1.43-1.43C100.22,191.5,100.22,191.472,100.22,191.426Z" transform="translate(-55.857 -134.53)" fill="#e9e9ea"/>
        <path id="Path_998434" data-name="Path 998434" d="M191.048,182.937l-.415-7.287a4.4,4.4,0,0,0-3.321-4.012l-1.407-.346L183.9,170.3l-.669,1.937a.278.278,0,0,1-.277.184h-2.075a.3.3,0,0,1-.277-.184l-.669-1.937-2.006.992-1.407.346a4.415,4.415,0,0,0-3.021,2.652,2.193,2.193,0,0,1,.669,1.453l.484,8.532H189.8a1.265,1.265,0,0,0,1.268-1.268A.085.085,0,0,1,191.048,182.937Z" transform="translate(-130.498 -131.068)" fill="#b26e3b"/>
        <path id="Path_998435" data-name="Path 998435" d="M20.918,171.537l-1.407-.346-2.006-.992-.669,1.937a.278.278,0,0,1-.277.184H14.485a.3.3,0,0,1-.277-.184l-.669-1.937-2.006.992-1.407.346a4.4,4.4,0,0,0-3.321,4.012l-.415,7.287a1.265,1.265,0,0,0,1.2,1.337H22.809l.484-8.532a2.145,2.145,0,0,1,.669-1.453A4.5,4.5,0,0,0,20.918,171.537Z" transform="translate(-1.921 -130.991)" fill="#fc7783"/>
        <path id="Path_998436" data-name="Path 998436" d="M221.307.423c0-.046-.023-.069-.023-.115-.023-.023-.023-.069-.046-.092s-.046-.069-.069-.092a.557.557,0,0,0-.807,0h0a.318.318,0,0,0-.069.092.175.175,0,0,0-.046.092.173.173,0,0,0-.023.115c0,.046-.023.069-.023.115a.208.208,0,0,0,.023.115c0,.046.023.069.023.115.023.046.023.069.046.092s.046.069.069.092a.6.6,0,0,0,.807,0,.319.319,0,0,0,.069-.092.175.175,0,0,0,.046-.092.208.208,0,0,0,.023-.115.208.208,0,0,1,.023-.115A.208.208,0,0,0,221.307.423Z" transform="translate(-166.429 0)" fill="#ffcd29"/>
        <path id="Path_998437" data-name="Path 998437" d="M53.249,15.88a.819.819,0,0,0-.092-.208c-.023-.023-.046-.069-.069-.092a.6.6,0,0,0-.807,0,.318.318,0,0,0-.069.092.175.175,0,0,0-.046.092.208.208,0,0,0-.023.115.393.393,0,0,0,0,.231c0,.046.023.069.023.115.023.023.023.069.046.092s.046.069.069.092a.557.557,0,0,0,.807,0h0a.318.318,0,0,0,.069-.092.175.175,0,0,0,.046-.092.173.173,0,0,0,.023-.115A.273.273,0,0,0,53.249,15.88Z" transform="translate(-37.111 -11.907)" fill="#55acd5"/>
        <path id="Path_998438" data-name="Path 998438" d="M197.919,6.521a2.162,2.162,0,0,1-1.729-1.729c0-.023-.023-.046-.046-.023a.023.023,0,0,0-.023.023,2.162,2.162,0,0,1-1.729,1.729c-.023,0-.046.023-.023.046a.023.023,0,0,0,.023.023,2.162,2.162,0,0,1,1.729,1.729c0,.023.023.046.046.023a.023.023,0,0,0,.023-.023,2.162,2.162,0,0,1,1.729-1.729c.023,0,.046-.023.023-.046A.023.023,0,0,0,197.919,6.521Z" transform="translate(-146.546 -3.7)" fill="#ea4647"/>
        <path id="Path_998439" data-name="Path 998439" d="M75.56,93.392h-.415v-.415a.576.576,0,0,0-1.153,0v.415h-.415a.576.576,0,0,0,0,1.153h.415v.415a.576.576,0,0,0,1.153,0v-.415h.415a.576.576,0,0,0,0-1.153Z" transform="translate(-53.172 -71.131)" fill="#6dcc6d"/>
        <path id="Path_998440" data-name="Path 998440" d="M94.931,0H79.2a4.419,4.419,0,0,0-4.4,4.4v6.71a4.4,4.4,0,0,0,4.4,4.4h4.058a.843.843,0,0,1,.692.369l2.283,3.482a.992.992,0,0,0,1.361.277.8.8,0,0,0,.277-.277l2.283-3.482a.843.843,0,0,1,.692-.369h4.058a4.4,4.4,0,0,0,4.4-4.4V4.4A4.384,4.384,0,0,0,94.931,0Zm3.251,11.115a3.248,3.248,0,0,1-3.251,3.251H90.873a1.951,1.951,0,0,0-1.66.9l-2.145,3.251-2.145-3.251a2.006,2.006,0,0,0-1.66-.9H79.2a3.248,3.248,0,0,1-3.251-3.251V4.4A3.248,3.248,0,0,1,79.2,1.153h15.7A3.248,3.248,0,0,1,98.159,4.4v6.71Z" transform="translate(-54.557 -0.038)" fill="#231f20"/>
        <path id="Path_998441" data-name="Path 998441" d="M185.2,30.2H173.713a3.6,3.6,0,0,0-1.8.507.627.627,0,0,0-.277.484v3.136a3.193,3.193,0,0,1-1.13,2.444.655.655,0,0,0-.208.438v1.245a3.405,3.405,0,0,0,3.367,3.39h3.021a.391.391,0,0,1,.369.208l1.683,2.537a.867.867,0,0,0,1.453,0l1.683-2.537a.508.508,0,0,1,.369-.208h2.975a3.376,3.376,0,0,0,3.367-3.39V33.59A3.425,3.425,0,0,0,185.2,30.2Zm2.214,8.278a2.249,2.249,0,0,1-2.214,2.237h-2.975a1.641,1.641,0,0,0-1.337.715l-1.43,2.168-1.43-2.168a1.584,1.584,0,0,0-1.337-.715h-2.975a2.219,2.219,0,0,1-2.214-2.237v-.992a4.359,4.359,0,0,0,1.314-3.136v-2.79a2.054,2.054,0,0,1,.9-.208H185.2a2.219,2.219,0,0,1,2.214,2.237Z" transform="translate(-128.035 -23.274)" fill="#231f20"/>
        <path id="Path_998442" data-name="Path 998442" d="M24.533,36.9a3.265,3.265,0,0,1-1.13-2.444V31.292a.518.518,0,0,0-.277-.484,3.265,3.265,0,0,0-1.8-.507H9.867A3.371,3.371,0,0,0,6.5,33.667v4.912a3.406,3.406,0,0,0,3.367,3.39h2.975a.391.391,0,0,1,.369.208l1.683,2.537a.867.867,0,0,0,1.453,0l1.683-2.537a.508.508,0,0,1,.369-.208h2.975a3.41,3.41,0,0,0,3.39-3.39V37.333A.8.8,0,0,0,24.533,36.9Zm-.969,1.66a2.254,2.254,0,0,1-2.237,2.237H18.376a1.641,1.641,0,0,0-1.337.715l-1.43,2.168-1.43-2.168a1.584,1.584,0,0,0-1.337-.715H9.867a2.219,2.219,0,0,1-2.214-2.237V33.667A2.249,2.249,0,0,1,9.867,31.43H21.35a1.983,1.983,0,0,1,.9.208v2.79a4.454,4.454,0,0,0,1.314,3.136Z" transform="translate(-2.007 -23.351)" fill="#231f20"/>
        <path id="Path_998443" data-name="Path 998443" d="M110.944,17.9h0l-12.567.046a.576.576,0,1,0,0,1.153h0l12.567-.046a.576.576,0,1,0,0-1.153Z" transform="translate(-72.254 -13.811)" fill="#231f20"/>
        <path id="Path_998444" data-name="Path 998444" d="M111.044,31.1l-12.567.046a.576.576,0,1,0,0,1.153h0l12.567-.046a.576.576,0,1,0,0-1.153Z" transform="translate(-72.331 -23.967)" fill="#231f20"/>
        <path id="Path_998445" data-name="Path 998445" d="M111.044,44.3l-12.567.046a.576.576,0,1,0,0,1.153h0l12.567-.046a.571.571,0,0,0,.576-.576h0A.6.6,0,0,0,111.044,44.3Z" transform="translate(-72.331 -34.123)" fill="#231f20"/>
        <path id="Path_998446" data-name="Path 998446" d="M65.876,200.3a.571.571,0,0,0-.576.576v6.48a.576.576,0,0,0,1.153,0v-6.48A.571.571,0,0,0,65.876,200.3Z" transform="translate(-47.248 -154.15)" fill="#231f20"/>
        <path id="Path_998447" data-name="Path 998447" d="M21.676,200.3a.571.571,0,0,0-.576.576v6.48a.576.576,0,1,0,1.153,0v-6.48A.571.571,0,0,0,21.676,200.3Z" transform="translate(-13.24 -154.15)" fill="#231f20"/>
        <path id="Path_998448" data-name="Path 998448" d="M39.566,160.611a.524.524,0,0,0-.576,0,3.987,3.987,0,0,1-1.776.461,3.741,3.741,0,0,1-1.66-.392.606.606,0,0,0-.784.254.465.465,0,0,0-.069.254v1.591a.45.45,0,0,0,.023.184l.669,1.937a.845.845,0,0,0,.807.576h2.075a.845.845,0,0,0,.807-.576l.669-1.937a.508.508,0,0,0,.023-.184V161.1A.365.365,0,0,0,39.566,160.611Zm-.853,2.052-.576,1.66h-1.66l-.576-1.66v-.646a4.873,4.873,0,0,0,2.813-.046Z" transform="translate(-23.704 -123.547)" fill="#231f20"/>
        <path id="Path_998449" data-name="Path 998449" d="M228.67,130.5a2.11,2.11,0,0,0-.392.023.559.559,0,0,0-.484.6v3.528a.582.582,0,0,0,.484.623,2.238,2.238,0,0,0,.392.023,2.4,2.4,0,1,0,0-4.8Zm.277,3.62v-2.444a1.21,1.21,0,0,1,1.084,1.361,1.226,1.226,0,0,1-1.084,1.084Z" transform="translate(-172.27 -100.446)" fill="#231f20"/>
        <path id="Path_998450" data-name="Path 998450" d="M180.813,131.3v-.254a.582.582,0,0,0-.484-.623,2.238,2.238,0,0,0-.392-.023,2.4,2.4,0,1,0,0,4.8,2.109,2.109,0,0,0,.392-.023.568.568,0,0,0,.484-.623V131.3Zm-1.153,2.744a1.23,1.23,0,0,1,0-2.444Z" transform="translate(-133.498 -100.369)" fill="#231f20"/>
        <path id="Path_998451" data-name="Path 998451" d="M197.492,120.943c-.277-.161-.992-.692-.992-1.314v-.023a1.478,1.478,0,0,0-.53-1.153,1.53,1.53,0,0,0-1.291-.3,10.231,10.231,0,0,1-4.266,0,1.458,1.458,0,0,0-1.291.3,1.423,1.423,0,0,0-.53,1.176c0,.623-.715,1.153-.992,1.314a.573.573,0,0,0-.3.507v3.321a5.163,5.163,0,0,0,4.75,5.027,3.737,3.737,0,0,0,.507.023,5.4,5.4,0,0,0,3.666-1.407,4.738,4.738,0,0,0,1.591-3.551v-3.436A.643.643,0,0,0,197.492,120.943Zm-.853,3.92a3.655,3.655,0,0,1-1.222,2.7,4.3,4.3,0,0,1-3.274,1.084,3.991,3.991,0,0,1-3.69-3.874v-3.021a2.8,2.8,0,0,0,1.291-2.121v-.046a.32.32,0,0,1,.115-.231.367.367,0,0,1,.3-.069,11.215,11.215,0,0,0,4.8,0,.333.333,0,0,1,.3.069.284.284,0,0,1,.115.231v.046a2.8,2.8,0,0,0,1.291,2.121Z" transform="translate(-141.115 -90.912)" fill="#231f20"/>
        <path id="Path_998452" data-name="Path 998452" d="M229.876,200.3a.571.571,0,0,0-.576.576v6.48a.576.576,0,1,0,1.153,0v-6.48A.571.571,0,0,0,229.876,200.3Z" transform="translate(-173.43 -154.15)" fill="#231f20"/>
        <path id="Path_998453" data-name="Path 998453" d="M185.776,200.3a.571.571,0,0,0-.576.576v6.48a.576.576,0,1,0,1.153,0v-6.48A.586.586,0,0,0,185.776,200.3Z" transform="translate(-139.5 -154.15)" fill="#231f20"/>
        <path id="Path_998454" data-name="Path 998454" d="M98.868,189.509h0l-.692-12.245a2.777,2.777,0,0,0-2.1-2.537l-4.266-1.084-2.56-1.245a.572.572,0,0,0-.761.254c0,.023-.023.046-.023.069l-.83,2.375h-2.4l-.83-2.375a.573.573,0,0,0-.738-.346c-.023,0-.046.023-.069.023l-2.56,1.245-4.266,1.084a2.777,2.777,0,0,0-2.1,2.537l-.692,12.245a2.011,2.011,0,0,0,1.891,2.121H96.816a2.008,2.008,0,0,0,2.006-2.006.127.127,0,0,0,.046-.115Zm-1.384.692a.914.914,0,0,1-.623.277H76.016a.851.851,0,0,1-.853-.853v-.046l.692-12.245a1.6,1.6,0,0,1,1.222-1.476l4.335-1.084c.046,0,.069-.023.115-.046l2.029-.992.669,1.914a.952.952,0,0,0,.9.623h2.7a.975.975,0,0,0,.9-.623l.669-1.914,2.029.992c.046.023.069.023.115.046l4.335,1.084a1.621,1.621,0,0,1,1.222,1.476l.692,12.245a1.428,1.428,0,0,1-.3.623Z" transform="translate(-53.929 -132.636)" fill="#231f20"/>
        <path id="Path_998455" data-name="Path 998455" d="M150.24,123.4a3.125,3.125,0,0,0-.461.046.559.559,0,0,0-.484.6c0,.115.023.231.023.346v3.851a1.745,1.745,0,0,1-.023.346.559.559,0,0,0,.484.6,2.9,2.9,0,1,0,.922-5.719,1.125,1.125,0,0,0-.461-.069Zm.208,4.635v-3.482a1.755,1.755,0,0,1,0,3.482Z" transform="translate(-111.872 -94.983)" fill="#231f20"/>
        <path id="Path_998456" data-name="Path 998456" d="M93.259,124.323a1.746,1.746,0,0,1,.023-.346.559.559,0,0,0-.484-.6,2.9,2.9,0,0,0-.922,5.719,2.329,2.329,0,0,0,.922,0,.559.559,0,0,0,.484-.6c0-.115-.023-.231-.023-.346Zm-1.153,3.666a1.755,1.755,0,0,1,0-3.482Z" transform="translate(-65.822 -94.937)" fill="#231f20"/>
        <path id="Path_998457" data-name="Path 998457" d="M113.137,114.308a.866.866,0,0,0-.853-.853,5.274,5.274,0,0,1-3.62-1.291.9.9,0,0,0-1.245,0l-.069.069a5.418,5.418,0,0,1-5.488,1.776.889.889,0,0,0-1.038.669.508.508,0,0,0-.023.184v4.474a6.157,6.157,0,0,0,12.314,0v-4.958Zm-1.153,5.073a5,5,0,1,1-10.008,0h0V115.23a6.6,6.6,0,0,0,6.088-2.029,6.386,6.386,0,0,0,3.9,1.407v4.773Z" transform="translate(-74.562 -86.144)" fill="#231f20"/>
        <path id="Path_998458" data-name="Path 998458" d="M105.437,90.507a3.566,3.566,0,0,0-1.453.3,3.839,3.839,0,0,0-2.906-1.407H99.441A6.353,6.353,0,0,0,93.1,95.741v2.583a.571.571,0,0,0,.576.576.7.7,0,0,0,.369-.115,1.7,1.7,0,0,1,1.361-.369.592.592,0,0,0,.669-.484v-.023a6.65,6.65,0,0,0,6.111-2.029,6.386,6.386,0,0,0,3.9,1.407v.553a.571.571,0,0,0,.576.576h.092a1.123,1.123,0,0,1,.277-.023,1.809,1.809,0,0,1,1.222.484.557.557,0,0,0,.807-.023.654.654,0,0,0,.161-.392v-4.2A3.794,3.794,0,0,0,105.437,90.507Zm2.606,6.918a3.121,3.121,0,0,0-.83-.184v-.254a.866.866,0,0,0-.853-.853,5.274,5.274,0,0,1-3.62-1.291.9.9,0,0,0-1.245,0l-.069.069a5.418,5.418,0,0,1-5.488,1.776.865.865,0,0,0-.738.184.754.754,0,0,0-.254.346,3.567,3.567,0,0,0-.715.138V95.718a5.211,5.211,0,0,1,5.188-5.188h1.637a2.594,2.594,0,0,1,2.237,1.268.569.569,0,0,0,.784.208h0a2.614,2.614,0,0,1,3.574.876,2.569,2.569,0,0,1,.369,1.361Z" transform="translate(-68.637 -68.823)" fill="#231f20"/>
        <path id="Path_998459" data-name="Path 998459" d="M126.511,197.843a.619.619,0,0,0-.53-.161c-.046,0-.069.023-.115.023-.046.023-.069.023-.092.046s-.069.046-.092.069a.319.319,0,0,0-.069.092.175.175,0,0,0-.046.092.208.208,0,0,0-.023.115.393.393,0,0,0,0,.231c0,.046.023.069.023.115.023.023.023.069.046.092s.046.069.069.092a.318.318,0,0,0,.092.069.175.175,0,0,0,.092.046.208.208,0,0,0,.115.023c.046,0,.069.023.115.023a.571.571,0,0,0,.576-.576.6.6,0,0,0-.161-.392Z" transform="translate(-93.585 -152.131)" fill="#231f20"/>
        <path id="Path_998460" data-name="Path 998460" d="M126.511,210.743a.619.619,0,0,0-.53-.161c-.046,0-.069.023-.115.023-.023.023-.069.023-.092.046s-.069.046-.092.069a.318.318,0,0,0-.069.092.175.175,0,0,0-.046.092.208.208,0,0,0-.023.115.393.393,0,0,0,0,.231c0,.046.023.069.023.115.023.023.023.069.046.092s.046.069.069.092a.318.318,0,0,0,.092.069.175.175,0,0,0,.092.046.208.208,0,0,0,.115.023.208.208,0,0,1,.115.023.663.663,0,0,0,.415-.161A.6.6,0,0,0,126.511,210.743Z" transform="translate(-93.585 -162.056)" fill="#231f20"/>
        <path id="Path_998461" data-name="Path 998461" d="M126.511,223.643a.619.619,0,0,0-.53-.161c-.046,0-.069.023-.115.023-.046.023-.069.023-.092.046s-.069.046-.092.069a.319.319,0,0,0-.069.092.175.175,0,0,0-.046.092.208.208,0,0,0-.023.115.393.393,0,0,0,0,.231c0,.046.023.069.023.115.023.023.023.069.046.092s.046.069.069.092a.318.318,0,0,0,.092.069.175.175,0,0,0,.092.046.208.208,0,0,0,.115.023.208.208,0,0,1,.115.023.663.663,0,0,0,.415-.161A.6.6,0,0,0,126.511,223.643Z" transform="translate(-93.585 -171.981)" fill="#231f20"/>
        <path id="Path_998462" data-name="Path 998462" d="M126.511,236.543a.619.619,0,0,0-.53-.161c-.046,0-.069.023-.115.023-.046.023-.069.023-.092.046s-.069.046-.092.069a.318.318,0,0,0-.069.092.175.175,0,0,0-.046.092.208.208,0,0,0-.023.115.393.393,0,0,0,0,.231c0,.046.023.069.023.115.023.023.023.069.046.092s.046.069.069.092a.318.318,0,0,0,.092.069.175.175,0,0,0,.092.046.208.208,0,0,0,.115.023h.115a.571.571,0,0,0,.576-.576.653.653,0,0,0-.161-.369Z" transform="translate(-93.585 -181.907)" fill="#231f20"/>
        <path id="Path_998463" data-name="Path 998463" d="M154.376,214.6a.571.571,0,0,0-.576.576v8.394a.576.576,0,1,0,1.153,0v-8.394A.571.571,0,0,0,154.376,214.6Z" transform="translate(-115.34 -165.153)" fill="#231f20"/>
        <path id="Path_998464" data-name="Path 998464" d="M97.076,214.6a.571.571,0,0,0-.576.576v8.394a.576.576,0,0,0,1.153,0v-8.394A.571.571,0,0,0,97.076,214.6Z" transform="translate(-71.253 -165.153)" fill="#231f20"/>
        <path id="Path_998465" data-name="Path 998465" d="M120.242,163.111a.524.524,0,0,0-.576,0,5.043,5.043,0,0,1-2.375.6,4.99,4.99,0,0,1-2.237-.53.606.606,0,0,0-.784.254.465.465,0,0,0-.069.254v2.052a.45.45,0,0,0,.023.184l.876,2.513a.952.952,0,0,0,.9.623h2.7a.975.975,0,0,0,.9-.623l.876-2.513a.508.508,0,0,0,.023-.184V163.6A.464.464,0,0,0,120.242,163.111Zm-.876,2.537-.807,2.283h-2.4l-.807-2.283v-1.107a6.379,6.379,0,0,0,3.989-.046Z" transform="translate(-84.872 -125.471)" fill="#231f20"/>
        <path id="Path_998466" data-name="Path 998466" d="M33.954,127.578a1.1,1.1,0,0,0-.784-.323h0v0a3.7,3.7,0,0,1-2.882-1.384,1.091,1.091,0,0,0-1.522-.161.539.539,0,0,0-.161.161,3.718,3.718,0,0,1-3,1.384.992.992,0,0,0-.784.3,1.1,1.1,0,0,0-.323.784v1.937a4.992,4.992,0,0,0,4.4,4.958,3.248,3.248,0,0,0,.461.023,4.891,4.891,0,0,0,4.889-4.889v-2.029A.916.916,0,0,0,33.954,127.578Zm-.83,2.767a3.72,3.72,0,0,1-4.082,3.69,3.836,3.836,0,0,1-3.367-3.8v-1.845a4.852,4.852,0,0,0,3.782-1.729,4.767,4.767,0,0,0,3.666,1.729Z" transform="translate(-15.856 -96.579)" fill="#231f20"/>
        <path id="Path_998467" data-name="Path 998467" d="M22.656,102.3a6.751,6.751,0,0,0-6.756,6.756v4.266a6.588,6.588,0,0,0,.623,2.813,2.217,2.217,0,0,0,1.983,1.268h2.375a.571.571,0,0,0,.576-.576v-.461a.553.553,0,0,0-.323-.507,3.882,3.882,0,0,1-2.075-3.436v-1.845a4.852,4.852,0,0,0,3.782-1.729,4.767,4.767,0,0,0,3.666,1.729v1.937a3.739,3.739,0,0,1-1.96,3.274.573.573,0,0,0-.3.507v.53a.571.571,0,0,0,.576.576h1.983a2.177,2.177,0,0,0,1.983-1.268,6.588,6.588,0,0,0,.623-2.813v-4.266A6.781,6.781,0,0,0,22.656,102.3Zm5.58,11.022a5.8,5.8,0,0,1-.507,2.329,1.018,1.018,0,0,1-.945.6h-.876a4.821,4.821,0,0,0,1.729-3.713v-2.029a1.085,1.085,0,0,0-.323-.761,1.1,1.1,0,0,0-.784-.323,3.7,3.7,0,0,1-2.882-1.384,1.091,1.091,0,0,0-1.522-.161.539.539,0,0,0-.161.161,3.718,3.718,0,0,1-3,1.384.992.992,0,0,0-.784.3,1.1,1.1,0,0,0-.323.784v1.937a5.081,5.081,0,0,0,1.753,3.828H18.46a1.067,1.067,0,0,1-.945-.6,5.436,5.436,0,0,1-.507-2.329V109.08a5.6,5.6,0,0,1,11.207,0v4.243Z" transform="translate(-9.239 -78.748)" fill="#231f20"/>
        <path id="Path_998468" data-name="Path 998468" d="M44.076,177a.571.571,0,0,0-.576.577v2.583a.576.576,0,0,0,1.153,0v-2.583A.571.571,0,0,0,44.076,177Z" transform="translate(-30.475 -136.223)" fill="#231f20"/>
        <path id="Path_998469" data-name="Path 998469" d="M215.406,198h-1.729a.576.576,0,1,0,0,1.153h1.729a.571.571,0,0,0,.576-.576A.586.586,0,0,0,215.406,198Z" transform="translate(-160.966 -152.38)" fill="#231f20"/>
        <path id="Path_998470" data-name="Path 998470" d="M188.072,99a6.391,6.391,0,0,0-6.572,6.18v1.914a.571.571,0,0,0,.576.576.548.548,0,0,0,.277-.069,1.664,1.664,0,0,1,.738-.184.638.638,0,0,1,.208.023.575.575,0,0,0,.623-.346,2.906,2.906,0,0,0,1.337-2.168v-.046a.32.32,0,0,1,.115-.231.367.367,0,0,1,.3-.069,11.215,11.215,0,0,0,4.8,0,.333.333,0,0,1,.3.069.284.284,0,0,1,.115.231v.046a2.906,2.906,0,0,0,1.337,2.168.572.572,0,0,0,.623.346c.069,0,.138-.023.208-.023a1.664,1.664,0,0,1,.738.184.569.569,0,0,0,.784-.208.614.614,0,0,0,.069-.277V105.2A6.4,6.4,0,0,0,188.072,99Zm5.419,7.287a2.541,2.541,0,0,0-.415-.046l-.023-.023c-.277-.161-.992-.692-.992-1.337a1.474,1.474,0,0,0-1.822-1.453,10.231,10.231,0,0,1-4.266,0,1.458,1.458,0,0,0-1.291.3,1.423,1.423,0,0,0-.53,1.176c0,.623-.715,1.153-.992,1.314l-.023.023a2.541,2.541,0,0,0-.415.046V105.18a5.434,5.434,0,0,1,10.838,0Z" transform="translate(-136.653 -76.209)" fill="#231f20"/>
        <path id="Path_998471" data-name="Path 998471" d="M203.766,162.166a.588.588,0,0,0-.553-.046,4.35,4.35,0,0,1-2.168.346,4.4,4.4,0,0,1-1.337-.346.565.565,0,0,0-.761.3.819.819,0,0,0-.046.231v1.314a.45.45,0,0,0,.023.184l.669,1.937a.845.845,0,0,0,.807.576h2.075a.845.845,0,0,0,.807-.576l.669-1.937a.508.508,0,0,0,.023-.184v-1.291A.454.454,0,0,0,203.766,162.166Zm-.9,1.683-.577,1.66h-1.66l-.576-1.66v-.392a6.139,6.139,0,0,0,.9.161,5.351,5.351,0,0,0,1.914-.161Z" transform="translate(-150.04 -124.733)" fill="#231f20"/>
        <path id="Path_998472" data-name="Path 998472" d="M203.531,146.855l-.9-.369a1.209,1.209,0,0,0-1.291.231.111.111,0,0,1-.161,0,1.318,1.318,0,0,0-1.291-.231l-.9.369a.57.57,0,0,0,.415,1.061h0l.9-.369a.1.1,0,0,1,.115.023,1.263,1.263,0,0,0,1.66,0,.1.1,0,0,1,.115-.023l.9.369a.561.561,0,0,0,.738-.323.534.534,0,0,0-.3-.738Z" transform="translate(-149.828 -112.673)" fill="#231f20"/>
        <path id="Path_998473" data-name="Path 998473" d="M189.64,180.942h0l-.415-7.287a4.961,4.961,0,0,0-3.759-4.543l-1.361-.346-1.96-.968a.572.572,0,0,0-.761.254c0,.023-.023.046-.023.069l-.6,1.753H179.1l-.6-1.753a.573.573,0,0,0-.738-.346c-.023,0-.046.023-.069.023l-1.96.969-1.361.346a5,5,0,0,0-3.413,3,.575.575,0,0,0,.138.623,1.577,1.577,0,0,1,.484,1.084l.484,8.532a.6.6,0,0,0,.576.553H187.8a1.85,1.85,0,0,0,1.845-1.845v-.115Zm-1.337.576a.678.678,0,0,1-.507.208H173.2l-.438-8a2.64,2.64,0,0,0-.576-1.522,3.851,3.851,0,0,1,2.49-1.983l1.407-.346c.046,0,.069-.023.115-.046l1.43-.692.461,1.337a.845.845,0,0,0,.807.576h2.075a.845.845,0,0,0,.807-.576l.461-1.337,1.43.692c.046.023.069.023.115.046l1.407.346a3.832,3.832,0,0,1,2.882,3.482l.415,7.287a.633.633,0,0,1-.184.53Z" transform="translate(-128.513 -129.097)" fill="#231f20"/>
        <path id="Path_998474" data-name="Path 998474" d="M22.549,172.01a5,5,0,0,0-3.413-3l-1.361-.346-1.96-.969a.572.572,0,0,0-.761.254c0,.023-.023.046-.023.069l-.6,1.753h-1.66l-.6-1.753a.573.573,0,0,0-.738-.346c-.023,0-.046.023-.069.023l-1.96.969-1.361.346a4.961,4.961,0,0,0-3.759,4.543l-.392,7.31A1.834,1.834,0,0,0,5.623,182.8H20.865a.581.581,0,0,0,.576-.553l.484-8.532h0a1.738,1.738,0,0,1,.484-1.084A.529.529,0,0,0,22.549,172.01Zm-1.776,1.637-.438,8H5.738a.694.694,0,0,1-.692-.692v-.046l.415-7.287a3.787,3.787,0,0,1,2.882-3.482l1.407-.346c.046,0,.069-.023.115-.046l1.43-.692.461,1.337a.845.845,0,0,0,.807.576h2.075a.845.845,0,0,0,.807-.576l.461-1.337,1.43.692c.046.023.069.023.115.046l1.407.346a3.851,3.851,0,0,1,2.49,1.983,2.64,2.64,0,0,0-.576,1.522Z" transform="translate(0 -129.02)" fill="#231f20"/>
      </g>
    </g>
  </g>
</svg>
