<svg xmlns="http://www.w3.org/2000/svg" xmlns:xlink="http://www.w3.org/1999/xlink" width="108" height="108" viewBox="0 0 108 108">
  <defs>
    <filter id="Path_904820" x="0" y="0" width="108" height="108" filterUnits="userSpaceOnUse">
      <feOffset dy="3" input="SourceAlpha"/>
      <feGaussianBlur stdDeviation="3" result="blur"/>
      <feFlood flood-opacity="0.161"/>
      <feComposite operator="in" in2="blur"/>
      <feComposite in="SourceGraphic"/>
    </filter>
  </defs>
  <g id="Group_1164132" data-name="Group 1164132" transform="translate(-165.877 -10031)">
    <g id="Group_1163943" data-name="Group 1163943" transform="translate(0 222)">
      <g id="Group_1163127" data-name="Group 1163127" transform="translate(5.877 7863)">
        <g id="Group_1160531" data-name="Group 1160531" transform="translate(169 1952)">
          <g id="Icono">
            <g transform="matrix(1, 0, 0, 1, -9, -6)" filter="url(#Path_904820)">
              <g id="Path_904820-2" data-name="Path 904820" transform="translate(9 6)" fill="#ecf4fa">
                <path d="M 45 88.5 C 39.12687683105469 88.5 33.43022537231445 87.35007476806641 28.06830024719238 85.08217620849609 C 22.88852500915527 82.89131164550781 18.23629951477051 79.75458526611328 14.2408504486084 75.75914764404297 C 10.24541282653809 71.76370239257812 7.108687400817871 67.11147308349609 4.917825222015381 61.93170166015625 C 2.649924993515015 56.56977462768555 1.5 50.87312316894531 1.5 45 C 1.5 39.12687683105469 2.649924993515015 33.43022537231445 4.917825222015381 28.06830024719238 C 7.108687400817871 22.88852500915527 10.24541282653809 18.23629951477051 14.2408504486084 14.2408504486084 C 18.23629951477051 10.24541282653809 22.88852500915527 7.108687400817871 28.06830024719238 4.917825222015381 C 33.43022537231445 2.649924993515015 39.12687683105469 1.5 45 1.5 C 50.87312316894531 1.5 56.56977462768555 2.649924993515015 61.93170166015625 4.917825222015381 C 67.11147308349609 7.108687400817871 71.76370239257812 10.24541282653809 75.75914764404297 14.2408504486084 C 79.75458526611328 18.23629951477051 82.89131164550781 22.88852500915527 85.08217620849609 28.06830024719238 C 87.35007476806641 33.43022537231445 88.5 39.12687683105469 88.5 45 C 88.5 50.87312316894531 87.35007476806641 56.56977462768555 85.08217620849609 61.93170166015625 C 82.89131164550781 67.11147308349609 79.75458526611328 71.76370239257812 75.75914764404297 75.75914764404297 C 71.76370239257812 79.75458526611328 67.11147308349609 82.89131164550781 61.93170166015625 85.08217620849609 C 56.56977462768555 87.35007476806641 50.87312316894531 88.5 45 88.5 Z" stroke="none"/>
                <path d="M 45 3 C 39.32871246337891 3 33.82865524291992 4.110054016113281 28.65262985229492 6.299339294433594 C 23.65165710449219 8.414573669433594 19.15968322753906 11.44334411621094 15.301513671875 15.301513671875 C 11.44334411621094 19.15968322753906 8.414573669433594 23.65165710449219 6.299339294433594 28.65262985229492 C 4.110054016113281 33.82865524291992 3 39.32871246337891 3 45 C 3 50.67128753662109 4.110054016113281 56.17134475708008 6.299339294433594 61.34737396240234 C 8.414573669433594 66.34834289550781 11.44334411621094 70.84031677246094 15.301513671875 74.698486328125 C 19.15968322753906 78.55665588378906 23.65165710449219 81.58542633056641 28.65262985229492 83.70066070556641 C 33.82865524291992 85.88994598388672 39.32871246337891 87 45 87 C 50.67128753662109 87 56.17134475708008 85.88994598388672 61.34737396240234 83.70066070556641 C 66.34834289550781 81.58542633056641 70.84031677246094 78.55665588378906 74.698486328125 74.698486328125 C 78.55665588378906 70.84031677246094 81.58542633056641 66.34834289550781 83.70066070556641 61.34737396240234 C 85.88994598388672 56.17134475708008 87 50.67128753662109 87 45 C 87 39.32871246337891 85.88994598388672 33.82865524291992 83.70066070556641 28.65262985229492 C 81.58542633056641 23.65165710449219 78.55665588378906 19.15968322753906 74.698486328125 15.301513671875 C 70.84031677246094 11.44334411621094 66.34834289550781 8.414573669433594 61.34737396240234 6.299339294433594 C 56.17134475708008 4.110054016113281 50.67128753662109 3 45 3 M 45 0 C 69.85281372070312 0 90 20.14718627929688 90 45 C 90 69.85281372070312 69.85281372070312 90 45 90 C 20.14718627929688 90 0 69.85281372070312 0 45 C 0 20.14718627929688 20.14718627929688 0 45 0 Z" stroke="none" fill="#2a5673"/>
              </g>
            </g>
          </g>
        </g>
      </g>
      <g id="inteligencia-emocional_8_" data-name="inteligencia-emocional (8)" transform="translate(164.001 9821.004)">
        <g id="Group_1163942" data-name="Group 1163942" transform="translate(27.884 14.877)">
          <g id="Group_1163938" data-name="Group 1163938" transform="translate(0 36.096)">
            <path id="Path_998475" data-name="Path 998475" d="M58.658,355.589l8.49-4.919c1.593-.923,3.213-1.578,4.965-1.01a59.69,59.69,0,0,0,8.393,2.579,2.358,2.358,0,0,1,1.631,2.825A2.283,2.283,0,0,1,79.31,356.7l1.137.182a5.292,5.292,0,0,0,3.639-.634l8.162-4.754c6.345-3.7,7.277,1.99,5.167,3.289L82.6,363.9a5.432,5.432,0,0,1-4.4.62L67.46,361.642l-3.979,2.3a1.607,1.607,0,0,1-2.191-.587l-3.217-5.573A1.607,1.607,0,0,1,58.658,355.589Z" transform="translate(-54.967 -349.449)" fill="#f6dccd" fill-rule="evenodd"/>
            <path id="Path_998476" data-name="Path 998476" d="M58.658,355.589l8.49-4.919c1.593-.923,3.213-1.578,4.965-1.01,1.045.339,2.443.885,4.016,1.41l-16.446,9.495-1.609-2.787A1.607,1.607,0,0,1,58.658,355.589Z" transform="translate(-54.967 -349.449)" fill="#f1cbbc" fill-rule="evenodd"/>
            <path id="Path_998477" data-name="Path 998477" d="M39.426,372.719l6.733,11.9a1.205,1.205,0,0,1-.454,1.638l-2.29,1.3a1.205,1.205,0,0,1-1.638-.454l-6.733-11.9a1.205,1.205,0,0,1,.454-1.638l2.29-1.3A1.206,1.206,0,0,1,39.426,372.719Z" transform="translate(-34.889 -369.258)" fill="#d1d1d6" fill-rule="evenodd"/>
            <path id="Path_998478" data-name="Path 998478" d="M64.753,380.893,65.945,383l1.178,2.082a1.205,1.205,0,0,1-.451,1.636l.818-.463a1.205,1.205,0,0,0,.454-1.638l-1.182-2.089-2.374-4.2-2.377-4.2-.8-1.412a1.206,1.206,0,0,0-1.4-.556l1.384,2.445,2.374,4.2,1.183,2.089Z" transform="translate(-56.675 -369.258)" fill="#b1b1b5" fill-rule="evenodd"/>
          </g>
          <g id="Group_1163939" data-name="Group 1163939" transform="translate(20.899 0.232)">
            <path id="Path_998479" data-name="Path 998479" d="M262.848,308.17h5.7v2.9a1.735,1.735,0,0,1-1.73,1.73h-2.245a1.735,1.735,0,0,1-1.73-1.73Z" transform="translate(-255.055 -277.501)" fill="#b1b1b5" fill-rule="evenodd"/>
            <path id="Path_998480" data-name="Path 998480" d="M248.752,274.978h9.253V278.6a1.735,1.735,0,0,1-1.73,1.73h-5.793a1.735,1.735,0,0,1-1.73-1.73Z" transform="translate(-242.733 -248.487)" fill="#d1d1d6" fill-rule="evenodd"/>
            <path id="Path_998481" data-name="Path 998481" d="M294.245,270.8v4.144a1.735,1.735,0,0,1-1.73,1.73h2.015a1.735,1.735,0,0,0,1.73-1.73V270.8C295.6,270.821,294.907,270.8,294.245,270.8Z" transform="translate(-280.988 -244.834)" fill="#b1b1b5" fill-rule="evenodd"/>
            <path id="Path_998482" data-name="Path 998482" d="M235.008,248.77h12.713v3.458a1.735,1.735,0,0,1-1.73,1.73h-9.253a1.735,1.735,0,0,1-1.73-1.73Z" transform="translate(-230.719 -225.578)" fill="#eceff1" fill-rule="evenodd"/>
            <path id="Path_998483" data-name="Path 998483" d="M307.989,262.5v1.73a1.735,1.735,0,0,1-1.73,1.73h2.073A1.735,1.735,0,0,0,310,264.227V262.5Z" transform="translate(-293.002 -237.577)" fill="#d1d1d6" fill-rule="evenodd"/>
            <path id="Path_998484" data-name="Path 998484" d="M211.576,64.51a10.646,10.646,0,0,1,10.646,10.646c0,5.913-3.777,5.559-4.289,14.274H205.219c-.512-8.715-4.289-8.362-4.289-14.274A10.646,10.646,0,0,1,211.576,64.51Z" transform="translate(-200.93 -64.51)" fill="#ffe177" fill-rule="evenodd"/>
            <path id="Path_998485" data-name="Path 998485" d="M277.505,64.557a10.647,10.647,0,0,1,9.638,10.6c0,5.492-3.259,5.578-4.133,12.546-.067.534-.12,1.108-.156,1.728h2.015c.512-8.715,4.289-8.362,4.289-14.274A10.646,10.646,0,0,0,278.513,64.51Q278,64.51,277.505,64.557Z" transform="translate(-267.867 -64.51)" fill="#ffd064" fill-rule="evenodd"/>
          </g>
          <path id="Path_998486" data-name="Path 998486" d="M350.661,76.744c-2.9-1.7-8.241-5.618-8.313-9.522-.079-4.346,4.806-6.318,8.481-2.581,3.675-3.736,8.56-1.767,8.481,2.58-.07,3.9-5.41,7.817-8.313,9.522A.325.325,0,0,1,350.661,76.744Z" transform="translate(-303.649 -62.669)" fill="#fe646f" fill-rule="evenodd"/>
          <g id="Group_1163941" data-name="Group 1163941" transform="translate(8.621 12.164)">
            <circle id="Ellipse_12520" data-name="Ellipse 12520" cx="9.036" cy="9.036" r="9.036" fill="#6cf5c2"/>
            <path id="Path_998487" data-name="Path 998487" d="M170.8,159.309a9.036,9.036,0,0,1,0,18.072c-.212,0-.421-.008-.629-.022a9.036,9.036,0,0,0,0-18.027C170.381,159.317,170.591,159.309,170.8,159.309Z" transform="translate(-161.767 -159.309)" fill="#00e499" fill-rule="evenodd"/>
            <g id="Group_1163940" data-name="Group 1163940" transform="translate(4.276 5.735)">
              <path id="Path_998488" data-name="Path 998488" d="M194.153,204.875a1.265,1.265,0,1,1-.894.371A1.261,1.261,0,0,1,194.153,204.875Z" transform="translate(-185.899 -204.875)" fill="#eceff1" fill-rule="evenodd"/>
              <path id="Path_998489" data-name="Path 998489" d="M138.624,204.875a1.265,1.265,0,1,1-.894.371A1.262,1.262,0,0,1,138.624,204.875Z" transform="translate(-137.359 -204.875)" fill="#eceff1" fill-rule="evenodd"/>
            </g>
          </g>
        </g>
        <path id="Path_998490" data-name="Path 998490" d="M75.065,27.88a27.064,27.064,0,0,1-4.233-3.146,1,1,0,0,0-.162-.151c-1.754-1.657-3.049-3.488-3.08-5.17a3.221,3.221,0,0,1,3.24-3.529,5.071,5.071,0,0,1,3.517,1.673,1.007,1.007,0,0,0,1.436,0c1.475-1.5,3.319-2.042,4.812-1.415a3.3,3.3,0,0,1,1.945,3.271C82.487,22.36,78.556,25.763,75.065,27.88ZM62.273,27.3V25.833A1.467,1.467,0,1,1,63.741,27.3Zm5.19,3.669a8.89,8.89,0,0,0,1.6-5.13c-1.859-1.8-3.446-4.029-3.491-6.39a6.4,6.4,0,0,1,.069-1.058A9.637,9.637,0,0,0,49.79,25.755a10.449,10.449,0,0,0,.072,1.257,10.039,10.039,0,0,1,5.28,12.01h1.441V29.314H55.117a3.481,3.481,0,1,1,3.48-3.481V27.3h1.663V25.833a3.481,3.481,0,1,1,3.482,3.481H62.273v9.708h2.578A17.141,17.141,0,0,1,67.464,30.969ZM60.551,49.4H58.306a.725.725,0,0,1-.724-.723v-.723h3.692v.723A.724.724,0,0,1,60.551,49.4Zm1.773-3.46H56.531a.724.724,0,0,1-.722-.723V44.5h7.24v.722A.725.725,0,0,1,62.325,45.942Zm2.454-4.906v.724a.724.724,0,0,1-.723.722H54.8a.723.723,0,0,1-.723-.722v-.4c.065-.106.127-.213.189-.321Zm-4.519-2.014H58.6V29.314h1.663ZM56.583,27.3H55.117a1.467,1.467,0,1,1,1.466-1.467ZM45.54,44.105a8.029,8.029,0,1,1,8.029-8.029,8.038,8.038,0,0,1-8.029,8.029ZM81.375,14.284a6.168,6.168,0,0,0-6.31,1.206,6.17,6.17,0,0,0-6.311-1.206,5.037,5.037,0,0,0-2.4,2.1,11.649,11.649,0,0,0-18.574,9.371c0,.183,0,.361.01.536A10.043,10.043,0,1,0,52.527,43.28,2.758,2.758,0,0,0,53.795,44.3v.915a2.744,2.744,0,0,0,1.773,2.563v.9a2.741,2.741,0,0,0,2.738,2.737h2.245a2.74,2.74,0,0,0,2.736-2.737v-.9a2.745,2.745,0,0,0,1.775-2.563V44.3a2.742,2.742,0,0,0,1.729-2.544v-1.7a15.415,15.415,0,0,1,2.41-8.077,11.358,11.358,0,0,0,1.765-4.5,31.61,31.61,0,0,0,3.419,2.331h0a1.323,1.323,0,0,0,1.357,0c2.044-1.2,8.721-5.5,8.809-10.372a5.319,5.319,0,0,0-3.178-5.165ZM41.789,34.041a.252.252,0,0,0,.076.183.255.255,0,0,0,.182.075.26.26,0,0,0,.258-.258.248.248,0,0,0-.077-.183.244.244,0,0,0-.181-.076.259.259,0,0,0-.258.258Zm1.864,1.606a2.271,2.271,0,1,0-1.606.666A2.254,2.254,0,0,0,43.652,35.647Zm5.565-1.423a.255.255,0,0,0,.076-.183.258.258,0,1,0-.516,0,.258.258,0,0,0,.44.183Zm1.424-1.79a2.273,2.273,0,1,1-1.606-.665,2.263,2.263,0,0,1,1.606.665Zm-1.2,6.516a1.008,1.008,0,0,1-.084,1.422,5.741,5.741,0,0,1-7.625,0,1.007,1.007,0,1,1,1.338-1.506,3.728,3.728,0,0,0,4.951,0,1,1,0,0,1,1.421.084ZM66.586,13.157l1.254-2.171a1.007,1.007,0,1,1,1.744,1.007L68.33,14.165a1.007,1.007,0,0,1-1.744-1.007ZM42.477,17.782a1.008,1.008,0,0,1,1.376-.369l2.172,1.253a1.007,1.007,0,1,1-1.007,1.744l-2.172-1.253A1.008,1.008,0,0,1,42.477,17.782Zm6.8-5.789a1.007,1.007,0,1,1,1.743-1.007l1.254,2.171a1.007,1.007,0,0,1-1.743,1.007Zm9.148-.483V9a1.007,1.007,0,0,1,2.014,0V11.51a1.007,1.007,0,0,1-2.014,0Zm-26.617,45.4a.818.818,0,1,1-.928-.692A.819.819,0,0,1,31.805,56.905Zm38-1.456L54.989,64.57a4.444,4.444,0,0,1-3.61.5L40.633,62.2a1.006,1.006,0,0,0-.764.1l-1.386.8-3.762-6.647,5.844-3.383c1.785-1.032,2.986-1.3,4.149-.922.492.159,1.062.365,1.722.6a42.745,42.745,0,0,0,6.728,1.995,1.341,1.341,0,0,1,.914,1.587c-.188.7-.718,1.009-1.573.914-1.186-.245-2.319-.568-3.517-.91-.574-.165-1.168-.334-1.78-.5a1.007,1.007,0,0,0-.521,1.946c.6.16,1.18.327,1.748.488,1.251.358,2.434.7,3.712.957l.018,0,.02.005L53.2,59.4a6.27,6.27,0,0,0,4.306-.758l8.162-4.756c2.166-1.261,3.873-1.442,4.455-.47a1.628,1.628,0,0,1-.321,2.033ZM38.3,66.973a.19.19,0,0,0-.017-.148l-6.734-11.9a.183.183,0,0,0-.118-.089.179.179,0,0,0-.054-.009.182.182,0,0,0-.093.025l-2.291,1.3a.183.183,0,0,0-.089.117.189.189,0,0,0,.016.148l6.734,11.9a.2.2,0,0,0,.265.074l2.291-1.3A.191.191,0,0,0,38.3,66.973ZM64.658,52.147,56.494,56.9a4.547,4.547,0,0,1-.577.284q.06-.162.105-.334a3.375,3.375,0,0,0-2.293-4.044,1.241,1.241,0,0,0-.132-.033,40.6,40.6,0,0,1-6.476-1.921c-.649-.234-1.261-.456-1.785-.626-2.195-.712-4.155.155-5.781,1.1L33.73,54.7l-.432-.764a2.215,2.215,0,0,0-3.011-.834L28,54.4a2.215,2.215,0,0,0-.835,3.011l6.734,11.9a2.2,2.2,0,0,0,1.333,1.039,2.263,2.263,0,0,0,.6.082,2.183,2.183,0,0,0,1.082-.287l2.291-1.3a2.215,2.215,0,0,0,.834-3.011l-.556-.983,1.039-.6,10.343,2.772a6.917,6.917,0,0,0,1.79.242,6.426,6.426,0,0,0,3.4-.976L70.86,57.163a3.626,3.626,0,0,0,.993-4.782c-.461-.771-2.342-3.061-7.2-.234Z" transform="translate(0 0)" fill="#242222" fill-rule="evenodd"/>
      </g>
    </g>
  </g>
</svg>
